{"glyphs":{"0":{"ha":1508,"x_min":11,"x_max":1335,"o":"m 617 161 q 767 178 697 161 q 890 234 838 196 q 971 334 942 272 q 1000 486 1000 396 q 968 644 1000 582 q 881 744 936 707 q 751 797 825 782 q 594 811 678 811 q 444 794 514 811 q 322 738 374 776 q 241 638 271 700 q 211 486 211 575 q 243 327 211 390 q 330 227 275 264 q 459 176 385 190 q 617 161 533 161 m 594 239 q 476 251 532 239 q 379 293 421 264 q 313 369 338 322 q 289 486 289 417 q 316 610 289 561 q 389 685 343 658 q 494 723 435 713 q 617 733 553 733 q 733 721 678 733 q 831 679 789 708 q 897 603 872 650 q 922 486 922 556 q 895 362 922 410 q 822 287 868 314 q 717 249 776 260 q 594 239 658 239 m 124 486 q 162 685 124 606 q 267 810 200 764 q 423 876 333 857 q 617 896 513 896 q 804 874 718 896 q 953 803 890 851 q 1052 676 1017 754 q 1088 486 1088 599 q 1049 288 1088 367 q 944 162 1011 208 q 788 96 878 115 q 594 76 699 76 q 407 99 493 76 q 258 169 321 121 q 159 296 194 218 q 124 486 124 374 m 46 486 q 89 253 46 347 q 208 103 132 160 q 389 23 285 47 q 617 -1 493 -1 q 838 26 738 -1 q 1012 111 939 53 q 1125 262 1085 169 q 1165 486 1165 354 q 1122 719 1165 625 q 1003 869 1079 813 q 822 949 926 925 q 594 974 717 974 q 373 947 474 974 q 199 861 272 919 q 86 710 126 803 q 46 486 46 618 m 11 486 q 54 727 11 628 q 174 889 97 826 q 359 980 251 951 q 594 1008 467 1008 q 889 971 761 1008 q 1115 840 1017 933 q 1226 712 1183 774 q 1292 590 1268 650 q 1326 471 1317 531 q 1335 347 1335 411 q 1292 108 1335 207 q 1172 -52 1249 10 q 989 -142 1096 -114 q 756 -171 882 -171 q 613 -164 682 -171 q 476 -133 544 -157 q 336 -64 407 -110 q 188 60 265 -18 q 58 228 106 121 q 11 486 11 336 m 594 274 q 704 282 651 274 q 798 314 757 290 q 863 379 839 338 q 888 486 888 421 q 879 547 888 519 q 756 564 822 564 q 644 555 697 564 q 549 522 590 546 q 483 456 508 497 q 458 347 458 414 q 459 318 458 332 q 463 292 460 304 q 594 274 521 274 z "},"1":{"ha":681,"x_min":-61,"x_max":499,"o":"m 49 833 l 189 896 l 253 896 l 253 76 l 169 76 l 169 790 l 49 738 l 49 833 m -26 621 l 93 672 l 93 -1 l 329 -1 l 329 974 l 176 974 l -26 882 l -26 621 m -61 904 l 168 1008 l 364 1008 l 499 865 l 499 -171 l 201 -171 l 58 -36 l 58 460 l -61 568 l -61 904 z "},"2":{"ha":1369,"x_min":-7,"x_max":1226,"o":"m 149 735 q 240 819 190 785 q 346 872 290 853 q 462 900 401 892 q 585 908 522 908 q 705 894 642 908 q 822 851 768 881 q 910 772 875 821 q 944 656 944 724 q 894 477 944 554 q 766 340 843 400 q 599 238 689 281 q 429 161 508 194 l 981 161 l 981 76 l 108 76 l 108 153 q 247 183 168 163 q 409 233 325 203 q 574 303 493 263 q 719 397 656 344 q 823 512 783 449 q 863 650 863 575 q 830 742 863 708 q 749 795 797 776 q 647 819 701 814 q 550 825 593 825 q 373 788 458 825 q 229 681 288 751 l 149 735 m 246 575 q 383 703 304 660 q 564 747 461 747 q 624 744 586 747 q 697 731 661 742 q 758 702 732 721 q 785 650 785 683 q 743 531 785 586 q 635 428 701 475 q 486 346 569 382 q 319 283 403 310 q 160 242 236 257 q 32 222 83 226 l 32 -1 l 1057 -1 l 1057 239 l 746 239 q 855 314 804 271 q 942 410 906 357 q 1001 525 979 464 q 1022 656 1022 586 q 978 815 1022 751 q 865 917 933 879 q 712 970 796 954 q 550 986 628 986 q 401 967 474 986 q 262 914 328 949 q 139 829 196 879 q 40 717 82 779 l 246 575 m -3 -36 l -3 254 q 109 269 43 257 q 249 301 175 282 q 398 349 322 321 q 540 411 474 376 q 656 487 606 446 q 732 576 707 528 q 716 578 724 578 q 703 578 708 578 q 532 531 608 578 q 393 394 456 485 l 138 569 l -7 707 q 105 838 42 779 q 240 937 168 896 q 391 999 313 978 q 550 1021 469 1021 q 674 1012 610 1021 q 798 983 738 1003 q 911 932 858 963 q 1003 858 964 901 q 1098 753 1061 800 q 1156 665 1135 706 q 1184 589 1176 625 q 1192 517 1192 553 q 1168 376 1192 442 q 1104 251 1144 310 l 1226 131 l 1226 -171 l 140 -171 l -3 -36 z "},"3":{"ha":1428,"x_min":-7,"x_max":1232,"o":"m 226 292 q 308 215 265 243 q 398 172 350 186 q 498 153 446 157 q 607 149 550 149 q 694 156 644 149 q 790 183 744 164 q 866 234 835 201 q 897 315 897 267 q 879 372 897 349 q 833 410 861 394 q 769 433 804 425 q 697 444 733 440 q 628 448 661 447 q 572 449 594 449 l 572 531 q 653 533 604 531 q 750 550 703 536 q 831 590 797 564 q 864 661 864 615 q 829 746 864 714 q 744 795 794 778 q 640 818 694 813 q 549 824 586 824 q 372 788 457 824 q 226 679 286 751 q 188 705 207 692 q 149 729 168 718 q 241 820 190 785 q 349 875 292 856 q 468 901 406 894 q 596 908 531 908 q 713 894 650 908 q 828 851 775 881 q 917 774 882 821 q 951 661 951 728 q 932 594 951 624 q 883 544 913 565 q 819 512 854 524 q 751 499 783 500 q 829 482 788 494 q 906 447 871 469 q 963 391 940 424 q 986 315 986 358 q 941 182 986 232 q 829 106 896 132 q 686 72 763 79 q 549 64 610 64 q 435 74 492 64 q 327 107 379 85 q 230 163 275 129 q 150 243 185 197 l 226 292 m 43 263 q 161 126 97 179 q 298 42 225 72 q 454 -1 371 11 q 631 -12 538 -12 q 780 7 703 -12 q 919 67 857 26 q 1022 169 982 107 q 1063 315 1063 231 q 1051 371 1063 343 q 1022 424 1040 399 q 981 468 1004 449 q 935 500 958 488 q 972 526 954 508 q 1001 567 989 544 q 1022 615 1014 590 q 1029 661 1029 639 q 1008 774 1029 725 q 950 860 986 824 q 866 919 914 896 q 765 958 818 943 q 656 978 711 972 q 549 985 600 985 q 260 913 393 985 q 42 710 126 840 l 246 574 q 387 706 306 665 q 575 747 468 747 q 629 744 593 747 q 701 732 665 742 q 763 706 736 722 q 789 661 789 689 q 749 626 789 638 q 658 611 710 615 q 560 607 607 607 q 496 607 513 607 l 496 372 q 535 373 507 372 q 600 373 564 374 q 675 370 636 372 q 747 362 714 368 q 800 344 779 356 q 821 315 821 333 q 787 262 821 281 q 708 235 753 243 q 617 226 663 226 q 549 225 571 225 q 377 272 456 225 q 247 394 299 318 l 43 263 m 256 442 l 369 321 q 454 276 410 292 q 547 260 499 260 l 461 338 l 461 476 q 425 438 442 460 q 393 393 408 417 l 139 563 l -7 700 q 238 936 92 853 q 549 1019 383 1019 q 674 1011 610 1019 q 801 983 739 1003 q 917 933 863 964 q 1011 856 971 901 q 1106 751 1069 797 q 1163 667 1143 706 q 1191 592 1183 628 q 1199 522 1199 557 q 1181 442 1199 481 q 1135 374 1163 404 l 1140 369 q 1206 280 1179 331 q 1232 176 1232 229 q 1189 16 1232 83 q 1078 -95 1146 -51 q 929 -160 1011 -139 q 769 -182 847 -182 q 621 -174 692 -182 q 484 -144 550 -165 q 358 -88 418 -124 q 244 1 299 -53 q 151 89 190 51 q 84 158 113 126 q 34 216 56 189 q -6 272 13 243 l 256 442 z "},"4":{"ha":1397,"x_min":-8,"x_max":1185,"o":"m 732 790 q 481 583 606 686 q 229 378 357 481 l 732 378 l 732 790 m 446 453 q 551 540 499 496 q 656 629 603 585 l 656 453 l 446 453 m 104 364 q 428 629 268 497 q 751 896 589 761 l 819 896 l 819 378 l 938 378 l 938 292 l 819 292 l 819 76 l 732 76 l 732 292 l 104 292 l 104 364 m 656 214 l 656 -1 l 894 -1 l 894 214 l 1015 214 l 1015 453 l 894 453 l 894 974 l 722 974 l 26 399 l 26 214 l 656 214 m -8 414 l 710 1008 l 929 1008 l 1064 865 l 1064 465 l 1185 344 l 1185 44 l 1064 44 l 1064 -171 l 764 -171 l 621 -36 l 621 44 l 135 44 l -8 179 l -8 414 z "},"5":{"ha":1442,"x_min":-22,"x_max":1218,"o":"m 528 147 q 635 154 574 147 q 751 181 696 161 q 846 240 807 201 q 885 340 885 278 q 858 453 885 411 q 785 517 831 494 q 683 546 740 539 q 568 553 626 553 q 483 551 531 553 q 385 541 435 549 q 291 518 336 533 q 215 476 246 503 l 140 488 l 229 896 l 914 896 l 914 825 l 294 825 q 261 693 276 758 q 236 561 246 628 q 310 592 268 581 q 398 611 353 604 q 488 621 443 618 q 568 624 532 624 q 719 614 646 624 q 848 574 792 604 q 938 490 904 544 q 972 343 972 435 q 936 225 972 276 q 846 138 900 174 q 727 83 792 101 q 606 64 663 64 l 524 64 q 411 72 467 64 q 303 98 356 79 q 206 149 251 117 q 125 228 161 181 l 201 278 q 269 214 232 239 q 347 174 306 189 q 435 153 389 160 q 528 147 481 147 m 28 239 q 144 104 82 154 q 279 28 207 54 q 433 -6 351 1 q 606 -14 514 -14 q 756 11 678 -14 q 899 83 835 36 q 1006 195 964 129 q 1049 343 1049 261 q 1011 526 1049 456 q 908 635 974 596 q 756 688 843 674 q 568 701 668 701 q 451 693 510 701 q 336 665 392 685 q 345 706 342 686 q 354 747 349 726 l 992 747 l 992 974 l 167 974 l 47 421 l 243 396 q 308 440 267 424 q 397 463 350 456 q 489 473 443 471 q 568 475 535 475 q 647 472 604 475 q 724 456 689 469 q 783 415 760 442 q 807 340 807 388 q 774 276 807 299 q 695 242 740 253 q 603 228 650 231 q 528 225 556 225 q 360 258 435 225 q 233 371 286 290 l 28 239 m 215 -17 q 124 70 161 33 q 60 138 86 107 q 15 194 33 168 q -22 250 -4 221 l 85 318 l 4 390 l 138 1008 l 1026 1008 l 1161 865 l 1161 578 l 1024 578 q 1122 470 1083 518 q 1181 378 1160 422 q 1210 293 1203 335 q 1218 204 1218 251 q 1173 44 1218 115 q 1058 -78 1128 -28 q 906 -156 989 -129 q 744 -183 822 -183 q 595 -178 667 -183 q 458 -155 524 -172 q 331 -104 392 -137 q 215 -17 269 -71 m 707 306 q 651 304 683 306 q 585 299 619 303 q 517 287 551 294 q 453 265 482 279 q 528 260 485 260 q 578 261 547 260 q 643 267 610 263 q 707 280 676 271 q 754 304 738 289 q 730 306 742 306 q 707 306 718 306 z "},"6":{"ha":1439,"x_min":18,"x_max":1292,"o":"m 633 704 q 564 701 600 704 q 492 689 528 697 q 424 667 457 681 q 364 632 390 653 q 481 724 415 690 q 625 758 546 758 q 788 745 708 758 q 938 681 868 732 l 1107 825 q 882 953 1003 919 q 624 986 761 986 q 391 949 496 986 q 211 843 286 913 q 94 673 136 774 q 53 443 53 572 q 78 279 53 350 q 146 158 103 208 q 248 75 189 108 q 376 22 307 42 q 520 -5 444 3 q 672 -12 596 -12 q 823 13 744 -12 q 966 83 901 38 q 1073 195 1031 129 q 1115 343 1115 261 q 1076 528 1115 457 q 971 638 1038 599 q 817 690 904 676 q 633 704 729 704 m 635 475 q 713 472 671 475 q 792 456 756 469 q 851 416 828 443 q 875 342 875 389 q 849 286 875 308 q 786 250 822 264 q 712 231 750 236 q 649 225 674 225 l 590 225 q 509 232 558 225 q 414 256 460 239 q 334 301 368 274 q 299 371 300 329 q 365 425 324 404 q 453 457 406 446 q 548 472 500 468 q 635 475 596 475 m 224 375 q 270 258 224 303 q 383 190 317 214 q 523 157 450 165 q 649 149 596 149 q 742 160 690 149 q 842 194 794 171 q 921 253 889 217 q 953 342 953 290 q 925 454 953 413 q 852 517 897 496 q 750 546 807 539 q 635 553 693 553 q 576 548 614 553 q 492 533 538 543 q 399 508 446 524 q 313 474 351 493 q 249 429 274 454 q 224 375 224 404 m 929 772 q 865 804 904 792 q 783 824 826 817 q 698 833 740 831 q 625 835 656 835 q 479 811 549 835 q 356 742 410 788 q 267 634 301 697 q 228 492 233 571 q 315 549 265 524 q 419 592 365 575 q 528 619 474 610 q 633 628 583 628 q 785 617 713 628 q 915 577 858 607 q 1004 491 971 547 q 1038 343 1038 435 q 1002 225 1038 276 q 913 138 967 174 q 794 83 858 101 q 672 64 729 64 l 590 64 q 418 86 501 64 q 271 155 335 108 q 168 273 207 201 q 129 443 129 344 q 165 641 129 554 q 267 788 201 728 q 423 878 332 847 q 624 910 514 910 q 720 907 672 910 q 815 896 768 904 q 907 870 863 888 q 992 824 951 853 l 929 772 m 1292 685 l 1125 543 l 1190 478 q 1260 367 1235 433 q 1285 204 1285 300 q 1240 44 1285 115 q 1125 -78 1194 -28 q 972 -155 1056 -128 q 811 -182 889 -182 q 658 -175 736 -182 q 509 -151 581 -168 q 374 -103 438 -133 q 264 -25 311 -72 q 142 97 189 40 q 67 208 94 153 q 28 319 39 263 q 18 443 18 376 q 62 688 18 581 q 185 869 106 794 q 377 982 265 943 q 624 1021 489 1021 q 763 1012 694 1021 q 899 980 832 1003 q 1030 919 965 957 q 1158 824 1094 882 l 1292 685 m 774 306 q 716 304 747 306 q 652 298 685 303 q 588 285 619 293 q 528 264 556 276 q 590 260 563 260 l 649 260 q 688 262 664 260 q 735 269 711 264 q 783 283 760 275 q 821 304 806 292 q 797 306 808 306 q 774 306 785 306 z "},"7":{"ha":1392,"x_min":21,"x_max":1233,"o":"m 989 896 l 989 825 q 844 670 915 758 q 715 483 774 582 q 618 281 657 385 q 571 76 579 176 l 486 76 q 523 278 492 179 q 603 472 554 378 q 713 651 651 565 q 842 811 775 736 l 131 811 l 131 896 l 989 896 m 671 733 q 479 387 550 575 q 408 -1 408 199 l 644 -1 q 682 218 647 107 q 774 433 717 329 q 906 629 831 538 q 1064 790 981 721 l 1064 974 l 56 974 l 56 733 l 671 733 m 21 1008 l 1099 1008 l 1233 865 l 1233 638 q 1075 478 1150 568 q 943 283 1000 388 q 853 63 886 178 q 819 -171 819 -53 l 517 -171 l 374 -36 q 410 281 374 132 q 518 564 447 429 l 164 564 l 21 699 l 21 1008 z "},"8":{"ha":1406,"x_min":-1,"x_max":1231,"o":"m 585 531 q 663 535 615 531 q 754 553 710 539 q 831 593 799 567 q 863 663 863 619 q 824 752 863 719 q 731 801 785 785 q 617 820 676 817 q 519 824 558 824 q 433 817 483 824 q 339 792 383 810 q 263 742 294 774 q 232 663 232 711 q 264 593 232 619 q 340 553 296 567 q 432 535 385 539 q 510 531 479 531 l 585 531 m 510 607 q 464 608 497 607 q 397 615 431 610 q 335 632 363 621 q 308 663 308 643 q 334 707 308 690 q 395 733 360 724 q 465 744 431 742 q 519 747 500 747 l 575 747 q 628 744 593 747 q 699 733 664 742 q 760 707 735 724 q 786 663 786 690 q 759 632 786 643 q 698 615 732 621 q 631 608 664 610 q 585 607 597 607 l 510 607 m 607 149 q 694 156 644 149 q 790 181 744 163 q 866 231 835 199 q 897 311 897 263 q 864 385 897 357 q 785 426 831 413 q 690 444 739 440 q 607 449 640 449 l 488 449 q 405 444 454 449 q 310 426 356 440 q 231 385 264 413 q 197 311 197 357 q 228 231 197 263 q 305 181 260 199 q 400 156 350 163 q 488 149 450 149 l 607 149 m 488 225 q 433 228 468 225 q 362 240 397 231 q 301 266 326 249 q 275 311 275 283 q 303 346 275 333 q 367 364 331 358 q 439 371 404 369 q 488 372 474 372 l 607 372 q 656 371 621 372 q 727 364 690 369 q 792 346 764 358 q 819 311 819 333 q 794 266 819 283 q 733 240 768 249 q 662 228 697 231 q 607 225 626 225 l 488 225 m 465 64 q 349 76 411 64 q 233 117 286 89 q 144 192 179 146 q 110 306 110 239 q 131 371 110 336 q 185 435 153 406 q 253 485 217 465 q 319 506 290 506 q 260 519 292 506 q 203 554 229 532 q 160 604 176 576 q 143 663 143 632 q 178 776 143 729 q 267 853 214 824 q 383 895 319 882 q 500 908 446 908 l 594 908 q 712 895 649 908 q 828 853 775 882 q 916 776 881 824 q 951 663 951 729 q 935 602 951 631 q 892 552 918 574 q 835 518 867 531 q 775 506 804 506 q 845 487 808 506 q 913 439 882 468 q 965 374 944 410 q 985 306 985 339 q 950 192 985 239 q 862 117 915 146 q 746 76 808 89 q 629 64 683 64 l 465 64 m 629 -12 q 778 6 701 -12 q 917 62 854 24 q 1021 160 981 100 q 1061 306 1061 221 q 1027 419 1061 368 q 943 503 993 469 q 1006 572 983 529 q 1029 663 1029 614 q 1005 785 1029 733 q 940 872 981 836 q 845 930 899 908 q 733 964 792 951 q 613 981 674 976 q 500 985 553 985 q 350 967 426 985 q 210 909 274 949 q 106 808 146 869 q 65 663 65 747 q 88 572 65 614 q 151 503 111 529 q 68 419 103 469 q 33 306 33 368 q 74 160 33 221 q 177 62 114 100 q 317 6 240 24 q 465 -12 393 -12 l 629 -12 m 218 -54 q 109 53 151 6 q 42 142 67 100 q 8 224 17 185 q -1 306 -1 263 q 25 415 -1 365 q 96 503 51 464 q 48 576 65 535 q 31 663 31 618 q 74 825 31 757 q 187 936 118 893 q 338 999 256 979 q 500 1019 421 1019 q 638 1016 564 1019 q 789 990 711 1013 q 947 916 867 967 q 1104 771 1026 865 q 1171 665 1143 732 q 1199 524 1199 597 q 1181 438 1199 479 q 1132 364 1164 396 l 1153 344 q 1210 264 1189 308 q 1231 167 1231 219 q 1188 8 1231 74 q 1076 -101 1144 -58 q 926 -162 1008 -143 q 768 -182 844 -182 l 604 -182 q 502 -175 556 -182 q 397 -153 449 -168 q 299 -113 346 -137 q 218 -54 253 -89 m 282 132 q 285 131 283 132 l 282 135 l 282 132 z "},"9":{"ha":1461,"x_min":10,"x_max":1285,"o":"m 535 269 q 604 273 568 269 q 676 285 640 276 q 744 307 711 293 q 804 342 778 321 q 688 249 753 283 q 543 215 622 215 q 380 228 460 215 q 231 293 300 242 l 61 149 q 286 21 165 54 q 544 -12 407 -12 q 776 24 671 -12 q 957 131 882 61 q 1074 301 1032 200 q 1115 531 1115 401 q 1090 694 1115 624 q 1022 815 1065 765 q 920 899 979 865 q 792 951 861 932 q 648 978 724 971 q 496 986 572 986 q 345 961 424 986 q 202 890 267 936 q 95 778 138 844 q 53 631 53 713 q 92 446 53 517 q 197 336 131 375 q 351 283 264 297 q 535 269 439 269 m 533 499 q 455 501 497 499 q 376 517 413 504 q 317 557 340 531 q 293 632 293 583 q 319 688 293 665 q 382 724 346 710 q 456 743 418 738 q 519 749 494 749 l 578 749 q 659 742 610 749 q 754 717 708 735 q 833 672 800 700 q 869 603 867 644 q 803 549 844 569 q 715 517 763 528 q 620 502 668 506 q 533 499 572 499 m 944 599 q 898 715 944 671 q 785 784 851 760 q 645 817 718 808 q 519 825 572 825 q 426 814 478 825 q 326 780 374 803 q 247 720 279 757 q 215 632 215 683 q 243 519 215 561 q 316 456 271 478 q 418 428 361 435 q 533 421 475 421 q 592 426 554 421 q 676 440 631 431 q 769 465 722 450 q 856 500 817 481 q 919 544 894 519 q 944 599 944 569 m 239 201 q 303 169 264 182 q 385 150 342 157 q 469 141 428 143 q 543 139 511 139 q 689 163 619 139 q 813 231 758 186 q 901 340 867 276 q 940 482 935 403 q 853 424 903 450 q 749 381 803 399 q 640 355 694 364 q 535 346 585 346 q 383 356 456 346 q 253 397 310 367 q 164 483 197 426 q 131 631 131 539 q 166 749 131 697 q 256 836 201 800 q 374 891 310 872 q 496 910 439 910 l 578 910 q 750 888 667 910 q 897 819 833 865 q 1000 701 961 772 q 1039 531 1039 629 q 1003 333 1039 419 q 901 186 967 246 q 745 95 836 126 q 544 64 654 64 q 448 67 496 64 q 353 78 400 69 q 261 103 306 86 q 176 150 217 121 l 239 201 m 154 11 q 83 80 110 54 q 42 119 57 106 q 21 140 28 133 q 10 150 14 146 l 178 294 l 156 318 q 55 437 92 363 q 18 631 18 511 q 60 792 18 719 q 169 915 101 864 q 322 994 236 967 q 496 1021 408 1021 q 671 1015 588 1021 q 834 981 754 1008 q 992 899 914 954 q 1153 747 1071 844 q 1247 598 1208 692 q 1285 392 1285 504 q 1241 149 1285 256 q 1118 -31 1197 43 q 928 -143 1039 -104 q 683 -182 817 -182 q 544 -173 613 -182 q 410 -142 476 -164 q 281 -83 344 -121 q 154 11 217 -46 m 533 533 q 592 535 560 533 q 658 540 625 536 q 722 553 690 544 q 781 574 754 561 q 746 578 763 576 q 717 579 729 579 l 658 579 q 619 577 642 579 q 572 569 596 575 q 524 555 547 564 q 486 533 501 546 l 533 533 z "},"\u0000":{"ha":0,"x_min":0,"x_max":0,"o":""},"\r":{"ha":694,"x_min":0,"x_max":0,"o":""}," ":{"ha":835,"x_min":0,"x_max":0,"o":""},"O":{"ha":1622,"x_min":22,"x_max":1476,"o":"m 760 161 q 910 178 840 161 q 1033 234 981 196 q 1114 334 1085 272 q 1143 486 1143 396 q 1113 638 1143 575 q 1032 738 1083 700 q 910 794 981 776 q 760 811 840 811 l 607 811 q 455 794 525 811 q 333 738 385 776 q 252 638 282 700 q 222 486 222 575 q 252 334 222 396 q 333 233 282 272 q 455 178 385 194 q 607 161 525 161 l 760 161 m 607 239 q 489 251 544 239 q 392 292 433 264 q 325 368 350 321 q 300 486 300 415 q 325 603 300 556 q 392 679 350 650 q 490 721 435 708 q 607 733 546 733 l 760 733 q 876 721 821 733 q 974 679 932 708 q 1040 603 1015 650 q 1065 486 1065 556 q 1041 369 1065 417 q 975 293 1017 322 q 878 251 933 264 q 760 239 822 239 l 607 239 m 135 486 q 170 676 135 599 q 269 803 206 754 q 419 874 332 853 q 607 896 506 896 l 760 896 q 947 874 861 896 q 1097 803 1033 851 q 1195 676 1160 754 q 1231 486 1231 599 q 1195 296 1231 374 q 1097 169 1160 218 q 947 99 1033 121 q 760 76 861 76 l 607 76 q 419 98 506 76 q 269 169 332 119 q 170 296 206 218 q 135 486 135 374 m 57 486 q 98 262 57 354 q 212 111 139 169 q 385 26 285 53 q 607 -1 486 -1 l 760 -1 q 981 26 881 -1 q 1153 111 1081 53 q 1267 262 1226 169 q 1307 486 1307 354 q 1267 710 1307 618 q 1153 861 1226 803 q 981 947 1081 919 q 760 974 881 974 l 607 974 q 385 947 486 974 q 212 861 285 919 q 98 710 139 803 q 57 486 57 618 m 22 486 q 65 727 22 628 q 186 889 108 826 q 372 980 264 951 q 607 1008 479 1008 l 760 1008 q 912 999 840 1008 q 1053 962 983 990 q 1191 881 1122 933 q 1333 742 1260 829 q 1436 576 1396 679 q 1476 347 1476 474 q 1434 108 1476 207 q 1315 -52 1392 10 q 1131 -142 1238 -114 q 899 -171 1025 -171 l 746 -171 q 482 -139 604 -171 q 281 -29 360 -107 q 151 102 201 40 q 73 225 101 164 q 33 350 44 286 q 22 486 22 414 m 760 274 q 863 284 814 274 q 950 319 913 294 q 1009 385 988 344 q 1031 486 1031 426 q 1022 547 1031 519 q 899 564 965 564 l 746 564 q 640 553 690 564 q 552 517 590 542 q 492 450 514 492 q 469 347 469 408 q 475 292 469 314 q 538 278 504 282 q 607 274 571 274 l 760 274 z "},"F":{"ha":1468,"x_min":1,"x_max":1297,"o":"m 200 528 l 907 528 l 907 444 l 200 444 l 200 76 l 114 76 l 114 896 l 1050 896 l 1050 811 l 200 811 l 200 528 m 276 733 l 1128 733 l 1128 974 l 36 974 l 36 -1 l 276 -1 l 276 368 l 983 368 l 983 604 l 276 604 l 276 733 m 1 -36 l 1 1008 l 1163 1008 l 1297 865 l 1297 564 l 1085 564 l 1153 496 l 1153 199 l 446 199 l 446 -171 l 144 -171 l 1 -36 z "},"G":{"ha":1735,"x_min":18,"x_max":1496,"o":"m 1046 728 q 906 793 983 775 q 751 811 829 811 l 600 811 q 449 794 519 811 q 328 738 379 776 q 247 638 276 700 q 217 486 217 575 q 246 334 217 396 q 327 234 275 272 q 449 178 379 196 q 600 161 518 161 l 751 161 q 890 177 824 161 q 1008 227 956 193 q 1099 315 1061 261 q 1153 444 1136 368 l 769 444 l 769 528 l 1250 528 l 1250 486 q 1210 292 1250 371 q 1101 166 1169 214 q 943 97 1033 118 q 751 76 853 76 l 600 76 q 413 99 499 76 q 263 169 326 121 q 164 296 200 218 q 128 486 128 374 q 164 676 128 599 q 263 803 200 754 q 413 874 326 851 q 600 896 499 896 l 751 896 q 854 892 803 896 q 954 878 906 889 q 1049 847 1003 867 q 1136 792 1096 826 l 1046 728 m 1254 772 q 1149 875 1206 836 q 1028 936 1092 914 q 896 966 965 958 q 751 974 826 974 l 600 974 q 379 947 479 974 q 206 861 279 919 q 93 710 133 803 q 53 486 53 618 q 93 262 53 354 q 206 111 133 169 q 379 26 279 53 q 600 -1 479 -1 l 751 -1 q 976 24 871 -1 q 1158 108 1081 50 q 1281 258 1236 165 q 1326 486 1326 351 l 1326 604 l 692 604 l 692 368 l 1053 368 q 996 306 1031 331 q 920 266 961 281 q 835 245 879 251 q 751 239 792 239 l 600 239 q 482 251 538 239 q 385 292 426 264 q 318 368 343 321 q 293 486 293 415 q 318 603 293 556 q 385 679 343 650 q 483 721 428 708 q 600 733 539 733 l 751 733 q 908 708 833 733 q 1042 621 983 682 l 1254 772 m 275 -22 q 147 104 197 44 q 69 224 97 164 q 29 348 40 285 q 18 486 18 411 q 61 727 18 628 q 181 889 104 826 q 365 980 258 951 q 600 1008 472 1008 l 751 1008 q 899 1001 828 1008 q 1036 973 969 994 q 1165 909 1103 951 q 1285 796 1226 867 q 1353 726 1326 754 q 1395 679 1379 699 q 1420 648 1411 660 q 1436 626 1429 636 l 1394 597 l 1496 496 l 1496 347 q 1449 106 1496 204 q 1319 -55 1401 7 q 1127 -144 1238 -117 q 890 -171 1017 -171 l 739 -171 q 475 -135 597 -171 q 275 -22 353 -100 m 657 556 q 580 534 615 549 q 518 494 544 519 q 477 433 492 469 q 463 347 463 396 q 468 292 463 314 q 531 278 497 282 q 600 274 564 274 l 725 274 l 657 333 l 657 556 z "},"H":{"ha":1481,"x_min":3,"x_max":1308,"o":"m 975 76 l 975 444 l 200 444 l 200 76 l 115 76 l 115 896 l 200 896 l 200 528 l 975 528 l 975 896 l 1061 896 l 1061 76 l 975 76 m 1139 -1 l 1139 974 l 897 974 l 897 604 l 278 604 l 278 974 l 38 974 l 38 -1 l 278 -1 l 278 368 l 897 368 l 897 -1 l 1139 -1 m 447 639 l 863 639 l 863 1008 l 1174 1008 l 1308 865 l 1308 -171 l 1006 -171 l 863 -36 l 863 199 l 447 199 l 447 -171 l 146 -171 l 3 -36 l 3 1008 l 313 1008 l 447 865 l 447 639 z "},"I":{"ha":654,"x_min":-8,"x_max":432,"o":"m 103 76 l 103 896 l 186 896 l 186 76 l 103 76 m 263 -1 l 263 974 l 26 974 l 26 -1 l 263 -1 m -8 -36 l -8 1008 l 297 1008 l 432 865 l 432 -171 l 135 -171 l -8 -36 z "},"J":{"ha":1503,"x_min":-44,"x_max":1313,"o":"m 596 161 q 747 178 676 161 q 869 234 817 196 q 950 334 921 272 q 979 486 979 396 l 979 896 l 1068 896 l 1068 486 q 1026 280 1068 360 q 914 155 985 200 q 748 93 843 110 q 547 76 653 76 q 424 82 486 76 q 306 104 363 88 q 198 153 249 121 q 108 240 147 186 l 200 296 q 283 224 238 250 q 381 183 329 197 q 486 165 432 169 q 596 161 540 161 m 547 239 q 363 276 447 239 q 221 396 279 313 l 3 265 q 118 121 54 174 q 257 41 182 68 q 417 6 332 14 q 596 -1 501 -1 q 817 26 717 -1 q 990 111 917 53 q 1103 262 1063 169 q 1143 486 1143 354 l 1143 974 l 903 974 l 903 486 q 872 354 903 403 q 792 280 842 306 q 678 247 742 254 q 547 239 614 239 m 547 274 q 665 281 607 274 q 767 309 722 288 q 840 373 813 331 q 868 486 868 415 l 868 1008 l 1178 1008 l 1313 865 l 1313 347 q 1270 108 1313 207 q 1151 -52 1228 10 q 967 -142 1074 -114 q 735 -171 861 -171 q 584 -166 657 -171 q 444 -144 511 -161 q 315 -97 376 -128 q 199 -11 253 -65 q 102 82 140 42 q 38 156 64 122 q -8 218 11 189 q -44 279 -26 247 l 229 442 q 251 411 239 426 q 277 381 263 397 q 311 349 292 364 q 423 292 361 310 q 547 274 485 274 z "},"K":{"ha":1629,"x_min":6,"x_max":1658,"o":"m 117 896 l 201 896 l 201 543 l 892 896 l 1033 896 l 222 486 q 623 281 424 382 q 1024 76 822 181 l 892 76 l 201 428 l 201 76 l 117 76 l 117 896 m 279 301 l 869 -1 l 1301 0 q 839 242 1068 121 q 376 486 610 364 l 1314 974 l 869 974 q 575 822 722 896 q 279 671 428 747 l 279 974 l 40 974 l 40 -1 l 279 -1 l 279 301 m 649 381 l 771 317 q 909 244 838 282 q 1053 169 981 207 q 1197 94 1125 132 q 1333 24 1268 57 l 1658 -169 l 1000 -171 l 449 113 l 449 -171 l 149 -171 l 6 -36 l 6 1008 l 314 1008 l 449 865 l 449 797 q 541 844 496 821 q 635 892 586 867 q 738 945 683 917 q 860 1008 793 974 l 1331 1008 l 1506 826 l 649 381 z "},"M":{"ha":1693,"x_min":17,"x_max":1478,"o":"m 128 896 l 200 896 l 679 185 q 917 542 797 365 q 1160 896 1038 718 l 1232 896 l 1232 76 l 1146 76 l 1146 721 l 714 76 l 646 76 l 214 719 l 214 76 l 128 76 l 128 896 m 290 467 l 603 -1 l 756 -1 l 1069 468 l 1069 -1 l 1308 -1 l 1308 974 l 1117 974 l 678 324 l 242 974 l 51 974 l 51 -1 l 290 -1 l 290 467 m 396 865 l 697 414 l 1100 1008 l 1343 1008 l 1478 865 l 1478 -171 l 1178 -171 l 1035 -36 l 1035 15 l 910 -171 l 726 -171 l 586 -36 l 460 153 l 460 -171 l 160 -171 l 17 -36 l 17 1008 l 258 1008 l 396 865 z "},"N":{"ha":1467,"x_min":-1,"x_max":1258,"o":"m 942 76 l 193 764 l 193 76 l 111 76 l 111 896 l 182 896 l 928 208 l 928 896 l 1011 896 l 1011 76 l 942 76 m 1089 -1 l 1089 974 l 851 974 l 851 383 l 208 974 l 33 974 l 33 -1 l 271 -1 l 271 590 l 915 -1 l 1089 -1 m -1 -36 l -1 1008 l 221 1008 l 817 463 l 817 1008 l 1124 1008 l 1258 865 l 1258 -171 l 1042 -171 l 440 381 l 440 -171 l 142 -171 l -1 -36 z "},"P":{"ha":1456,"x_min":3,"x_max":1306,"o":"m 793 733 q 827 731 810 733 q 859 721 844 728 q 883 701 874 714 q 893 668 893 689 q 883 636 893 649 q 857 617 872 624 q 824 607 842 610 q 792 604 806 604 l 278 604 l 278 733 l 793 733 m 792 528 q 858 535 825 528 q 915 560 890 543 q 956 603 940 576 q 971 668 971 631 q 956 734 971 707 q 917 778 942 761 q 860 803 893 796 q 793 811 828 811 l 200 811 l 200 528 l 792 528 m 200 76 l 115 76 l 115 896 l 793 896 q 899 883 850 896 q 983 842 947 869 q 1038 772 1018 815 q 1058 668 1058 728 q 1023 542 1058 592 q 918 465 988 493 l 918 464 q 829 447 886 453 q 702 440 772 442 q 556 438 632 438 q 410 440 479 438 q 285 443 340 442 q 200 444 229 444 l 200 76 m 1136 668 q 1111 805 1136 747 q 1041 900 1086 863 q 933 956 996 938 q 793 974 869 974 l 38 974 l 38 -1 l 278 -1 l 278 368 q 365 367 311 368 q 481 363 418 365 q 611 361 543 361 q 742 364 679 361 q 860 374 806 367 q 950 393 914 381 l 950 394 q 1089 500 1042 433 q 1136 668 1136 567 m 3 -36 l 3 1008 l 793 1008 q 899 1001 847 1008 q 1005 969 951 993 q 1115 900 1058 944 q 1235 782 1172 856 q 1290 675 1275 742 q 1306 529 1306 608 q 1253 343 1306 417 q 1100 225 1201 269 q 1034 209 1072 215 q 950 199 996 203 q 853 193 904 194 q 751 192 803 192 q 603 192 676 192 q 447 193 529 192 l 447 -171 l 146 -171 l 3 -36 z "},"Q":{"ha":1764,"x_min":24,"x_max":1908,"o":"m 776 239 l 608 239 q 490 251 546 239 q 392 292 435 264 q 325 368 350 321 q 300 486 300 415 q 325 604 300 557 q 392 680 350 651 q 490 721 435 708 q 608 733 546 733 l 760 733 q 876 721 821 733 q 974 679 932 708 q 1042 603 1017 650 q 1067 486 1067 556 q 1056 408 1067 446 q 1026 336 1046 371 l 888 411 l 485 411 l 776 239 m 1046 240 q 1117 353 1092 289 q 1143 486 1143 418 q 1114 638 1143 575 q 1033 738 1085 700 q 910 794 981 776 q 760 811 840 811 l 608 811 q 458 794 528 811 q 335 738 388 776 q 253 637 283 699 q 224 486 224 575 q 253 334 224 396 q 335 234 283 272 q 458 178 388 196 q 608 161 528 161 l 760 161 q 810 165 779 161 q 873 176 840 169 q 935 191 906 183 q 985 206 965 199 l 742 336 l 871 335 l 1046 240 m 136 486 q 172 676 136 599 q 270 803 207 754 q 420 874 333 853 q 608 896 507 896 l 760 896 q 947 874 861 896 q 1097 803 1033 851 q 1196 676 1160 754 q 1232 486 1232 599 q 1201 340 1232 410 q 1128 207 1169 269 l 1369 76 l 1253 76 l 1088 167 q 928 101 1017 126 q 760 76 840 76 l 608 76 q 420 98 507 76 q 270 169 333 119 q 172 296 207 218 q 136 486 136 374 m 58 486 q 85 290 58 371 q 161 154 113 208 q 276 69 210 100 q 419 23 342 39 q 584 3 497 7 q 760 -1 671 -1 q 928 21 840 -1 q 1089 79 1017 43 l 1238 0 l 1638 0 l 1239 235 q 1289 356 1271 293 q 1307 486 1307 419 q 1280 683 1307 601 q 1205 818 1253 764 q 1092 903 1157 872 q 949 950 1026 935 q 784 969 871 965 q 608 974 697 974 q 387 947 488 974 q 213 861 286 919 q 99 710 140 803 q 58 486 58 618 m 24 486 q 67 727 24 628 q 188 889 110 826 q 373 980 265 951 q 608 1008 481 1008 q 803 1005 707 1008 q 994 977 900 1001 q 1178 898 1088 953 q 1353 739 1268 843 q 1444 581 1411 681 q 1476 347 1476 482 q 1465 251 1476 299 q 1438 158 1454 204 l 1767 -35 l 1908 -169 l 1369 -169 l 1229 -94 q 1067 -150 1156 -129 q 899 -171 979 -171 q 719 -168 808 -171 q 547 -151 629 -165 q 392 -108 464 -137 q 269 -28 321 -79 q 147 94 194 36 q 72 213 99 153 q 34 340 44 274 q 24 486 24 407 m 747 564 q 591 538 661 564 q 489 446 521 511 l 896 446 l 1013 383 q 1032 486 1032 435 q 1024 547 1032 518 q 899 564 965 564 l 747 564 z "},"R":{"ha":1604,"x_min":17,"x_max":1531,"o":"m 804 733 q 839 731 821 733 q 872 721 857 728 q 898 701 888 714 q 908 668 908 689 q 897 636 908 649 q 870 617 886 624 q 835 607 854 610 q 803 604 817 604 l 289 604 l 289 733 l 804 733 m 803 528 q 869 535 836 528 q 928 560 901 543 q 970 603 954 576 q 986 668 986 631 q 971 735 986 707 q 930 779 956 763 q 872 803 904 796 q 804 811 839 811 l 213 811 l 213 528 l 803 528 m 929 465 q 886 449 910 454 q 842 438 863 443 q 998 257 919 346 q 1156 76 1076 168 l 1043 76 l 722 444 l 213 444 l 213 76 l 126 76 l 126 896 l 804 896 q 910 883 861 896 q 995 843 960 871 q 1051 772 1031 815 q 1071 668 1071 729 q 1036 542 1071 592 q 931 465 1001 493 l 929 465 m 1149 668 q 1124 805 1149 747 q 1053 900 1099 863 q 944 956 1007 938 q 804 974 881 974 l 51 974 l 51 -1 l 289 -1 l 289 368 l 686 368 l 1006 -1 l 1325 -1 l 975 400 q 1149 668 1149 476 m 17 -36 l 17 1008 l 804 1008 q 908 1001 858 1008 q 1009 969 958 993 q 1115 901 1060 946 q 1232 783 1169 857 q 1295 676 1272 743 q 1318 529 1318 608 q 1278 367 1318 438 q 1164 251 1239 296 q 1254 147 1207 201 q 1349 38 1301 93 q 1442 -70 1396 -17 q 1531 -171 1489 -124 l 1131 -171 l 990 -36 l 788 199 l 458 199 l 458 -171 l 160 -171 l 17 -36 z "},"T":{"ha":1511,"x_min":10,"x_max":1382,"o":"m 586 76 l 586 811 l 121 811 l 121 896 l 1136 896 l 1136 811 l 669 811 l 669 76 l 586 76 m 746 -1 l 746 733 l 1213 733 l 1213 974 l 44 974 l 44 733 l 510 733 l 510 -1 l 746 -1 m 10 699 l 10 1008 l 1247 1008 l 1382 865 l 1382 564 l 915 564 l 915 -171 l 618 -171 l 475 -36 l 475 564 l 153 564 l 10 699 z "},"D":{"ha":1613,"x_min":13,"x_max":1422,"o":"m 703 161 q 854 178 783 161 q 977 233 925 194 q 1059 334 1029 272 q 1089 486 1089 396 q 1059 638 1089 576 q 977 739 1029 700 q 854 794 925 778 q 703 811 783 811 l 208 811 l 208 161 l 703 161 m 703 733 q 822 722 765 733 q 920 681 878 710 q 988 604 963 651 q 1014 486 1014 557 q 989 367 1014 415 q 921 291 964 319 q 822 251 878 263 q 703 239 765 239 l 283 239 l 283 733 l 703 733 m 703 896 q 890 874 804 896 q 1040 803 976 853 q 1140 676 1104 754 q 1176 486 1176 599 q 1140 296 1176 374 q 1040 169 1104 218 q 890 98 976 119 q 703 76 804 76 l 124 76 l 124 896 l 703 896 m 703 -1 q 924 25 824 -1 q 1098 110 1025 51 q 1212 261 1171 168 q 1253 486 1253 354 q 1212 711 1253 618 q 1098 863 1171 804 q 924 947 1025 921 q 703 974 824 974 l 47 974 l 47 -1 l 703 -1 m 13 1008 l 703 1008 q 856 1001 782 1008 q 1001 967 929 993 q 1144 889 1072 940 q 1290 750 1215 838 q 1388 580 1353 688 q 1422 347 1422 472 q 1379 108 1422 207 q 1259 -52 1336 10 q 1075 -142 1182 -114 q 842 -171 968 -171 l 156 -171 l 13 -36 l 13 1008 m 453 274 l 703 274 q 808 284 758 274 q 897 319 858 294 q 957 384 935 343 q 979 486 979 425 q 972 547 979 517 q 842 564 911 564 l 453 564 l 453 274 z "},"S":{"ha":1589,"x_min":6,"x_max":1442,"o":"m 254 267 q 353 201 299 224 q 465 170 407 179 q 585 160 524 161 q 703 160 646 160 q 759 161 724 160 q 835 167 794 163 q 918 181 876 172 q 994 206 960 190 q 1049 242 1028 221 q 1071 294 1071 264 q 1048 348 1071 325 q 989 388 1025 371 q 908 416 953 404 q 818 434 863 428 q 735 443 774 440 q 674 446 697 446 l 675 446 q 593 453 642 447 q 492 469 544 458 q 386 498 439 481 q 292 540 333 515 q 224 599 250 565 q 197 678 197 633 q 223 761 197 726 q 290 820 249 796 q 382 859 331 844 q 486 882 433 874 q 587 893 539 890 q 668 896 635 896 q 778 891 722 896 q 889 874 835 886 q 994 840 943 861 q 1089 785 1046 818 l 1015 732 q 931 776 975 760 q 839 800 886 792 q 743 810 792 808 q 649 813 694 813 q 562 808 617 813 q 453 791 507 804 q 361 751 400 778 q 322 678 322 724 q 360 606 322 633 q 458 563 397 579 q 598 538 519 547 q 758 519 676 529 q 919 497 840 510 q 1058 459 997 483 q 1157 395 1119 435 q 1194 294 1194 356 q 1169 218 1194 251 q 1101 160 1143 185 q 1008 120 1060 136 q 903 94 956 104 q 804 81 851 85 q 726 76 757 76 l 622 76 q 503 81 565 76 q 381 99 440 85 q 267 140 321 114 q 171 213 213 167 l 254 267 m 56 242 q 188 102 111 151 q 353 30 264 53 q 537 3 442 7 q 726 -1 632 -1 q 825 5 768 -1 q 943 25 882 11 q 1063 62 1004 39 q 1169 117 1122 85 q 1244 194 1215 150 q 1272 294 1272 238 q 1242 410 1272 363 q 1165 491 1213 458 q 1055 544 1117 524 q 928 575 993 564 q 800 592 863 586 q 689 601 738 597 q 625 608 672 603 q 528 622 578 613 q 439 644 478 631 q 400 678 400 658 q 436 711 400 700 q 519 728 472 722 q 609 734 565 733 q 668 735 653 735 q 758 731 713 735 q 848 717 804 728 q 931 685 892 706 q 1004 631 971 664 l 1207 767 q 1088 880 1154 839 q 946 942 1021 921 q 790 968 871 963 q 626 974 708 974 q 528 967 583 974 q 417 947 474 961 q 308 911 361 933 q 213 856 254 889 q 146 778 171 822 q 121 678 121 735 q 153 565 121 613 q 238 485 185 518 q 357 431 290 451 q 492 397 424 410 q 626 376 561 383 q 739 363 690 368 q 794 357 753 361 q 879 345 835 353 q 958 325 924 338 q 993 294 993 313 q 971 269 993 279 q 914 252 949 258 q 838 243 879 246 q 756 239 796 240 q 685 238 717 238 q 642 238 654 238 q 538 242 589 238 q 438 262 486 247 q 346 303 389 276 q 268 374 303 329 l 56 242 m 257 408 l 190 476 q 114 562 142 513 q 86 678 86 611 q 113 791 86 742 q 185 876 140 840 q 286 938 229 913 q 403 979 343 964 q 521 1001 463 994 q 626 1008 579 1008 q 792 1003 708 1008 q 955 978 875 999 q 1108 914 1035 957 q 1246 793 1182 871 q 1314 722 1289 750 q 1353 674 1339 693 q 1375 642 1368 654 q 1389 621 1382 631 l 1211 501 q 1227 490 1218 494 q 1253 471 1236 485 q 1297 431 1269 457 q 1369 358 1324 406 q 1422 269 1403 324 q 1442 156 1442 215 q 1411 44 1442 93 q 1332 -40 1381 -4 q 1221 -101 1283 -76 q 1094 -142 1158 -126 q 970 -164 1031 -157 q 865 -171 910 -171 q 699 -171 783 -171 q 533 -157 614 -171 q 375 -111 451 -143 q 235 -14 299 -79 q 144 74 181 36 q 81 144 107 113 q 38 201 56 175 q 6 253 21 228 l 257 408 z "},"U":{"ha":1688,"x_min":18,"x_max":1472,"o":"m 218 896 l 218 486 q 247 334 218 396 q 328 234 276 272 q 450 178 381 196 q 601 161 519 161 l 754 161 q 905 178 835 161 q 1027 234 975 196 q 1109 334 1079 272 q 1139 486 1139 396 l 1139 896 l 1226 896 l 1226 486 q 1190 296 1226 374 q 1091 169 1154 218 q 942 98 1028 119 q 754 76 856 76 l 601 76 q 413 98 500 76 q 263 169 326 119 q 165 296 200 218 q 129 486 129 374 l 129 896 l 218 896 m 53 486 q 93 262 53 354 q 206 111 133 169 q 380 26 279 53 q 601 -1 481 -1 l 754 -1 q 976 26 875 -1 q 1149 111 1076 53 q 1263 262 1222 169 q 1303 486 1303 354 l 1303 974 l 1061 974 l 1061 486 q 1036 368 1061 415 q 969 292 1011 321 q 872 251 928 264 q 754 239 817 239 l 601 239 q 483 251 539 239 q 386 293 428 264 q 320 369 344 322 q 296 486 296 417 l 296 974 l 53 974 l 53 486 m 18 1008 l 331 1008 l 465 865 l 465 347 q 466 318 465 332 q 469 292 467 304 q 601 274 528 274 l 754 274 q 858 284 808 274 q 944 319 907 294 q 1004 385 982 344 q 1026 486 1026 425 l 1026 1008 l 1338 1008 l 1472 865 l 1472 347 q 1429 108 1472 207 q 1310 -52 1386 10 q 1126 -142 1233 -114 q 893 -171 1019 -171 l 740 -171 q 603 -164 669 -171 q 478 -141 538 -157 q 369 -99 419 -125 q 281 -33 319 -72 q 151 97 201 35 q 71 221 100 158 q 30 348 42 283 q 18 486 18 413 l 18 1008 z "},"V":{"ha":1742,"x_min":-81,"x_max":1706,"o":"m 719 76 q 426 486 572 283 q 133 896 281 689 l 244 896 l 756 179 q 1006 537 882 358 q 1256 896 1131 715 l 1360 896 l 786 76 l 719 76 m 1214 974 q 985 642 1099 807 q 753 311 871 476 l 282 974 l -12 974 l 682 -1 l 828 -1 l 1508 974 l 1214 974 m 1706 865 l 983 -171 l 804 -171 l 664 -36 l -81 1008 l 328 1008 l 438 865 l 769 394 q 856 517 813 454 q 951 653 900 581 q 1061 813 1001 726 q 1196 1008 1121 900 l 1574 1008 l 1706 865 z "},"W":{"ha":1967,"x_min":-22,"x_max":1840,"o":"m 521 218 q 664 558 590 390 q 808 896 738 725 l 876 896 l 1164 219 q 1306 557 1235 389 q 1446 896 1376 725 l 1543 896 q 1374 486 1458 689 q 1204 76 1289 283 l 1133 76 l 843 754 l 550 76 l 482 76 q 314 487 399 283 q 143 896 229 690 l 240 896 l 521 218 m 432 -1 l 604 -1 q 722 278 663 140 q 842 557 781 417 l 1081 -1 l 1254 -1 l 1657 974 l 1394 974 q 1280 698 1338 835 q 1164 422 1222 561 l 928 974 l 758 974 l 521 419 l 290 974 l 29 974 l 432 -1 m 313 1008 l 449 865 l 558 599 q 647 803 603 701 q 736 1008 692 904 l 951 1008 l 1088 865 l 1200 599 l 1217 638 q 1235 680 1225 657 q 1253 722 1246 703 q 1314 867 1283 793 q 1372 1008 1344 942 l 1708 1008 l 1840 865 l 1413 -171 l 1199 -171 l 1057 -36 l 938 242 q 849 34 893 138 q 763 -171 804 -69 l 551 -171 l 410 -36 l -22 1008 l 313 1008 z "},"X":{"ha":1832,"x_min":-29,"x_max":1790,"o":"m 1357 76 l 1232 76 l 815 443 l 406 76 l 283 76 l 761 489 q 522 693 640 592 q 281 896 403 794 l 406 896 l 817 533 q 1018 715 917 625 q 1221 896 1119 804 l 1344 896 l 871 489 l 1357 76 m 1193 974 q 1006 805 1100 888 q 817 636 911 722 l 435 974 l 72 974 l 643 490 l 72 -1 l 435 -1 l 815 340 l 1203 -1 l 1568 -1 l 990 488 l 1554 974 l 1193 974 m 1775 865 l 1192 361 l 1663 -36 l 1790 -171 l 1329 -171 l 954 160 q 769 -6 863 76 q 585 -171 676 -89 l 129 -171 l -21 -36 l 581 482 l -29 1008 l 447 1008 l 815 683 l 1181 1008 l 1647 1008 l 1775 865 z "},"Y":{"ha":1628,"x_min":-132,"x_max":1581,"o":"m 140 896 l 263 896 l 665 500 l 1061 896 l 1182 896 l 707 422 l 707 76 l 621 76 l 621 421 l 140 896 m 785 -1 l 785 390 l 1367 974 l 1031 974 l 664 604 l 292 974 l -47 974 l 544 388 l 544 -1 l 785 -1 m 510 374 q 353 528 435 447 q 189 691 272 608 q 24 854 106 774 q -132 1008 -58 935 l 306 1008 l 663 653 l 1015 1008 l 1451 1008 l 1581 865 l 954 239 l 954 -171 l 653 -171 l 510 -36 l 510 374 z "},"Z":{"ha":1438,"x_min":1,"x_max":1265,"o":"m 156 896 l 975 896 l 975 826 l 260 161 l 1019 161 l 1019 76 l 113 76 l 113 146 l 831 811 l 156 811 l 156 896 m 78 733 l 638 733 l 36 179 l 36 -1 l 1096 -1 l 1096 239 l 454 239 l 1053 792 l 1053 974 l 78 974 l 78 733 m 43 1008 l 1088 1008 l 1222 865 l 1222 639 l 825 274 l 1131 274 l 1265 131 l 1265 -171 l 144 -171 l 1 -36 l 1 194 l 401 564 l 186 564 l 43 699 l 43 1008 z "},"/":{"ha":1121,"x_min":-169,"x_max":1211,"o":"m 67 76 q 401 487 235 283 q 736 896 568 690 l 844 896 q 510 485 676 689 q 175 76 343 282 l 67 76 m 1008 974 l 699 974 l -97 -1 l 213 -1 l 1008 974 m -169 -36 l 683 1008 l 1081 1008 l 1211 865 l 365 -171 l -22 -171 l -169 -36 z "},"\\":{"ha":1226,"x_min":-169,"x_max":1211,"o":"m 736 76 q 401 485 567 282 q 67 896 235 689 l 175 896 q 510 487 344 690 q 844 76 676 283 l 736 76 m 213 974 l -97 974 l 699 -1 l 1008 -1 l 213 974 m -169 1008 l 250 1008 l 1211 -171 l 781 -171 l -169 1008 z "},".":{"ha":549,"x_min":-44,"x_max":399,"o":"m 67 46 l 67 125 l 153 125 l 153 46 l 67 46 m 229 -31 l 229 201 l -10 201 l -10 -31 l 229 -31 m -44 -65 l -44 236 l 264 236 l 399 93 l 399 -200 l 99 -200 l -44 -65 z "},":":{"ha":481,"x_min":-44,"x_max":399,"o":"m 67 619 l 67 699 l 153 699 l 153 619 l 67 619 m 229 543 l 229 776 l -10 776 l -10 543 l 229 543 m 67 69 l 67 149 l 153 149 l 153 69 l 67 69 m 229 -8 l 229 225 l -10 225 l -10 -8 l 229 -8 m -44 -43 l -44 260 l 264 260 l 399 117 l 399 -178 l 99 -178 l -44 -43 m -44 508 l -44 811 l 264 811 l 399 668 l 399 374 l 99 374 l -44 508 z "},"!":{"ha":513,"x_min":-44,"x_max":399,"o":"m 67 160 l 153 160 l 153 76 l 67 76 l 67 160 m 67 896 l 150 896 q 151 579 150 740 q 153 263 153 418 l 67 263 l 67 896 m 229 974 l -10 974 l -10 -1 l 229 -1 l 229 974 m -44 -36 l -44 1008 l 264 1008 l 399 865 l 399 -171 l 99 -171 l -44 -36 z "},";":{"ha":481,"x_min":-117,"x_max":399,"o":"m 36 -85 q 65 26 58 -37 q 65 140 72 89 l 153 140 l 153 32 l 86 -85 l 36 -85 m 229 11 l 229 218 l -12 218 q -8 124 -7 174 q -15 25 -8 75 q -35 -73 -22 -25 q -64 -161 -47 -121 l 131 -161 l 229 11 m 64 693 l 151 693 l 151 611 l 64 611 l 64 693 m 228 769 l -14 769 l -14 538 l 228 538 l 228 769 m -117 -196 q -55 21 -72 -87 q -51 253 -37 129 l 264 253 l 399 110 l 399 -136 l 288 -331 l 29 -331 l -117 -196 m -49 503 l -49 804 l 263 804 l 397 661 l 397 368 l 94 368 l -49 503 z "},",":{"ha":481,"x_min":-117,"x_max":399,"o":"m 36 -107 q 65 3 58 -60 q 65 117 72 65 l 153 117 l 153 8 l 86 -107 l 36 -107 m 229 -12 l 229 194 l -12 194 q -8 101 -7 150 q -15 1 -8 51 q -35 -97 -22 -49 q -64 -185 -47 -144 l 131 -185 l 229 -12 m -117 -219 q -55 -3 -72 -111 q -51 229 -37 106 l 264 229 l 399 86 l 399 -160 l 288 -354 l 29 -354 l -117 -219 z "},"”":{"ha":989,"x_min":-25,"x_max":864,"o":"m 511 749 l 529 797 l 529 925 l 618 925 l 618 821 l 557 749 l 511 749 m 592 671 l 694 790 l 694 1003 l 453 1003 l 453 814 l 393 671 l 592 671 m 142 749 l 163 797 l 163 925 l 251 925 l 251 821 l 190 749 l 142 749 m 225 671 l 328 790 l 328 1003 l 86 1003 l 86 814 l 26 671 l 225 671 m -25 636 l 51 818 l 51 1038 l 363 1038 l 418 974 l 418 1038 l 729 1038 l 864 894 l 864 640 l 744 501 l 488 501 l 428 560 l 378 501 l 121 501 l -25 636 z "},"-":{"ha":1224,"x_min":-21,"x_max":1025,"o":"m 92 528 l 778 528 l 778 444 l 92 444 l 92 528 m 14 368 l 856 368 l 856 604 l 14 604 l 14 368 m -21 639 l 890 639 l 1025 496 l 1025 199 l 122 199 l -21 333 l -21 639 z "},"_":{"ha":1576,"x_min":4,"x_max":1333,"o":"m 115 -51 l 1088 -51 l 1088 -136 l 115 -136 l 115 -51 m 39 -212 l 1164 -212 l 1164 25 l 39 25 l 39 -212 m 4 60 l 1199 60 l 1333 -83 l 1333 -382 l 147 -382 l 4 -247 l 4 60 z "},"=":{"ha":1285,"x_min":-21,"x_max":1025,"o":"m 92 339 l 778 339 l 778 256 l 92 256 l 92 339 m 14 179 l 856 179 l 856 415 l 14 415 l 14 179 m 92 717 l 778 717 l 778 633 l 92 633 l 92 717 m 14 557 l 856 557 l 856 793 l 14 793 l 14 557 m -21 828 l 890 828 l 1025 685 l 1025 388 l 944 388 l 1025 307 l 1025 10 l 122 10 l -21 144 l -21 450 l 60 450 l -21 522 l -21 828 z "},"+":{"ha":1207,"x_min":-21,"x_max":1025,"o":"m 92 528 l 394 528 l 394 829 l 478 829 l 478 528 l 778 528 l 778 444 l 478 444 l 478 143 l 394 143 l 394 444 l 92 444 l 92 528 m 14 368 l 318 368 l 318 65 l 554 65 l 554 368 l 856 368 l 856 604 l 554 604 l 554 907 l 318 907 l 318 604 l 14 604 l 14 368 m -21 639 l 283 639 l 283 942 l 589 942 l 724 799 l 724 639 l 890 639 l 1025 496 l 1025 199 l 724 199 l 724 -104 l 426 -104 l 283 31 l 283 199 l 122 199 l -21 333 l -21 639 z "},"&":{"ha":1751,"x_min":22,"x_max":1794,"o":"m 754 739 q 731 711 754 729 q 677 672 708 693 q 614 633 646 651 q 563 603 582 614 q 527 627 553 608 q 474 667 501 646 q 424 708 446 688 q 403 739 403 728 q 424 760 403 751 q 473 774 444 768 q 531 782 501 779 q 578 785 560 785 q 621 783 592 785 q 680 775 650 781 q 732 761 710 769 q 754 739 754 753 m 838 739 q 817 788 838 767 q 762 822 797 808 q 678 843 726 836 q 578 850 631 850 q 513 845 557 850 q 426 828 469 840 q 349 796 382 817 q 317 743 317 775 q 345 683 317 715 q 412 619 374 650 q 490 563 450 588 q 551 525 529 538 q 596 548 568 535 q 656 578 624 561 q 720 613 688 594 q 778 653 753 632 q 821 695 804 674 q 838 739 838 717 m 333 240 q 364 267 333 249 q 433 304 394 285 q 506 340 471 324 q 550 361 542 357 q 656 298 603 331 q 765 240 710 265 q 674 217 718 222 q 579 213 629 213 q 526 213 557 213 q 464 215 496 214 q 402 220 432 217 q 351 229 372 224 q 341 233 349 231 q 333 240 333 235 m 239 240 q 260 199 239 215 q 314 172 281 182 q 387 156 347 161 q 465 147 426 150 q 533 144 503 144 q 579 144 564 144 q 664 151 615 144 q 763 169 713 158 q 860 194 813 181 q 940 222 907 208 q 747 335 844 281 q 553 449 649 390 q 513 428 540 442 q 449 397 485 415 q 377 358 414 379 q 309 316 340 338 q 258 275 278 294 q 239 240 239 256 m 57 240 q 84 141 57 182 q 156 73 111 100 q 258 30 201 46 q 372 6 314 14 q 484 -3 429 -1 q 579 -6 539 -6 q 799 18 686 -6 q 1014 74 913 42 l 1143 -1 l 1550 -1 l 1268 179 q 1320 200 1294 188 q 1368 229 1346 213 l 1207 419 q 1028 324 1119 367 l 786 475 q 860 523 821 494 q 931 587 899 551 q 984 663 963 622 q 1006 747 1006 703 q 985 837 1006 799 q 929 902 964 875 q 850 946 894 929 q 758 972 806 963 q 663 985 710 982 q 579 989 617 989 q 492 985 539 989 q 397 972 444 982 q 304 946 349 963 q 225 902 260 929 q 169 835 190 875 q 149 743 149 796 q 165 667 149 703 q 208 602 182 632 q 267 547 235 572 q 329 501 299 522 q 251 457 297 485 q 162 394 206 429 q 88 321 118 360 q 57 240 57 282 m 133 240 q 156 284 133 260 q 212 334 178 308 q 288 385 246 360 q 368 432 329 410 q 440 471 407 454 q 488 496 472 488 q 418 540 463 511 q 331 602 374 568 q 257 673 289 636 q 225 743 225 710 q 244 806 225 779 q 295 851 264 832 q 365 881 326 869 q 444 900 404 893 q 519 909 483 907 q 579 911 554 911 q 676 906 617 911 q 792 885 736 901 q 888 835 847 868 q 928 747 928 803 q 892 666 928 707 q 806 590 856 625 q 705 526 757 554 q 621 485 653 499 l 1031 249 q 1117 288 1075 265 q 1203 332 1160 310 l 1263 257 q 1183 225 1222 240 q 1103 196 1143 210 l 1301 76 l 1165 76 l 1025 157 q 919 125 975 140 q 805 97 863 110 q 690 78 747 85 q 579 71 632 71 q 509 72 553 71 q 416 78 465 72 q 316 93 367 83 q 225 122 265 103 q 159 170 185 142 q 133 240 133 199 m 22 240 q 46 320 22 282 q 106 392 69 358 q 183 455 142 426 q 263 504 225 483 l 254 514 q 203 560 228 535 q 158 615 178 586 q 126 676 138 644 q 114 743 114 708 q 136 849 114 804 q 196 924 158 893 q 282 975 233 956 q 382 1006 331 994 q 485 1020 433 1017 q 579 1024 536 1024 q 686 1018 628 1024 q 804 996 744 1013 q 920 950 864 979 q 1019 875 976 921 q 1106 781 1075 819 q 1153 712 1138 742 q 1172 658 1168 682 q 1175 608 1175 633 q 1163 539 1175 572 q 1130 475 1150 506 q 1083 417 1110 444 q 1028 367 1057 389 q 1061 380 1038 368 q 1114 408 1085 392 q 1174 441 1143 424 q 1229 472 1206 458 l 1794 -171 l 1274 -171 l 1150 -99 q 937 -153 1049 -131 q 718 -175 825 -175 q 601 -173 669 -175 q 460 -160 532 -171 q 322 -126 388 -150 q 213 -60 256 -103 q 113 38 150 -4 q 55 113 75 79 q 28 178 35 147 q 22 240 22 208 z "},"’":{"ha":538,"x_min":-40,"x_max":482,"o":"m 128 749 l 147 797 l 147 925 l 236 925 l 236 821 l 175 749 l 128 749 m 208 671 l 313 790 l 313 1003 l 71 1003 l 71 814 l 11 671 l 208 671 m -40 636 l 36 818 l 36 1038 l 347 1038 l 482 894 l 482 640 l 361 501 l 106 501 l -40 636 z "},"‘":{"ha":542,"x_min":11,"x_max":531,"o":"m 231 925 l 211 876 l 211 749 l 122 749 l 122 853 l 183 925 l 231 925 m 149 1003 l 46 883 l 46 671 l 288 671 l 288 860 l 347 1003 l 149 1003 m 399 1038 l 531 894 l 457 717 l 457 501 l 154 501 l 11 636 l 11 896 l 133 1038 l 399 1038 z "},"%":{"ha":1532,"x_min":-104,"x_max":1524,"o":"m 1007 138 q 1090 160 1057 138 q 1122 236 1122 182 q 1113 283 1122 265 q 1086 312 1103 301 q 1047 326 1069 322 q 1000 331 1025 331 q 918 310 951 331 q 885 236 885 290 q 920 158 885 178 q 1007 138 956 138 m 1000 214 q 976 217 989 214 q 963 236 963 221 q 980 251 963 250 q 1007 253 997 253 q 1030 251 1015 253 q 1044 236 1044 249 q 1028 217 1044 219 q 1000 214 1013 214 m 817 236 q 831 313 817 282 q 872 361 846 343 q 932 387 897 379 q 1007 394 967 394 q 1138 359 1086 394 q 1189 236 1189 324 q 1174 159 1189 190 q 1135 109 1160 128 q 1075 83 1110 90 q 1000 75 1040 75 q 926 83 960 75 q 869 111 893 92 q 831 161 844 131 q 817 236 817 192 m 740 236 q 760 124 740 169 q 814 51 779 79 q 898 10 849 22 q 1007 -3 947 -3 q 1113 10 1065 -3 q 1195 53 1161 24 q 1247 127 1229 82 q 1265 236 1265 172 q 1246 347 1265 301 q 1192 419 1226 392 q 1108 459 1157 447 q 1000 471 1060 471 q 894 458 942 471 q 812 417 846 444 q 759 344 778 389 q 740 236 740 300 m 292 639 q 373 660 340 639 q 406 735 406 681 q 370 812 406 792 q 285 832 335 832 q 203 810 236 832 q 169 735 169 789 q 179 687 169 706 q 206 658 189 668 q 244 643 222 647 q 292 639 267 639 m 285 717 q 260 719 275 717 q 244 735 244 721 q 263 753 244 750 q 292 756 281 756 q 316 752 303 756 q 329 735 329 749 q 324 724 329 728 q 312 718 319 719 q 297 717 304 717 q 285 717 289 717 m 101 735 q 116 812 101 781 q 156 862 131 843 q 215 888 181 881 q 292 896 250 896 q 422 859 371 896 q 472 735 472 822 q 458 658 472 689 q 419 610 444 628 q 360 584 394 592 q 285 576 325 576 q 211 585 244 576 q 153 612 178 593 q 115 660 129 631 q 101 735 101 690 m 24 735 q 43 624 24 668 q 98 551 63 579 q 183 512 133 524 q 292 500 232 500 q 397 513 350 500 q 478 554 444 526 q 531 627 513 582 q 550 735 550 672 q 531 846 550 800 q 478 920 513 892 q 394 961 443 949 q 285 974 344 974 q 95 917 167 974 q 24 735 24 861 m 999 896 l 1125 896 l 292 76 l 165 76 l 999 896 m 1311 974 l 968 974 l -21 -1 l 322 -1 l 1311 974 m -11 735 q 10 859 -11 807 q 70 944 32 911 q 163 993 108 978 q 285 1008 218 1008 q 381 1001 339 1008 q 463 970 422 993 q 547 904 503 947 q 653 792 592 861 q 671 769 663 781 q 686 744 679 758 l 954 1008 l 1394 1008 l 1524 865 l 1139 486 q 1188 468 1158 486 q 1250 420 1217 450 q 1316 351 1283 390 q 1375 268 1349 311 q 1418 181 1401 225 q 1435 97 1435 136 q 1414 -26 1435 25 q 1356 -109 1393 -76 q 1265 -157 1318 -142 q 1146 -172 1211 -172 q 1027 -149 1089 -172 q 908 -87 965 -125 q 804 -4 850 -50 q 736 88 758 42 l 474 -171 l 44 -171 l -104 -36 l 286 350 q 64 520 139 421 q -11 735 -11 619 z "},"˚":{"ha":547,"x_min":-60,"x_max":525,"o":"m 99 1182 q 163 1119 99 1119 q 212 1133 194 1119 q 229 1182 229 1147 q 212 1231 229 1217 q 163 1244 194 1244 q 99 1182 99 1244 m 53 1183 q 83 1261 53 1236 q 163 1286 113 1286 q 246 1263 214 1286 q 278 1183 278 1239 q 248 1105 278 1128 q 167 1082 218 1082 q 84 1104 115 1082 q 53 1183 53 1126 m -25 1183 q 24 1047 -25 1088 q 163 1007 74 1007 q 303 1046 251 1007 q 356 1183 356 1085 q 305 1319 356 1276 q 167 1361 254 1361 q 27 1320 79 1361 q -25 1183 -25 1279 m -60 1183 q 1 1347 -60 1297 q 167 1396 63 1396 q 230 1392 200 1396 q 294 1369 260 1388 q 371 1315 329 1351 q 469 1214 413 1278 q 510 1142 494 1189 q 525 1044 525 1096 q 510 948 525 988 q 465 884 494 908 q 394 849 436 860 q 301 838 353 838 q 198 851 246 838 q 122 892 150 864 q 24 985 60 946 q -31 1056 -12 1024 q -55 1119 -50 1089 q -60 1183 -60 1149 z "},"º":{"ha":632,"x_min":-31,"x_max":554,"o":"m 128 929 q 192 867 128 867 q 241 881 224 867 q 258 929 258 894 q 241 978 258 964 q 192 992 224 992 q 128 929 128 992 m 82 931 q 112 1008 82 983 q 192 1033 142 1033 q 275 1010 243 1033 q 307 931 307 986 q 277 852 307 875 q 196 829 247 829 q 113 851 144 829 q 82 931 82 874 m 4 931 q 53 794 4 835 q 192 754 103 754 q 333 793 281 754 q 385 931 385 832 q 334 1066 385 1024 q 196 1108 283 1108 q 56 1067 108 1108 q 4 931 4 1026 m -31 931 q 31 1094 -31 1044 q 196 1143 92 1143 q 259 1138 229 1143 q 323 1114 289 1133 q 399 1057 357 1094 q 497 956 440 1019 q 538 887 522 931 q 554 792 554 843 q 539 695 554 735 q 494 631 524 656 q 424 596 465 607 q 331 585 382 585 q 228 595 275 585 q 154 633 182 606 q 56 728 92 688 q 0 801 19 768 q -25 865 -19 835 q -31 931 -31 896 z "},"°":{"ha":632,"x_min":-60,"x_max":525,"o":"m 99 851 q 163 789 99 789 q 212 803 194 789 q 229 851 229 817 q 212 900 229 886 q 163 914 194 914 q 99 851 99 914 m 53 853 q 83 931 53 906 q 163 956 113 956 q 246 932 214 956 q 278 853 278 908 q 248 774 278 797 q 167 751 218 751 q 84 774 115 751 q 53 853 53 796 m -25 853 q 24 717 -25 757 q 163 676 74 676 q 303 715 251 676 q 356 853 356 754 q 305 988 356 946 q 167 1031 254 1031 q 27 990 79 1031 q -25 853 -25 949 m -60 853 q 1 1016 -60 967 q 167 1065 63 1065 q 230 1060 200 1065 q 294 1036 260 1056 q 369 979 328 1017 q 468 878 411 942 q 509 809 493 853 q 525 714 525 765 q 510 617 525 657 q 465 553 494 578 q 394 518 436 529 q 301 507 353 507 q 199 517 246 507 q 125 556 153 528 q 26 650 63 610 q -29 724 -10 690 q -54 788 -49 757 q -60 853 -60 818 z "},"(":{"ha":763,"x_min":-37,"x_max":713,"o":"m 74 486 q 92 638 74 564 q 145 776 110 713 q 235 890 181 839 q 363 974 289 942 l 418 896 q 308 829 356 872 q 228 731 261 786 q 179 613 196 676 q 163 486 163 550 q 179 359 163 422 q 228 241 196 296 q 308 143 261 186 q 418 76 356 100 l 363 -1 q 235 82 289 31 q 145 197 181 133 q 92 334 110 260 q 74 486 74 408 m -3 486 q 24 304 -3 396 q 100 133 50 213 q 222 -5 150 54 q 388 -89 294 -64 l 524 119 q 409 169 461 133 q 319 254 357 204 q 260 364 281 304 q 239 486 239 424 q 260 608 239 549 q 319 718 281 668 q 409 803 357 768 q 524 853 461 839 l 388 1061 q 222 977 294 1036 q 100 839 150 918 q 24 668 50 760 q -3 486 -3 576 m -37 486 q -8 679 -37 582 q 78 861 22 776 q 217 1010 135 946 q 404 1101 300 1074 l 540 957 l 713 693 q 590 644 646 678 q 494 563 535 610 q 431 460 453 515 q 408 347 408 404 q 450 208 408 264 q 578 136 492 151 l 713 1 l 540 -262 q 469 -237 504 -253 q 395 -195 435 -222 q 308 -127 356 -168 q 201 -25 261 -86 q 99 81 143 22 q 24 207 54 140 q -22 345 -6 274 q -37 486 -37 417 z "},")":{"ha":763,"x_min":-61,"x_max":693,"o":"m 447 486 q 429 334 447 408 q 376 197 411 260 q 285 82 340 133 q 158 -1 231 31 l 103 76 q 213 143 165 100 q 292 241 260 186 q 342 359 325 296 q 358 486 358 422 q 342 613 358 550 q 292 731 325 676 q 213 829 260 786 q 103 896 165 872 l 158 974 q 285 890 231 942 q 376 776 340 839 q 429 638 411 713 q 447 486 447 564 m 524 486 q 497 668 524 576 q 421 839 471 760 q 299 977 371 918 q 133 1061 226 1036 l -3 853 q 112 803 60 839 q 202 718 164 768 q 261 608 240 668 q 282 486 282 549 q 261 364 282 424 q 202 254 240 304 q 112 169 164 204 q -3 119 60 133 l 133 -89 q 299 -5 226 -64 q 421 133 371 54 q 497 304 471 213 q 524 486 524 396 m -61 829 l 117 1101 q 276 1029 204 1078 q 403 914 347 981 l 501 815 q 583 713 547 769 q 644 597 619 657 q 681 473 668 536 q 693 347 693 410 q 664 156 693 253 q 579 -25 635 58 q 442 -172 524 -108 q 258 -262 361 -235 l 117 -129 l -61 143 q 63 192 7 158 q 160 273 119 226 q 224 374 201 319 q 247 486 247 429 q 231 556 247 521 q 191 619 215 590 q 139 667 167 647 q 86 693 111 688 l -61 829 z "},"'":{"ha":560,"x_min":-46,"x_max":400,"o":"m 89 733 q 83 753 88 740 q 75 779 79 765 q 68 805 71 793 q 65 822 65 817 l 65 924 l 154 924 l 154 825 q 151 810 154 822 q 142 782 147 797 q 133 753 138 767 q 126 733 128 739 l 89 733 m 183 658 q 192 686 185 663 q 208 736 200 710 q 224 785 217 763 q 231 808 231 807 l 231 999 l -11 999 l -11 815 q -6 791 -11 814 q 8 740 0 768 q 22 688 15 713 q 29 658 28 664 l 183 658 m 0 624 q -3 638 0 626 q -9 664 -6 649 q -16 696 -12 679 q -24 725 -19 713 q -32 756 -28 740 q -39 785 -36 772 q -46 814 -43 800 l -46 1033 l 265 1033 l 400 890 l 400 669 q 392 640 400 667 q 374 582 385 614 q 355 522 364 550 q 344 489 346 494 l 143 489 l 0 624 z "},"⁄":{"ha":1181,"x_min":-167,"x_max":1213,"o":"m 68 314 q 403 724 236 521 q 738 1133 569 926 l 847 1133 q 513 724 679 926 q 178 314 346 521 l 68 314 m 1010 1211 l 700 1211 l -94 236 l 215 236 l 1010 1211 m -167 201 l 683 1246 l 1082 1246 l 1213 1103 l 369 67 l -19 67 l -167 201 z "},"\"":{"ha":829,"x_min":21,"x_max":764,"o":"m 453 733 q 448 753 451 739 q 440 781 444 767 q 433 808 436 796 q 429 822 429 821 l 429 924 l 518 924 l 518 825 q 515 810 518 822 q 506 781 511 797 q 497 751 501 765 q 490 733 492 738 l 453 733 m 547 658 q 556 686 549 663 q 572 736 564 710 q 588 785 581 763 q 594 808 594 807 l 594 999 l 353 999 l 353 815 q 358 791 353 814 q 372 740 364 768 q 385 688 379 713 q 393 658 392 664 l 547 658 m 156 733 q 150 752 154 739 q 142 780 146 765 q 135 806 138 794 q 132 822 132 818 l 132 924 l 221 924 l 221 825 q 217 810 221 822 q 209 783 214 799 q 199 753 204 768 q 193 733 194 739 l 156 733 m 250 658 q 259 686 251 663 q 275 736 267 710 q 290 785 283 763 q 297 808 297 807 l 297 999 l 56 999 l 56 815 q 61 791 56 814 q 74 740 67 768 q 88 688 82 713 q 96 658 94 664 l 250 658 m 67 624 q 64 638 67 626 q 58 664 61 649 q 51 696 54 679 q 43 725 47 713 q 35 756 39 740 q 28 785 31 772 q 21 814 24 800 l 21 1033 l 629 1033 l 764 890 l 764 669 q 756 640 764 667 q 738 582 749 614 q 719 522 728 550 q 708 489 710 494 l 507 489 l 435 561 l 411 489 l 210 489 l 67 624 z "},"#":{"ha":1608,"x_min":4,"x_max":1425,"o":"m 804 385 l 875 586 l 483 586 l 414 385 l 804 385 m 765 510 q 758 485 763 497 q 749 463 753 474 l 524 463 l 539 510 l 765 510 m 421 669 q 460 783 440 728 q 501 896 481 839 l 590 896 l 513 669 l 903 669 q 942 783 922 728 q 983 896 963 839 l 1072 896 l 994 669 l 1178 669 l 1178 586 l 967 586 q 930 485 949 535 q 894 385 911 436 l 1103 385 l 1103 303 l 868 303 l 790 76 l 699 76 l 776 303 l 386 303 l 308 76 l 217 76 l 294 303 l 117 303 l 117 385 l 324 385 l 393 586 l 193 586 l 193 669 l 421 669 m 283 510 l 271 463 l 39 463 l 39 225 l 188 225 l 111 -1 l 361 -1 l 439 225 l 669 225 l 593 -1 l 843 -1 l 921 225 l 1179 225 l 1179 463 l 1003 463 l 1019 510 l 1256 510 l 1256 747 l 1101 747 l 1178 974 l 926 974 q 888 861 907 917 q 850 747 868 806 l 619 747 l 696 974 l 444 974 q 406 861 425 917 q 368 747 386 806 l 117 747 l 117 510 l 283 510 m 4 497 l 82 497 l 82 782 l 340 782 q 361 841 351 814 q 382 900 371 868 l 419 1008 l 744 1008 l 857 883 l 864 900 l 901 1008 l 1226 1008 l 1360 865 l 1318 744 l 1425 639 l 1425 340 l 1349 340 l 1349 56 l 1082 56 q 1042 -58 1064 3 q 1004 -171 1021 -119 l 689 -171 l 564 -46 q 542 -110 553 -78 q 522 -171 532 -143 l 207 -171 l 63 -36 l 107 94 l 4 190 l 4 497 z "},"$":{"ha":1521,"x_min":6,"x_max":1326,"o":"m 253 678 q 292 614 253 640 q 383 570 331 588 q 488 544 436 553 q 568 531 540 535 l 568 814 q 486 806 539 811 q 381 785 433 800 q 291 745 329 771 q 253 678 253 719 m 329 678 q 351 703 329 693 q 401 720 372 714 q 456 729 429 726 q 493 733 482 732 l 493 619 q 458 626 485 621 q 402 638 431 631 q 351 656 374 646 q 329 678 329 667 m 981 294 q 961 341 981 321 q 911 377 942 361 q 843 404 881 393 q 769 424 806 415 q 700 437 732 432 q 650 444 668 442 l 650 158 q 701 163 669 160 q 770 171 733 165 q 844 186 807 176 q 913 210 882 196 q 962 246 943 225 q 981 294 981 267 m 904 294 q 881 269 904 279 q 826 253 857 260 q 767 244 796 247 q 728 240 738 242 l 728 354 q 767 348 738 353 q 826 336 796 343 q 881 319 857 329 q 904 294 904 308 m 233 296 q 302 233 264 258 q 384 191 340 207 q 475 167 428 175 q 568 158 522 160 l 568 450 q 497 461 538 454 q 410 480 456 468 q 322 510 365 492 q 243 551 278 528 q 187 606 208 575 q 165 678 165 638 q 211 781 165 740 q 321 847 257 822 q 453 882 385 871 q 568 896 522 893 l 568 997 l 650 997 l 650 896 q 759 883 704 893 q 864 853 814 872 q 958 802 914 833 q 1036 725 1001 771 l 958 674 q 895 733 931 708 q 819 775 860 758 q 736 801 779 792 q 650 815 693 810 l 650 526 q 724 515 681 522 q 813 496 767 508 q 905 465 860 483 q 987 423 950 447 q 1046 367 1024 399 q 1068 294 1068 335 q 1045 221 1068 253 q 986 165 1022 189 q 904 125 950 142 q 812 99 858 108 q 723 83 765 89 q 650 76 681 78 l 650 -4 l 568 -4 l 568 76 q 456 88 513 78 q 345 117 399 97 q 244 167 292 136 q 161 244 197 199 l 233 296 m 53 264 q 242 79 129 144 q 493 3 354 14 l 493 -82 l 728 -82 l 728 3 q 862 26 789 8 q 998 78 935 43 q 1103 165 1061 113 q 1146 294 1146 218 q 1126 385 1146 344 q 1074 458 1107 426 q 997 512 1040 489 q 908 551 954 535 q 815 578 861 568 q 728 596 768 589 l 728 728 q 845 669 793 710 q 935 574 897 628 l 1144 699 q 968 884 1072 815 q 728 968 864 953 l 728 1075 l 493 1075 l 493 968 q 361 944 432 963 q 230 892 290 926 q 129 806 169 858 q 89 678 89 753 q 129 549 89 601 q 230 463 169 497 q 361 410 290 429 q 493 383 432 392 l 493 242 q 357 296 417 253 q 254 401 297 339 l 53 264 m 213 414 l 174 453 q 88 545 121 490 q 54 678 54 600 q 93 812 54 756 q 192 907 132 868 q 322 968 251 946 q 458 1000 393 990 l 458 1110 l 763 1110 l 897 961 q 1132 776 1031 904 l 1213 696 q 1326 550 1274 635 l 1138 438 l 1240 335 q 1295 256 1275 300 q 1315 156 1315 211 q 1274 19 1315 76 q 1172 -75 1233 -37 q 1036 -134 1110 -112 q 897 -164 963 -156 l 897 -251 l 601 -251 l 492 -142 q 254 3 357 -100 q 160 91 199 53 q 92 160 121 129 q 44 217 64 190 q 6 272 24 244 l 213 414 z "},"•":{"ha":547,"x_min":-35,"x_max":471,"o":"m 151 342 q 262 378 222 342 q 301 488 301 415 q 262 595 301 560 q 151 631 222 631 q 40 596 81 631 q 0 488 0 561 q 40 378 0 414 q 151 342 81 342 m 150 419 q 97 436 118 419 q 76 488 76 453 q 98 538 76 522 q 151 554 119 554 q 204 538 183 554 q 225 488 225 521 q 203 436 225 453 q 150 419 182 419 m 151 215 q 54 306 90 267 q -2 375 18 344 q -28 432 -22 406 q -35 488 -35 458 q 15 622 -35 579 q 151 665 64 665 q 247 647 207 665 q 314 599 288 628 l 426 476 q 471 349 471 432 q 424 217 471 261 q 290 172 376 172 q 210 182 246 172 q 151 215 175 192 z "},"[":{"ha":663,"x_min":-60,"x_max":550,"o":"m 53 983 l 303 983 l 303 903 l 139 903 l 139 69 l 303 69 l 303 -11 l 53 -11 l 53 983 m -25 -87 l 381 -87 l 381 147 l 214 147 l 214 825 l 381 825 l 381 1060 l -25 1060 l -25 -87 m -60 1094 l 415 1094 l 550 951 l 550 656 l 383 656 l 383 182 l 415 182 l 550 39 l 550 -257 l 83 -257 l -60 -122 l -60 1094 z "},"]":{"ha":715,"x_min":-60,"x_max":550,"o":"m 53 -11 l 53 69 l 218 69 l 218 903 l 53 903 l 53 983 l 303 983 l 303 -11 l 53 -11 m 381 -87 l 381 1060 l -25 1060 l -25 825 l 143 825 l 143 147 l -25 147 l -25 -87 l 381 -87 m -60 790 l -60 1094 l 415 1094 l 550 951 l 550 -257 l 83 -257 l -60 -122 l -60 182 l 108 182 l 108 656 l 83 656 l -60 790 z "},"<":{"ha":919,"x_min":-46,"x_max":910,"o":"m 540 896 l 207 486 q 375 283 293 385 q 540 76 457 181 l 432 76 l 97 488 l 432 896 l 540 896 m 396 -1 l 706 -1 q 505 241 606 121 q 307 486 404 361 l 704 974 l 396 974 l -1 488 l 396 -1 m 381 1008 l 776 1008 l 907 865 l 485 347 q 615 186 550 264 q 746 28 679 108 l 910 -171 l 519 -171 l 379 -36 l -46 488 l 381 1008 z "},"?":{"ha":1414,"x_min":-11,"x_max":1185,"o":"m 465 158 l 553 158 l 553 76 l 465 76 l 465 158 m 143 738 q 234 826 182 790 q 345 883 286 861 q 468 915 404 906 q 594 924 532 924 q 710 910 650 924 q 822 868 771 897 q 905 792 872 839 q 938 679 938 746 q 913 590 938 629 q 849 519 888 551 q 764 458 810 486 q 676 398 718 429 q 603 331 635 367 q 563 247 572 294 l 469 247 q 506 346 475 304 q 578 422 536 388 q 667 484 619 456 q 753 542 714 513 q 819 607 793 572 q 846 689 846 642 q 813 769 846 739 q 733 815 779 799 q 635 838 686 832 q 547 843 583 843 q 370 799 453 843 q 229 682 288 754 l 143 738 m 631 0 q 630 106 631 53 q 631 211 629 158 q 660 281 631 250 q 731 341 689 313 q 824 400 774 369 q 916 469 874 431 q 987 557 958 507 q 1015 675 1015 607 q 970 831 1015 771 q 856 926 925 892 q 705 973 788 960 q 547 986 622 986 q 399 967 474 986 q 256 913 324 949 q 131 827 188 878 q 36 711 74 776 l 243 588 q 386 719 306 672 q 572 767 467 767 q 624 763 592 767 q 686 750 656 760 q 739 723 717 740 q 761 678 761 706 q 733 609 761 636 q 664 558 706 582 q 574 508 622 533 q 485 444 526 482 q 415 351 443 407 q 388 211 388 294 l 388 0 l 631 0 m -11 697 q 90 838 29 778 q 223 939 150 899 q 378 1000 296 979 q 547 1021 461 1021 q 671 1016 607 1021 q 803 988 735 1011 q 942 917 871 965 q 1088 779 1014 868 q 1156 674 1126 740 q 1185 536 1185 607 q 1162 426 1185 475 q 1103 338 1139 376 q 1025 267 1068 299 q 940 210 982 236 q 888 176 913 193 q 843 143 863 160 q 812 108 824 126 q 800 72 800 90 l 800 -169 l 496 -169 l 353 -35 l 353 211 q 376 350 353 293 q 437 447 400 407 q 519 515 474 488 q 607 565 564 542 q 633 578 619 572 q 657 592 646 585 q 512 531 578 579 q 390 408 446 483 l 133 561 l -11 697 z "},"*":{"ha":738,"x_min":-44,"x_max":644,"o":"m 257 785 l 257 644 l 210 644 l 210 786 l 117 715 l 97 747 l 193 807 l 94 874 l 114 907 l 210 842 l 210 978 l 257 978 l 257 838 l 353 907 l 372 874 l 272 807 l 369 746 l 349 714 l 257 785 m 472 844 l 379 1019 l 335 1051 l 133 1051 l 90 1025 l -8 842 l -10 778 l 93 603 l 133 571 l 335 571 q 373 606 351 579 q 415 666 394 633 q 452 729 435 699 q 478 776 469 760 l 472 844 m 92 558 l 64 582 l -44 767 l -43 849 l 65 1051 l 122 1086 l 346 1086 l 406 1043 l 540 903 l 642 713 l 644 624 q 617 574 636 607 q 576 506 599 540 q 528 441 553 471 q 482 401 503 411 l 261 401 l 92 558 z "},"@":{"ha":1750,"x_min":26,"x_max":1521,"o":"m 650 365 q 592 373 622 365 q 538 396 563 381 q 498 435 514 411 q 482 490 482 458 q 498 547 482 522 q 538 588 514 571 q 592 613 563 604 q 650 621 622 621 l 757 621 q 849 584 815 621 q 883 490 883 547 q 847 401 883 438 q 757 365 810 365 l 650 365 m 757 288 q 903 344 847 288 q 958 490 958 400 q 944 573 958 535 q 903 639 929 611 q 840 682 876 667 q 757 697 803 697 l 650 697 q 558 685 601 697 q 481 647 514 672 q 427 582 447 621 q 407 490 407 543 q 425 392 407 432 q 475 330 443 353 q 552 297 507 307 q 650 288 597 288 l 757 288 m 1082 147 q 973 90 1026 103 q 851 76 919 76 l 608 76 q 421 99 507 76 q 272 169 335 121 q 174 296 210 218 q 139 486 139 374 q 174 676 139 599 q 272 803 210 754 q 421 874 335 851 q 608 896 507 896 l 786 896 q 970 869 882 896 q 1126 791 1058 843 q 1233 660 1193 739 q 1274 476 1274 582 q 1271 416 1274 450 q 1258 351 1268 382 q 1226 299 1247 321 q 1169 278 1206 278 q 1116 280 1138 278 q 1078 290 1094 282 q 1051 316 1063 299 q 1031 363 1040 333 q 960 277 1003 307 q 865 233 917 247 q 758 217 814 219 q 650 215 703 215 q 522 230 582 215 q 416 276 461 244 q 344 361 371 308 q 318 490 318 414 q 337 603 318 557 q 388 679 356 649 q 463 727 419 710 q 555 753 506 744 q 656 763 604 761 q 757 765 707 765 q 856 755 808 765 q 942 721 903 744 q 1009 660 981 697 q 1053 571 1038 624 q 1061 524 1057 557 q 1072 458 1065 492 q 1090 398 1079 424 q 1121 372 1101 372 q 1167 399 1156 372 q 1179 453 1179 425 q 1178 468 1179 460 q 1176 483 1178 476 l 1176 481 q 1063 746 1163 661 q 786 831 964 831 l 608 831 q 456 809 526 831 q 333 745 386 788 q 251 638 281 703 q 221 486 221 574 q 251 334 221 399 q 333 227 281 269 q 456 163 386 185 q 608 142 526 142 l 786 142 q 899 151 843 142 q 1006 188 956 160 l 1082 147 m 1128 207 q 1169 201 1146 201 q 1265 226 1229 201 q 1321 292 1301 251 q 1346 381 1340 332 q 1351 478 1351 429 q 1307 697 1351 604 q 1185 852 1263 790 q 1006 944 1108 914 q 786 974 903 974 l 608 974 q 388 947 488 974 q 215 861 288 919 q 101 710 142 803 q 61 486 61 618 q 101 262 61 354 q 215 111 142 169 q 388 26 288 53 q 608 -1 488 -1 l 786 -1 q 908 4 850 -1 q 1017 26 965 10 q 1118 72 1069 42 q 1213 150 1167 101 l 1128 207 m 272 -17 q 146 109 194 50 q 71 227 97 168 q 35 349 44 286 q 26 486 26 411 q 69 727 26 628 q 190 889 113 826 q 374 980 267 951 q 608 1008 481 1008 l 786 1008 q 941 997 864 1008 q 1094 955 1018 986 q 1246 867 1169 924 q 1399 722 1322 811 q 1492 557 1464 657 q 1521 339 1521 457 q 1516 245 1521 293 q 1495 156 1511 197 q 1451 84 1479 115 q 1375 40 1422 53 l 1399 17 q 1285 -80 1342 -43 q 1172 -137 1229 -117 q 1053 -164 1114 -157 q 925 -171 992 -171 l 747 -171 q 608 -161 676 -171 q 478 -132 540 -151 q 364 -84 417 -112 q 272 -17 311 -56 m 757 400 q 806 414 785 400 q 839 451 828 428 l 789 451 q 722 438 756 451 q 668 400 688 425 l 757 400 z "},"|":{"ha":507,"x_min":-72,"x_max":364,"o":"m 39 972 l 118 972 l 118 21 l 39 21 l 39 972 m -37 -57 l 194 -57 l 194 1050 l -37 1050 l -37 -57 m -72 1085 l 229 1085 l 364 942 l 364 -226 l 71 -226 l -72 -92 l -72 1085 z "},"¡":{"ha":513,"x_min":-44,"x_max":399,"o":"m 67 821 l 153 821 l 153 740 l 67 740 l 67 821 m 67 621 l 153 621 q 151 311 153 465 q 150 1 150 157 l 67 1 l 67 621 m 229 899 l -10 899 l -10 -76 l 229 -76 l 229 899 m 399 790 l 399 -246 l 99 -246 l -44 -111 l -44 933 l 264 933 l 399 790 z "},"¿":{"ha":1414,"x_min":-82,"x_max":1113,"o":"m 503 739 l 415 739 l 415 821 l 503 821 l 503 739 m 825 160 q 734 72 786 107 q 623 14 682 36 q 500 -17 564 -8 q 374 -26 436 -26 q 258 -13 318 -26 q 147 29 197 0 q 63 105 96 58 q 31 218 31 151 q 56 307 31 268 q 119 378 81 346 q 204 440 158 411 q 292 499 250 468 q 365 567 333 531 q 406 650 396 603 l 499 650 q 463 551 493 593 q 390 476 432 510 q 301 413 349 442 q 215 355 254 385 q 149 290 175 325 q 122 208 122 254 q 156 128 122 158 q 235 82 189 99 q 333 60 282 65 q 421 54 385 54 q 598 99 515 54 q 739 215 681 143 l 825 160 m 338 897 q 338 792 338 844 q 338 686 339 739 q 308 615 338 646 q 237 556 279 585 q 144 497 194 528 q 52 428 94 467 q -19 340 10 390 q -47 222 -47 290 q -2 66 -47 126 q 112 -28 43 6 q 263 -76 181 -62 q 421 -89 346 -89 q 569 -70 494 -89 q 713 -16 644 -51 q 838 70 781 19 q 932 186 894 121 l 725 310 q 582 178 663 225 q 396 131 501 131 q 344 134 376 131 q 282 147 313 138 q 229 174 251 157 q 207 219 207 192 q 235 289 207 261 q 304 340 263 317 q 394 390 346 364 q 483 453 442 415 q 553 546 525 490 q 581 686 581 601 l 581 897 l 338 897 m 615 932 l 750 789 l 750 547 q 726 410 750 467 q 667 315 703 354 q 586 247 631 275 q 499 197 542 219 l 447 169 q 592 230 526 182 q 717 356 658 278 l 979 200 l 1113 58 q 1007 -76 1069 -17 q 871 -175 944 -135 q 717 -237 797 -215 q 560 -258 638 -258 q 447 -253 507 -258 q 327 -233 386 -247 q 215 -195 268 -219 q 125 -133 163 -171 q 18 -28 58 -75 q -44 59 -22 18 q -74 139 -67 100 q -82 222 -82 178 q -58 330 -82 281 q 1 420 -35 379 q 81 494 38 461 q 164 553 124 528 q 215 586 190 569 q 260 619 240 603 q 291 653 279 636 q 303 686 303 669 l 303 932 l 615 932 z "},"^":{"ha":936,"x_min":-286,"x_max":1069,"o":"m 576 1089 l 499 1089 l 329 1211 l 158 1089 l 82 1089 l 299 1239 l 360 1239 l 576 1089 m -174 1013 l 185 1013 q 257 1069 221 1042 q 329 1124 293 1096 l 472 1013 l 831 1013 l 381 1315 l 278 1315 l -174 1013 m 390 1350 l 943 978 l 1069 843 l 601 843 l 469 946 q 405 897 439 919 q 335 843 371 874 l -135 843 l -286 978 l 268 1350 l 390 1350 z "},"ˆ":{"ha":931,"x_min":-203,"x_max":1068,"o":"m 401 1251 q 517 1172 460 1211 q 632 1092 574 1132 l 554 1092 l 371 1208 l 186 1092 l 110 1092 l 340 1251 l 401 1251 m -90 1043 l 226 1043 l 371 1140 l 514 1043 l 831 1043 l 422 1318 l 319 1318 l -90 1043 m 432 1353 l 942 1008 l 1068 874 l 644 874 l 510 965 l 374 874 l -50 874 l -203 1008 l 310 1353 l 432 1353 z "},"©":{"ha":1719,"x_min":22,"x_max":1476,"o":"m 914 315 q 824 287 869 296 q 729 278 778 278 l 647 278 q 544 288 593 278 q 457 321 494 297 q 397 386 419 344 q 374 490 374 428 q 396 596 374 554 q 456 662 418 638 q 543 695 493 686 q 647 704 593 704 l 729 704 q 823 699 776 704 q 913 671 869 693 l 863 613 q 797 637 831 628 q 729 646 764 646 l 647 646 q 571 639 607 646 q 508 615 535 632 q 467 567 482 597 q 451 490 451 538 q 467 415 451 444 q 509 367 482 385 q 572 344 536 350 q 647 338 607 338 l 729 338 q 799 345 765 338 q 865 369 833 353 l 914 315 m 760 142 q 912 163 842 142 q 1033 226 982 183 q 1114 334 1085 269 q 1143 486 1143 399 q 1114 638 1143 574 q 1033 746 1085 703 q 912 810 982 789 q 760 831 842 831 l 607 831 q 454 810 525 831 q 332 747 383 789 q 251 639 281 704 q 222 486 222 574 q 251 333 222 399 q 332 226 281 268 q 454 163 383 183 q 607 142 525 142 l 760 142 m 135 486 q 170 676 135 599 q 269 803 206 754 q 419 874 332 853 q 607 896 506 896 l 760 896 q 947 874 861 896 q 1097 803 1033 851 q 1195 676 1160 754 q 1231 486 1231 599 q 1195 296 1231 374 q 1097 169 1160 218 q 947 99 1033 121 q 760 76 861 76 l 607 76 q 419 98 506 76 q 269 169 332 119 q 170 296 206 218 q 135 486 135 374 m 57 486 q 98 262 57 354 q 212 111 139 169 q 385 26 285 53 q 607 -1 486 -1 l 760 -1 q 981 26 881 -1 q 1153 111 1081 53 q 1267 262 1226 169 q 1307 486 1307 354 q 1267 710 1307 618 q 1153 861 1226 803 q 981 947 1081 919 q 760 974 881 974 l 607 974 q 385 947 486 974 q 212 861 285 919 q 98 710 139 803 q 57 486 57 618 m 22 486 q 65 727 22 628 q 186 889 108 826 q 372 980 264 951 q 607 1008 479 1008 l 760 1008 q 914 1001 840 1008 q 1058 966 988 993 q 1200 888 1129 939 q 1344 750 1271 838 q 1444 576 1411 678 q 1476 347 1476 474 q 1434 108 1476 207 q 1315 -52 1392 10 q 1131 -142 1238 -114 q 899 -171 1025 -171 l 746 -171 q 608 -163 675 -171 q 480 -139 540 -156 q 368 -96 419 -122 q 278 -31 317 -69 q 149 101 199 39 q 72 224 100 163 q 33 350 43 286 q 22 486 22 414 z "},"®":{"ha":1715,"x_min":22,"x_max":1476,"o":"m 807 497 q 854 515 833 497 q 875 560 875 532 q 855 606 875 588 q 807 624 835 624 l 554 624 l 554 497 l 807 497 m 936 560 q 926 513 936 535 q 899 474 917 490 q 860 447 882 457 q 813 438 838 438 l 940 321 l 854 321 l 739 433 l 554 433 l 554 321 l 483 321 l 483 686 l 807 686 q 902 653 868 686 q 936 560 936 619 m 760 142 q 913 163 843 142 q 1035 227 983 185 q 1115 334 1086 269 q 1143 486 1143 399 q 1114 638 1143 574 q 1033 746 1085 703 q 912 810 982 789 q 760 831 842 831 l 607 831 q 454 810 525 831 q 332 747 383 789 q 251 639 281 704 q 222 486 222 574 q 251 333 222 399 q 332 226 281 268 q 454 163 383 183 q 607 142 525 142 l 760 142 m 135 486 q 170 676 135 599 q 269 803 206 754 q 419 874 332 853 q 607 896 506 896 l 760 896 q 947 874 861 896 q 1097 803 1033 851 q 1195 676 1160 754 q 1231 486 1231 599 q 1195 296 1231 374 q 1097 169 1160 218 q 947 99 1033 121 q 760 76 861 76 l 607 76 q 419 98 506 76 q 269 169 332 119 q 170 296 206 218 q 135 486 135 374 m 57 486 q 98 262 57 354 q 212 111 139 169 q 385 26 285 53 q 607 -1 486 -1 l 760 -1 q 981 26 881 -1 q 1153 111 1081 53 q 1267 262 1226 169 q 1307 486 1307 354 q 1267 710 1307 618 q 1153 861 1226 803 q 981 947 1081 919 q 760 974 881 974 l 607 974 q 385 947 486 974 q 212 861 285 919 q 98 710 139 803 q 57 486 57 618 m 22 486 q 65 727 22 628 q 186 889 108 826 q 372 980 264 951 q 607 1008 479 1008 l 760 1008 q 914 999 840 1008 q 1060 960 988 989 q 1203 877 1132 931 q 1347 736 1274 824 q 1443 574 1410 674 q 1476 347 1476 474 q 1434 108 1476 207 q 1315 -52 1392 10 q 1131 -142 1238 -114 q 899 -171 1025 -171 l 746 -171 q 486 -140 604 -171 q 289 -31 368 -108 q 158 101 210 39 q 77 224 107 163 q 35 350 47 286 q 22 486 22 414 z "},"™":{"ha":1669,"x_min":10,"x_max":1546,"o":"m 315 531 l 315 829 l 122 829 l 122 914 l 594 914 l 594 829 l 400 829 l 400 531 l 315 531 m 835 524 l 835 914 l 903 914 l 1065 640 l 1229 914 l 1299 914 l 1299 524 l 1213 524 l 1213 739 l 1079 524 l 1054 524 l 919 740 l 919 524 l 835 524 m 478 453 l 478 753 l 672 753 l 672 990 l 44 990 l 44 753 l 238 753 l 238 453 l 478 453 m 1376 446 l 1376 990 l 1186 990 l 1065 793 l 947 990 l 758 990 l 758 446 l 1376 446 m 10 718 l 10 1025 l 707 1025 l 724 1000 l 724 1025 l 968 1025 l 1086 897 l 1165 1025 l 1411 1025 l 1546 882 l 1546 276 l 867 276 l 724 411 l 724 583 l 647 583 l 647 283 l 346 283 l 203 418 l 203 583 l 153 583 l 10 718 z "},"ˇ":{"ha":931,"x_min":-301,"x_max":1013,"o":"m 54 1269 l 131 1269 l 315 1153 l 499 1269 l 576 1269 q 461 1190 518 1229 q 346 1110 404 1150 l 285 1110 l 54 1269 m 775 1318 l 458 1318 l 315 1221 l 171 1318 l -146 1318 l 264 1043 l 367 1043 l 775 1318 m -301 1353 l 181 1353 l 315 1263 q 382 1308 347 1285 q 449 1353 417 1331 l 886 1353 l 1013 1210 l 514 874 l 394 874 l -301 1353 z "},"‹":{"ha":776,"x_min":-65,"x_max":794,"o":"m 432 788 l 185 488 l 433 185 l 321 185 l 76 486 l 321 788 l 432 788 m 286 110 l 592 110 q 440 299 517 206 q 285 488 363 393 l 592 863 l 286 863 l -21 486 l 286 110 m 269 897 l 664 897 l 794 754 l 463 350 q 649 121 565 226 q 792 -60 733 15 l 410 -60 l 269 75 l -65 486 l 269 897 z "},"«":{"ha":1189,"x_min":-60,"x_max":1193,"o":"m 828 788 l 582 488 l 826 185 l 721 185 l 471 486 l 721 788 l 828 788 m 682 110 l 989 110 l 679 489 l 989 863 l 682 863 l 374 486 l 682 110 m 442 788 l 193 488 l 440 185 l 332 185 q 209 337 271 263 q 85 486 147 411 l 332 788 l 442 788 m 296 110 l 601 110 l 293 489 l 601 863 l 296 863 l -14 486 l 296 110 m 281 897 l 1063 897 l 1193 754 l 857 349 l 1192 -60 l 421 -60 l 281 75 l -60 486 l 281 897 z "},"›":{"ha":776,"x_min":-136,"x_max":731,"o":"m 454 486 l 207 185 l 97 185 l 344 485 l 97 788 l 207 788 l 454 486 m 243 863 l -62 863 l 246 483 l -62 110 l 243 110 l 551 486 l 243 863 m 396 754 l 731 347 l 396 -60 l 11 -60 l -136 75 l 200 483 l -135 897 l 258 897 l 396 754 z "},"–":{"ha":1244,"x_min":-21,"x_max":1025,"o":"m 92 528 l 778 528 l 778 444 l 92 444 l 92 528 m 14 368 l 856 368 l 856 604 l 14 604 l 14 368 m -21 639 l 890 639 l 1025 496 l 1025 199 l 122 199 l -21 333 l -21 639 z "},"—":{"ha":1568,"x_min":3,"x_max":1310,"o":"m 115 528 l 1063 528 l 1063 444 l 115 444 l 115 528 m 38 368 l 1140 368 l 1140 604 l 38 604 l 38 368 m 3 639 l 1175 639 l 1310 496 l 1310 199 l 146 199 l 3 333 l 3 639 z "},"˙":{"ha":508,"x_min":-49,"x_max":465,"o":"m 142 933 q 253 969 211 933 q 296 1078 296 1006 q 254 1189 296 1151 q 142 1226 213 1226 q 27 1190 68 1226 q -14 1078 -14 1154 q 28 968 -14 1003 q 142 933 71 933 m 140 1010 q 85 1026 108 1010 q 63 1078 63 1043 q 84 1133 63 1115 q 142 1150 106 1150 q 198 1132 176 1150 q 219 1078 219 1114 q 196 1026 219 1042 q 140 1010 172 1010 m 131 807 q 35 899 71 860 q -19 968 0 938 q -43 1024 -37 999 q -49 1078 -49 1050 q 1 1217 -49 1172 q 142 1261 51 1261 q 194 1257 169 1261 q 249 1236 219 1253 q 317 1185 279 1219 q 410 1089 356 1150 q 449 1024 433 1065 q 465 939 465 982 q 415 808 465 851 q 281 764 364 764 q 195 774 236 764 q 131 807 154 783 z "},"¨":{"ha":786,"x_min":10,"x_max":793,"o":"m 458 1119 l 458 1199 l 546 1199 l 546 1119 l 458 1119 m 624 1043 l 624 1275 l 381 1275 l 381 1043 l 624 1043 m 122 1119 l 122 1199 l 210 1199 l 210 1119 l 122 1119 m 286 1043 l 286 1275 l 44 1275 l 44 1043 l 286 1043 m 10 1008 l 10 1310 l 321 1310 l 346 1276 l 346 1310 l 658 1310 l 793 1167 l 793 874 l 489 874 l 456 907 l 456 874 l 153 874 l 10 1008 z "},"·":{"ha":446,"x_min":-72,"x_max":371,"o":"m 39 419 l 39 547 l 125 547 l 125 419 l 39 419 m 201 342 l 201 625 l -37 625 l -37 342 l 201 342 m -72 307 l -72 660 l 236 660 l 371 517 l 371 172 l 71 172 l -72 307 z "},"`":{"ha":675,"x_min":-183,"x_max":738,"o":"m 347 1090 l 251 1090 q 163 1156 207 1122 q 75 1221 119 1189 l 172 1221 l 347 1090 m 228 1040 l 510 1040 l 210 1271 l -79 1271 l 228 1040 m 219 1306 l 610 1006 l 738 871 l 356 871 l -32 1163 l -183 1306 l 219 1306 z "},"´":{"ha":671,"x_min":-181,"x_max":740,"o":"m 356 1221 q 267 1156 311 1189 q 179 1090 224 1122 l 83 1090 l 258 1221 l 356 1221 m -79 1040 l 203 1040 l 510 1271 l 221 1271 l -79 1040 m 614 1306 l 740 1163 l 353 871 l -29 871 l -181 1006 l 211 1306 l 614 1306 z "},"„":{"ha":851,"x_min":-35,"x_max":722,"o":"m 411 -83 q 406 -64 410 -78 q 399 -35 403 -50 q 391 -8 394 -21 q 388 6 388 4 l 388 107 l 476 107 l 476 8 q 473 -7 476 6 q 465 -35 469 -19 q 455 -65 460 -51 q 449 -83 450 -79 l 411 -83 m 506 -158 q 515 -131 507 -154 q 531 -81 522 -107 q 546 -32 539 -54 q 553 -8 553 -10 l 553 182 l 311 182 l 311 -1 q 317 -26 311 -3 q 330 -76 322 -49 q 344 -128 338 -104 q 351 -158 350 -153 l 506 -158 m 100 -83 q 94 -65 99 -78 q 86 -37 90 -51 q 79 -10 82 -22 q 76 6 76 1 l 76 107 l 165 107 l 165 8 q 162 -6 165 6 q 153 -33 158 -18 q 144 -63 149 -49 q 138 -83 139 -78 l 100 -83 m 194 -158 q 203 -131 196 -154 q 219 -81 211 -107 q 235 -32 228 -54 q 242 -8 242 -10 l 242 182 l 0 182 l 0 -1 q 6 -26 0 -3 q 19 -76 11 -49 q 33 -128 26 -104 q 40 -158 39 -153 l 194 -158 m 11 -193 q 8 -179 11 -190 q 2 -153 6 -168 q -5 -121 -1 -137 q -12 -92 -8 -104 q -21 -60 -17 -76 q -28 -32 -25 -44 q -35 -3 -32 -17 l -35 217 l 588 217 l 722 74 l 722 -147 q 715 -176 722 -150 q 697 -235 707 -203 q 677 -294 686 -267 q 667 -328 668 -322 l 465 -328 l 382 -244 q 366 -298 374 -274 q 356 -328 358 -322 l 154 -328 l 11 -193 z "},"‚":{"ha":492,"x_min":-46,"x_max":400,"o":"m 89 -83 q 83 -64 88 -76 q 75 -37 79 -51 q 68 -12 71 -24 q 65 6 65 0 l 65 107 l 154 107 l 154 8 q 151 -7 154 6 q 142 -35 147 -19 q 133 -64 138 -50 q 126 -83 128 -78 l 89 -83 m 183 -158 q 192 -131 185 -154 q 208 -81 200 -107 q 224 -32 217 -54 q 231 -8 231 -10 l 231 182 l -11 182 l -11 -1 q -6 -26 -11 -3 q 8 -76 0 -49 q 22 -128 15 -104 q 29 -158 28 -153 l 183 -158 m 0 -193 q -3 -179 0 -190 q -9 -153 -6 -168 q -16 -121 -12 -137 q -24 -92 -19 -104 q -32 -60 -28 -76 q -39 -32 -36 -44 q -46 -3 -43 -17 l -46 217 l 265 217 l 400 74 l 400 -147 q 392 -176 400 -150 q 374 -235 385 -203 q 355 -294 364 -267 q 344 -328 346 -322 l 143 -328 l 0 -193 z "},"~":{"ha":992,"x_min":-112,"x_max":986,"o":"m 671 524 q 635 485 656 507 q 592 444 615 463 q 544 412 569 425 q 496 399 519 399 q 431 415 460 399 q 378 451 403 431 q 328 487 353 471 q 275 503 304 503 q 213 481 244 503 q 165 438 181 460 l 69 438 q 105 475 85 454 q 149 515 125 496 q 199 547 172 533 q 256 560 226 560 q 333 544 303 560 q 388 509 364 528 q 434 475 411 490 q 489 460 457 460 q 540 481 518 460 q 576 524 561 501 l 671 524 m 543 600 q 535 583 540 593 q 524 562 531 572 q 510 544 518 551 q 489 536 501 536 q 444 551 468 536 q 390 585 419 567 q 328 620 361 604 q 256 636 294 636 q 160 608 207 636 q 73 538 114 579 q 0 448 32 496 q -53 361 -32 400 l 213 361 q 234 397 219 376 q 268 417 249 417 q 296 403 279 417 q 338 374 313 390 q 400 345 364 358 q 486 332 436 332 q 581 359 535 332 q 669 426 628 386 q 743 513 710 467 q 797 600 776 560 l 543 600 m 854 635 l 986 492 q 922 385 961 443 q 834 278 882 328 q 733 196 786 229 q 625 163 679 163 q 557 169 588 163 q 502 187 526 176 q 460 209 478 197 q 428 232 442 221 q 419 238 422 235 q 413 243 415 240 q 407 247 408 246 q 388 227 399 247 q 371 192 378 207 l 33 192 l -112 326 q -47 436 -87 376 q 42 548 -7 496 q 145 635 90 600 q 256 671 200 671 q 349 649 307 671 q 428 603 392 626 q 461 582 447 590 q 479 574 475 574 q 494 583 488 574 q 507 604 501 593 q 517 635 513 618 l 854 635 z "},"˜":{"ha":971,"x_min":-112,"x_max":986,"o":"m 671 1217 q 634 1178 656 1200 q 588 1137 613 1156 q 536 1105 563 1118 q 486 1092 510 1092 q 411 1108 442 1092 q 355 1144 381 1124 q 306 1180 329 1164 q 253 1196 282 1196 q 201 1174 222 1196 q 165 1131 181 1153 l 69 1131 q 107 1168 85 1147 q 154 1208 129 1189 q 206 1240 179 1226 q 256 1253 232 1253 q 333 1237 303 1253 q 388 1202 364 1221 q 434 1168 411 1183 q 489 1153 457 1153 q 540 1174 518 1153 q 576 1217 561 1194 l 671 1217 m 554 1293 q 544 1276 551 1286 q 526 1255 536 1265 q 507 1237 517 1244 q 489 1229 497 1229 q 444 1244 468 1229 q 390 1278 419 1260 q 328 1313 361 1297 q 256 1329 294 1329 q 160 1301 207 1329 q 72 1231 113 1272 q -2 1141 31 1189 q -56 1054 -35 1093 l 213 1054 q 234 1090 219 1069 q 268 1110 249 1110 q 296 1097 279 1110 q 338 1067 313 1083 q 400 1038 364 1051 q 486 1025 436 1025 q 581 1052 535 1025 q 669 1119 628 1079 q 743 1206 710 1160 q 797 1293 776 1253 l 560 1293 l 554 1293 m 854 1328 l 986 1185 q 922 1078 961 1136 q 834 972 882 1021 q 733 889 786 922 q 625 856 679 856 q 557 863 588 856 q 502 880 526 869 q 460 902 478 890 q 428 925 442 914 q 419 931 422 928 q 413 936 415 933 q 407 940 408 939 q 388 920 399 940 q 371 885 378 900 l 33 885 l -112 1019 q -47 1129 -87 1069 q 42 1241 -7 1189 q 145 1328 90 1293 q 256 1364 200 1364 q 349 1342 307 1364 q 428 1296 392 1319 q 450 1282 438 1289 q 475 1275 463 1275 q 500 1286 488 1275 q 521 1328 513 1297 l 854 1328 z "},"¢":{"ha":1642,"x_min":13,"x_max":1331,"o":"m 213 486 q 241 342 213 401 q 318 245 269 283 q 433 187 367 207 q 575 160 500 167 l 575 813 q 433 787 500 807 q 318 728 367 767 q 241 629 269 689 q 213 486 213 569 m 290 486 q 347 647 290 586 q 497 729 403 708 l 497 247 q 290 486 290 274 m 1039 247 q 961 174 1006 204 q 867 122 917 143 q 763 91 817 101 q 657 76 710 81 l 657 -4 l 575 -4 l 575 78 q 397 108 479 83 q 253 181 314 132 q 159 304 193 229 q 125 486 125 379 q 159 667 125 592 q 253 792 193 743 q 397 865 314 840 q 575 896 479 890 l 575 997 l 657 997 l 657 896 q 762 882 708 893 q 865 851 815 871 q 958 801 914 831 q 1038 731 1003 771 l 958 682 q 821 776 901 747 q 657 813 740 804 l 657 160 q 821 202 740 171 q 960 296 901 233 l 1039 247 m 942 396 q 852 303 904 343 q 735 251 800 264 l 735 725 q 848 672 797 710 q 936 585 899 635 l 1149 703 q 974 884 1078 815 q 735 968 869 953 l 735 1075 l 497 1075 l 497 968 q 164 829 281 949 q 47 486 47 710 q 164 142 47 261 q 497 4 281 24 l 497 -82 l 735 -82 l 735 4 q 972 88 868 19 q 1147 268 1076 156 l 942 396 m 1197 279 l 1329 139 q 1142 -64 1250 13 q 904 -161 1035 -140 l 904 -251 l 606 -251 l 494 -140 q 372 -96 431 -122 q 272 -29 313 -69 q 142 99 193 38 q 63 223 92 161 q 24 349 35 285 q 13 486 13 413 q 128 844 13 718 q 463 999 243 971 l 463 1110 l 769 1110 l 904 967 l 904 957 q 1142 769 1038 896 l 1228 683 q 1331 553 1283 628 l 1067 407 l 958 514 q 904 544 936 531 l 904 406 l 933 443 l 1197 279 z "},"£":{"ha":1524,"x_min":8,"x_max":1322,"o":"m 963 646 q 821 783 904 742 q 629 825 738 825 q 413 746 488 825 q 328 528 339 667 l 807 528 l 807 444 l 329 444 q 325 376 328 417 q 315 292 322 335 q 293 214 307 250 q 254 161 279 178 l 1065 161 l 1065 76 l 154 76 l 154 156 q 201 199 183 160 q 228 286 219 238 q 240 381 238 335 q 243 444 243 426 l 121 444 l 121 528 l 243 528 q 644 908 260 908 q 870 850 765 908 q 1040 690 975 792 l 963 646 m 1143 661 q 939 900 1065 814 q 639 986 813 986 q 458 965 540 986 q 316 897 376 943 q 217 778 256 850 q 169 604 179 706 l 43 604 l 43 368 l 164 368 q 160 322 164 351 q 147 263 157 292 q 121 213 138 233 q 78 192 104 192 l 78 -1 l 1143 -1 l 1143 239 l 382 239 q 395 303 389 271 q 404 368 401 336 l 885 368 l 885 604 l 415 604 q 446 678 424 650 q 499 722 468 706 q 567 742 529 738 q 644 747 604 747 q 740 731 696 747 q 819 687 783 715 q 883 620 854 658 q 932 538 911 582 l 1143 661 m 43 -36 l 43 228 q 74 233 61 226 q 97 250 88 239 l 8 333 l 8 639 l 139 639 q 196 813 154 740 q 302 931 238 885 q 452 999 367 978 q 639 1021 538 1021 q 770 1008 707 1021 q 898 962 833 994 q 1031 873 963 929 q 1178 731 1100 817 q 1256 630 1218 690 q 1322 511 1293 569 l 1054 358 l 1054 274 l 1178 274 l 1313 131 l 1313 -171 l 186 -171 l 43 -36 z "},"Þ":{"ha":1688,"x_min":7,"x_max":1350,"o":"m 203 299 l 781 299 q 872 309 829 299 q 946 342 914 319 q 997 403 978 365 q 1015 494 1015 440 q 997 585 1015 549 q 946 645 978 622 q 872 678 914 668 q 781 689 829 689 l 203 689 l 203 299 m 781 611 q 838 606 810 611 q 889 588 867 601 q 925 552 911 575 q 939 494 939 529 q 925 437 939 460 q 889 400 911 414 q 838 381 867 386 q 781 375 810 375 l 279 375 l 279 611 l 781 611 m 117 896 l 203 896 l 203 776 l 781 776 q 910 761 850 776 q 1013 713 969 746 q 1081 626 1057 679 q 1106 494 1106 572 q 1081 363 1106 417 q 1013 276 1057 310 q 910 228 969 243 q 781 213 850 213 l 203 213 l 203 76 l 117 76 l 117 896 m 279 135 l 781 135 q 943 155 869 135 q 1069 218 1017 175 q 1151 329 1122 261 q 1181 494 1181 397 q 1151 660 1181 592 q 1069 771 1122 728 q 943 833 1017 814 q 781 853 869 853 l 279 853 l 279 974 l 42 974 l 42 -1 l 279 -1 l 279 135 m 7 -36 l 7 1008 l 314 1008 l 426 888 l 781 888 q 897 880 840 888 q 1010 847 953 872 q 1126 776 1067 822 q 1254 651 1186 729 q 1326 528 1301 604 q 1350 356 1350 451 q 1319 176 1350 250 q 1231 55 1288 101 q 1094 -13 1174 8 q 919 -35 1015 -35 l 449 -35 l 449 -171 l 150 -171 l 7 -36 m 449 410 l 781 410 q 839 416 811 410 q 885 442 867 422 l 449 442 l 449 410 z "},"þ":{"ha":1688,"x_min":7,"x_max":1350,"o":"m 203 299 l 781 299 q 872 309 829 299 q 946 342 914 319 q 997 403 978 365 q 1015 494 1015 440 q 997 585 1015 549 q 946 645 978 622 q 872 678 914 668 q 781 689 829 689 l 203 689 l 203 299 m 781 611 q 838 606 810 611 q 889 588 867 601 q 925 552 911 575 q 939 494 939 529 q 925 437 939 460 q 889 400 911 414 q 838 381 867 386 q 781 375 810 375 l 279 375 l 279 611 l 781 611 m 117 896 l 203 896 l 203 776 l 781 776 q 910 761 850 776 q 1013 713 969 746 q 1081 626 1057 679 q 1106 494 1106 572 q 1081 363 1106 417 q 1013 276 1057 310 q 910 228 969 243 q 781 213 850 213 l 203 213 l 203 76 l 117 76 l 117 896 m 279 135 l 781 135 q 943 155 869 135 q 1069 218 1017 175 q 1151 329 1122 261 q 1181 494 1181 397 q 1151 660 1181 592 q 1069 771 1122 728 q 943 833 1017 814 q 781 853 869 853 l 279 853 l 279 974 l 42 974 l 42 -1 l 279 -1 l 279 135 m 7 -36 l 7 1008 l 314 1008 l 426 888 l 781 888 q 897 880 840 888 q 1010 847 953 872 q 1126 776 1067 822 q 1254 651 1186 729 q 1326 528 1301 604 q 1350 356 1350 451 q 1319 176 1350 250 q 1231 55 1288 101 q 1094 -13 1174 8 q 919 -35 1015 -35 l 449 -35 l 449 -171 l 150 -171 l 7 -36 m 449 410 l 781 410 q 839 416 811 410 q 885 442 867 422 l 449 442 l 449 410 z "},"ß":{"ha":1456,"x_min":19,"x_max":1276,"o":"m 19 -36 l 19 581 q 70 753 19 679 q 198 877 121 828 q 367 951 275 926 q 542 976 458 976 q 667 969 599 976 q 812 937 736 963 q 967 858 888 911 q 1124 714 1046 806 q 1182 621 1160 678 q 1204 501 1204 564 q 1195 428 1204 461 q 1163 365 1186 396 l 1204 325 q 1257 249 1238 292 q 1276 153 1276 206 q 1250 31 1276 83 q 1180 -58 1224 -21 q 1080 -120 1136 -96 q 963 -159 1024 -144 q 840 -179 901 -174 q 728 -185 779 -185 q 590 -169 660 -185 q 451 -126 521 -154 l 451 -171 l 163 -171 l 19 -36 m 282 -1 l 282 56 q 432 3 354 22 q 589 -15 510 -15 q 695 -10 638 -15 q 810 8 753 -6 q 922 43 868 21 q 1016 99 975 65 q 1082 181 1057 133 q 1107 292 1107 228 q 1070 411 1107 361 q 975 496 1033 461 q 1035 640 1035 554 q 984 789 1035 731 q 858 881 933 847 q 697 928 783 915 q 542 942 611 942 q 378 919 464 942 q 220 851 292 896 q 101 738 149 806 q 54 581 54 671 l 54 -1 l 282 -1 m 282 164 l 282 581 q 313 646 282 619 q 385 687 343 672 q 472 708 428 701 q 546 714 517 714 q 605 713 563 714 q 692 703 647 711 q 770 681 736 696 q 804 640 804 667 l 742 614 l 743 615 q 697 596 719 608 q 656 566 674 583 q 626 526 638 549 q 615 478 615 504 q 629 422 615 446 q 665 379 643 397 q 715 349 688 361 q 769 331 742 338 l 767 331 q 822 313 794 322 q 878 292 850 303 q 860 260 878 274 q 815 238 842 247 q 754 224 788 229 q 689 215 721 218 q 631 212 657 213 q 592 211 604 211 q 479 222 535 211 q 372 258 424 233 l 282 164 m 392 165 q 592 133 490 133 q 690 139 629 133 q 810 161 751 144 q 910 209 868 178 q 953 292 953 240 q 933 340 953 321 q 885 371 914 358 q 822 393 856 383 q 760 414 789 403 q 711 440 731 425 q 692 478 692 454 q 706 506 692 493 q 740 531 719 519 q 786 553 761 542 q 832 576 811 564 q 867 604 853 589 q 881 640 881 619 q 842 719 881 689 q 749 765 803 749 q 640 786 696 781 q 550 792 585 792 q 445 781 504 792 q 333 744 386 769 q 243 679 279 719 q 207 581 207 639 l 207 75 l 132 75 l 132 581 q 176 714 132 660 q 285 801 219 768 q 426 849 350 835 q 565 864 501 864 q 683 854 615 864 q 811 819 750 844 q 915 750 872 793 q 957 640 957 707 q 942 592 957 615 q 907 547 928 568 q 863 509 886 526 q 821 479 839 492 q 883 451 847 468 q 951 409 919 433 q 1006 356 983 385 q 1029 292 1029 326 q 1007 206 1029 242 q 948 144 985 169 q 865 102 911 118 q 769 78 818 86 q 672 66 719 69 q 589 63 625 63 q 339 113 457 63 l 392 165 m 451 267 q 523 251 488 256 q 592 246 558 246 q 656 247 611 246 q 744 253 700 247 q 663 331 694 299 q 613 388 632 363 q 588 433 594 413 q 581 478 581 454 q 592 535 581 508 q 540 523 565 531 q 495 504 515 515 q 463 478 475 493 q 451 442 451 463 l 451 267 z "},"¸":{"ha":588,"x_min":-15,"x_max":576,"o":"m 79 -276 q 126 -276 94 -276 q 190 -272 158 -276 q 247 -254 222 -267 q 271 -218 271 -242 q 247 -186 271 -196 q 193 -174 224 -176 q 133 -173 163 -171 q 89 -175 103 -175 l 89 -51 l 160 -51 l 160 -118 l 199 -117 q 249 -120 224 -117 q 294 -133 274 -124 q 328 -162 315 -143 q 342 -211 342 -181 q 313 -283 342 -258 q 242 -318 283 -307 q 156 -331 201 -329 q 79 -332 111 -332 l 79 -276 m 19 -399 q 97 -399 54 -399 q 183 -394 140 -399 q 267 -380 226 -390 q 338 -349 307 -369 q 388 -294 369 -328 q 407 -211 407 -261 q 358 -83 407 -125 q 226 -40 310 -40 l 226 25 l 19 25 l 19 -399 m -15 60 l 261 60 q 329 -4 301 22 q 384 -57 357 -31 q 443 -117 411 -83 q 524 -203 475 -150 q 576 -350 576 -256 q 536 -476 576 -432 q 431 -541 496 -521 q 287 -565 367 -561 q 128 -568 207 -568 l -15 -433 l -15 60 z "},"€":{"ha":1431,"x_min":-42,"x_max":1118,"o":"m 119 500 q 118 501 118 500 l 119 501 l 119 500 m 199 650 q 276 769 229 722 q 382 845 324 817 q 508 885 440 874 q 649 896 576 896 l 732 896 q 817 888 775 896 q 899 867 858 879 l 899 796 q 815 815 858 807 q 732 824 772 824 l 649 824 q 553 814 603 824 q 460 783 504 804 q 382 730 417 763 q 329 650 347 697 l 867 650 l 867 578 l 308 578 q 293 528 297 554 q 289 476 289 503 q 301 394 289 433 l 867 394 l 867 322 l 314 322 q 372 245 335 278 q 456 191 410 213 q 553 159 503 169 q 649 149 603 149 l 732 149 q 897 168 813 149 l 897 94 q 815 82 857 88 q 732 76 772 76 l 649 76 q 508 88 576 76 q 382 127 440 99 q 276 203 324 156 q 199 322 229 250 l 71 322 l 71 394 l 189 394 q 178 441 182 418 q 174 488 174 464 q 178 533 174 511 q 189 578 182 556 l 71 578 l 71 650 l 199 650 m 118 501 l 118 504 q 118 501 118 504 l 119 492 l 119 471 l -7 471 l -7 247 l 149 247 q 255 108 190 158 q 397 34 319 58 q 560 4 474 10 q 732 -1 646 -1 q 840 9 785 -1 q 949 33 896 19 l 949 922 q 801 964 874 954 q 649 974 729 974 q 499 963 574 974 q 358 924 424 951 q 238 848 292 896 q 149 725 183 800 l -7 725 l -7 501 l 118 501 m -42 760 l 126 760 q 223 883 165 835 q 349 958 281 931 q 494 997 418 986 q 649 1008 571 1008 q 810 997 731 1008 q 983 944 889 985 l 1118 803 l 1118 -129 q 992 -158 1056 -146 q 871 -171 928 -171 q 727 -167 800 -171 q 586 -147 654 -162 q 456 -101 518 -131 q 343 -21 393 -71 q 287 33 307 14 q 257 63 267 53 q 245 74 247 72 q 242 78 243 76 l 101 78 l -42 213 l -42 760 z "},"†":{"ha":1181,"x_min":3,"x_max":1047,"o":"m 115 531 l 418 531 l 418 972 l 499 972 l 499 531 l 800 531 l 800 446 l 499 446 l 499 21 l 418 21 l 418 446 l 115 446 l 115 531 m 38 368 l 342 368 l 342 -57 l 575 -57 l 575 368 l 878 368 l 878 606 l 575 606 l 575 1050 l 342 1050 l 342 606 l 38 606 l 38 368 m 3 640 l 307 640 l 307 1085 l 610 1085 l 744 942 l 744 640 l 913 640 l 1047 497 l 1047 199 l 744 199 l 744 -226 l 450 -226 l 307 -92 l 307 199 l 146 199 l 3 333 l 3 640 z "},"‡":{"ha":1181,"x_min":3,"x_max":1047,"o":"m 115 650 l 418 650 l 418 972 l 499 972 l 499 650 l 800 650 l 800 565 l 499 565 l 499 408 l 800 408 l 800 325 l 499 325 l 499 21 l 418 21 l 418 325 l 115 325 l 115 408 l 418 408 l 418 565 l 115 565 l 115 650 m 38 249 l 342 249 l 342 -57 l 575 -57 l 575 249 l 878 249 l 878 728 l 575 728 l 575 1050 l 342 1050 l 342 728 l 38 728 l 38 249 m 3 763 l 307 763 l 307 1085 l 610 1085 l 744 942 l 744 763 l 913 763 l 1047 619 l 1047 79 l 744 79 l 744 -226 l 450 -226 l 307 -92 l 307 79 l 146 79 l 3 214 l 3 763 z "},"Œ":{"ha":2231,"x_min":60,"x_max":1918,"o":"m 260 486 q 289 334 260 396 q 370 233 318 272 q 492 178 422 194 q 643 161 561 161 l 865 161 l 865 811 l 643 811 q 492 794 561 811 q 370 738 422 776 q 289 638 318 700 q 260 486 260 575 m 336 486 q 361 603 336 556 q 428 679 386 650 q 526 721 471 708 q 643 733 582 733 l 788 733 l 788 239 l 643 239 q 525 251 581 239 q 428 292 469 264 q 361 368 386 321 q 336 486 336 415 m 1526 528 l 1526 444 l 950 444 l 950 161 l 1672 161 l 1672 76 l 643 76 q 456 98 542 76 q 306 169 369 119 q 207 296 243 218 q 171 486 171 374 q 207 676 171 599 q 306 803 243 754 q 456 874 369 853 q 643 896 542 896 l 1671 896 l 1671 811 l 950 811 l 950 528 l 1526 528 m 1747 733 l 1747 974 l 643 974 q 422 947 522 974 q 248 861 321 919 q 135 710 175 803 q 94 486 94 618 q 135 262 94 354 q 248 111 175 169 q 422 26 321 53 q 643 -1 522 -1 l 1749 -1 l 1749 239 l 1025 239 l 1025 368 l 1604 368 l 1604 604 l 1025 604 l 1025 733 l 1747 733 m 317 -39 q 189 92 239 29 q 110 219 139 156 q 71 347 82 282 q 60 486 60 413 q 103 727 60 628 q 223 889 146 826 q 408 980 300 951 q 643 1008 515 1008 l 1782 1008 l 1917 865 l 1917 564 l 1706 564 l 1774 496 l 1774 274 l 1783 274 l 1918 131 l 1918 -171 l 782 -171 q 644 -165 711 -171 q 517 -143 578 -158 q 406 -103 457 -128 q 317 -39 356 -78 m 506 347 q 511 292 506 314 q 574 278 540 282 q 643 274 607 274 l 753 274 l 753 563 q 656 547 701 560 q 578 509 611 535 q 525 444 544 483 q 506 347 506 404 z "},"¥":{"ha":1560,"x_min":-185,"x_max":1525,"o":"m 264 485 l 500 485 l 83 896 l 207 896 l 610 500 l 1006 896 l 1126 896 l 715 485 l 950 485 l 950 426 l 651 426 l 651 257 l 950 257 l 950 199 l 651 199 l 651 76 l 565 76 l 565 199 l 264 199 l 264 257 l 565 257 l 565 426 l 264 426 l 264 485 m 186 121 l 489 121 l 489 -1 l 729 -1 l 729 121 l 1028 121 l 1028 563 l 901 563 l 1311 974 l 975 974 l 608 604 l 236 974 l -101 974 l 314 563 l 186 563 l 186 121 m 151 597 l 229 597 l -185 1008 l 250 1008 l 607 653 l 960 1008 l 1396 1008 l 1525 865 l 1156 494 l 1197 454 l 1197 -49 l 899 -49 l 899 -171 l 597 -171 l 475 -49 l 294 -49 l 151 86 l 151 597 z "},"À":{"ha":1799,"x_min":-53,"x_max":1733,"o":"m 908 1090 l 813 1090 q 724 1156 768 1122 q 636 1221 681 1189 l 733 1221 l 908 1090 m 789 1040 l 1071 1040 l 771 1271 l 482 1271 l 789 1040 m 1076 378 l 783 793 l 483 378 l 1076 378 m 926 453 l 632 453 l 781 661 l 926 453 m 1283 76 l 1133 292 l 424 292 q 348 184 385 239 q 272 76 311 129 l 161 76 q 455 486 308 283 q 747 896 601 689 l 814 896 l 1388 76 l 1283 76 m 710 974 l 15 -1 l 310 -1 l 463 214 l 1090 214 l 1242 -1 l 1536 -1 l 856 974 l 710 974 m 781 1306 l 1171 1006 l 1299 871 l 1006 871 l 1733 -171 l 1364 -171 l 1224 -36 l 1167 44 l 618 44 q 581 -8 601 19 q 541 -65 561 -36 q 501 -120 521 -93 q 465 -171 482 -147 l 94 -171 l -53 -36 l 692 1008 l 733 1008 l 360 1306 l 781 1306 z "},"Á":{"ha":1799,"x_min":-53,"x_max":1733,"o":"m 917 1221 q 828 1156 872 1189 q 740 1090 785 1122 l 644 1090 l 819 1221 l 917 1221 m 482 1040 l 764 1040 l 1071 1271 l 782 1271 l 482 1040 m 1076 378 l 783 793 l 483 378 l 1076 378 m 926 453 l 632 453 l 781 661 l 926 453 m 1283 76 l 1133 292 l 424 292 q 348 184 385 239 q 272 76 311 129 l 161 76 q 455 486 308 283 q 747 896 601 689 l 814 896 l 1388 76 l 1283 76 m 710 974 l 15 -1 l 310 -1 l 463 214 l 1090 214 l 1242 -1 l 1536 -1 l 856 974 l 710 974 m 1175 1306 l 1301 1163 l 965 910 l 1011 865 l 1733 -171 l 1364 -171 l 1224 -36 l 1167 44 l 618 44 q 581 -8 601 19 q 541 -65 561 -36 q 501 -120 521 -93 q 465 -171 482 -147 l 94 -171 l -53 -36 l 593 871 l 532 871 l 381 1006 l 772 1306 l 1175 1306 z "},"Â":{"ha":1799,"x_min":-53,"x_max":1733,"o":"m 821 1251 q 936 1172 879 1211 q 1051 1092 993 1132 l 974 1092 l 790 1208 l 606 1092 l 529 1092 l 760 1251 l 821 1251 m 329 1043 l 646 1043 l 790 1140 l 933 1043 l 1250 1043 l 842 1318 l 739 1318 l 329 1043 m 1076 378 l 783 793 l 483 378 l 1076 378 m 926 453 l 632 453 l 781 661 l 926 453 m 1283 76 l 1133 292 l 424 292 q 348 184 385 239 q 272 76 311 129 l 161 76 q 455 486 308 283 q 747 896 601 689 l 814 896 l 1388 76 l 1283 76 m 710 974 l 15 -1 l 310 -1 l 463 214 l 1090 214 l 1242 -1 l 1536 -1 l 856 974 l 710 974 m 851 1353 l 1361 1008 l 1488 874 l 1064 874 l 1006 874 l 1733 -171 l 1364 -171 l 1224 -36 l 1167 44 l 618 44 q 581 -8 601 19 q 541 -65 561 -36 q 501 -120 521 -93 q 465 -171 482 -147 l 94 -171 l -53 -36 l 596 874 l 369 874 l 217 1008 l 729 1353 l 851 1353 z "},"Ã":{"ha":1799,"x_min":-53,"x_max":1733,"o":"m 1093 1217 q 1056 1178 1078 1200 q 1010 1137 1035 1156 q 958 1105 985 1118 q 908 1092 932 1092 q 833 1108 864 1092 q 777 1144 803 1124 q 728 1180 751 1164 q 675 1196 704 1196 q 624 1174 644 1196 q 588 1131 603 1153 l 492 1131 q 529 1168 507 1147 q 576 1208 551 1189 q 628 1240 601 1226 q 678 1253 654 1253 q 756 1237 725 1253 q 810 1202 786 1221 q 856 1168 833 1183 q 911 1153 879 1153 q 962 1174 940 1153 q 999 1217 983 1194 l 1093 1217 m 972 1293 q 964 1276 969 1286 q 950 1255 958 1265 q 932 1237 942 1244 q 911 1229 922 1229 q 866 1244 890 1229 q 813 1278 842 1260 q 750 1313 783 1297 q 678 1329 717 1329 q 582 1301 629 1329 q 494 1231 535 1272 q 420 1141 453 1189 q 367 1054 388 1093 l 635 1054 q 656 1090 642 1069 q 690 1110 671 1110 q 718 1097 701 1110 q 760 1067 735 1083 q 822 1038 786 1051 q 908 1025 858 1025 q 1003 1052 957 1025 q 1091 1119 1050 1079 q 1165 1206 1132 1160 q 1219 1293 1199 1253 l 975 1293 l 972 1293 m 1076 378 l 783 793 l 483 378 l 1076 378 m 926 453 l 632 453 l 781 661 l 926 453 m 1283 76 l 1133 292 l 424 292 q 348 184 385 239 q 272 76 311 129 l 161 76 q 455 486 308 283 q 747 896 601 689 l 814 896 l 1388 76 l 1283 76 m 710 974 l 15 -1 l 310 -1 l 463 214 l 1090 214 l 1242 -1 l 1536 -1 l 856 974 l 710 974 m 1276 1328 l 1408 1185 q 1342 1076 1382 1136 q 1251 964 1301 1015 q 1140 881 1200 913 q 1017 857 1081 849 l 1733 -171 l 1364 -171 l 1224 -36 l 1167 44 l 618 44 q 581 -8 601 19 q 541 -65 561 -36 q 501 -120 521 -93 q 465 -171 482 -147 l 94 -171 l -53 -36 l 603 885 l 456 885 l 310 1019 q 375 1129 335 1069 q 464 1241 415 1189 q 567 1328 513 1293 q 678 1364 622 1364 q 772 1342 729 1364 q 850 1296 814 1319 q 881 1275 869 1283 q 904 1267 893 1267 q 918 1278 911 1268 q 931 1299 925 1288 q 943 1328 936 1313 l 1276 1328 z "},"Ä":{"ha":1799,"x_min":-53,"x_max":1733,"o":"m 913 1199 l 1000 1199 l 1000 1119 l 913 1119 l 913 1199 m 1078 1275 l 835 1275 l 835 1043 l 1078 1043 l 1078 1275 m 576 1199 l 664 1199 l 664 1119 l 576 1119 l 576 1199 m 740 1275 l 499 1275 l 499 1043 l 740 1043 l 740 1275 m 1076 378 l 783 793 l 483 378 l 1076 378 m 926 453 l 632 453 l 781 661 l 926 453 m 1283 76 l 1133 292 l 424 292 q 348 184 385 239 q 272 76 311 129 l 161 76 q 455 486 308 283 q 747 896 601 689 l 814 896 l 1388 76 l 1283 76 m 710 974 l 15 -1 l 310 -1 l 463 214 l 1090 214 l 1242 -1 l 1536 -1 l 856 974 l 710 974 m -53 -36 l 600 881 l 464 1008 l 464 1310 l 775 1310 l 800 1276 l 800 1310 l 1113 1310 l 1247 1167 l 1247 874 l 1003 874 l 1011 865 l 1733 -171 l 1364 -171 l 1224 -36 l 1167 44 l 618 44 q 581 -8 601 19 q 541 -65 561 -36 q 501 -120 521 -93 q 465 -171 482 -147 l 94 -171 l -53 -36 z "},"Å":{"ha":1799,"x_min":-53,"x_max":1733,"o":"m 711 1182 q 775 1119 711 1119 q 824 1133 807 1119 q 842 1182 842 1147 q 824 1231 842 1217 q 775 1244 807 1244 q 711 1182 711 1244 m 665 1183 q 695 1261 665 1236 q 775 1286 725 1286 q 858 1263 826 1286 q 890 1183 890 1239 q 860 1105 890 1128 q 779 1082 831 1082 q 697 1104 728 1082 q 665 1183 665 1126 m 588 1183 q 637 1047 588 1088 q 775 1007 686 1007 q 916 1046 864 1007 q 968 1183 968 1085 q 917 1319 968 1276 q 779 1361 867 1361 q 640 1320 692 1361 q 588 1183 588 1279 m 1076 378 l 783 793 l 483 378 l 1076 378 m 926 453 l 632 453 l 781 661 l 926 453 m 1283 76 l 1133 292 l 424 292 q 348 184 385 239 q 272 76 311 129 l 161 76 q 455 486 308 283 q 747 896 601 689 l 814 896 l 1388 76 l 1283 76 m 710 974 l 15 -1 l 310 -1 l 463 214 l 1090 214 l 1242 -1 l 1536 -1 l 856 974 l 710 974 m 553 1183 q 614 1347 553 1297 q 779 1396 675 1396 q 842 1393 813 1396 q 904 1374 871 1390 q 978 1322 938 1357 q 1076 1222 1019 1286 q 1119 1147 1101 1197 q 1138 1044 1138 1096 q 1107 917 1138 963 q 1019 851 1076 871 l 1733 -171 l 1364 -171 l 1224 -36 l 1167 44 l 618 44 q 581 -8 601 19 q 541 -65 561 -36 q 501 -120 521 -93 q 465 -171 482 -147 l 94 -171 l -53 -36 l 665 971 l 636 1001 q 574 1069 596 1025 q 553 1183 553 1114 z "},"Æ":{"ha":2007,"x_min":-97,"x_max":1757,"o":"m 704 750 l 438 378 l 704 378 l 704 750 m 628 515 l 628 453 l 585 453 l 628 515 m 1367 528 l 1367 444 l 790 444 l 790 161 l 1510 161 l 1510 76 l 704 76 l 704 292 l 379 292 q 303 183 340 238 q 225 76 265 129 l 118 76 q 410 486 264 283 q 701 896 556 689 l 1510 896 l 1510 811 l 790 811 l 790 528 l 1367 528 m 1588 733 l 1588 974 l 665 974 l -29 -1 l 264 -1 l 414 214 l 628 214 l 628 -1 l 1588 -1 l 1588 239 l 867 239 l 867 368 l 1443 368 l 1443 604 l 867 604 l 867 733 l 1588 733 m -97 -36 l 647 1008 l 1622 1008 l 1757 865 l 1757 564 l 1544 564 l 1613 496 l 1613 274 l 1622 274 l 1757 131 l 1757 -171 l 736 -171 l 593 -36 l 593 44 l 568 44 l 419 -171 l 50 -171 l -97 -36 z "},"œ":{"ha":2324,"x_min":60,"x_max":1918,"o":"m 260 486 q 289 334 260 396 q 370 233 318 272 q 492 178 422 194 q 643 161 561 161 l 865 161 l 865 811 l 643 811 q 492 794 561 811 q 370 738 422 776 q 289 638 318 700 q 260 486 260 575 m 336 486 q 361 603 336 556 q 428 679 386 650 q 526 721 471 708 q 643 733 582 733 l 788 733 l 788 239 l 643 239 q 525 251 581 239 q 428 292 469 264 q 361 368 386 321 q 336 486 336 415 m 1526 528 l 1526 444 l 950 444 l 950 161 l 1672 161 l 1672 76 l 643 76 q 456 98 542 76 q 306 169 369 119 q 207 296 243 218 q 171 486 171 374 q 207 676 171 599 q 306 803 243 754 q 456 874 369 853 q 643 896 542 896 l 1671 896 l 1671 811 l 950 811 l 950 528 l 1526 528 m 1747 733 l 1747 974 l 643 974 q 422 947 522 974 q 248 861 321 919 q 135 710 175 803 q 94 486 94 618 q 135 262 94 354 q 248 111 175 169 q 422 26 321 53 q 643 -1 522 -1 l 1749 -1 l 1749 239 l 1025 239 l 1025 368 l 1604 368 l 1604 604 l 1025 604 l 1025 733 l 1747 733 m 317 -39 q 189 92 239 29 q 110 219 139 156 q 71 347 82 282 q 60 486 60 413 q 103 727 60 628 q 223 889 146 826 q 408 980 300 951 q 643 1008 515 1008 l 1782 1008 l 1917 865 l 1917 564 l 1706 564 l 1774 496 l 1774 274 l 1783 274 l 1918 131 l 1918 -171 l 782 -171 q 644 -165 711 -171 q 517 -143 578 -158 q 406 -103 457 -128 q 317 -39 356 -78 m 506 347 q 511 292 506 314 q 574 278 540 282 q 643 274 607 274 l 753 274 l 753 563 q 656 547 701 560 q 578 509 611 535 q 525 444 544 483 q 506 347 506 404 z "},"È":{"ha":1529,"x_min":1,"x_max":1299,"o":"m 707 1090 l 611 1090 q 523 1156 567 1122 q 435 1221 479 1189 l 532 1221 l 707 1090 m 588 1040 l 869 1040 l 569 1271 l 281 1271 l 588 1040 m 907 528 l 907 444 l 200 444 l 200 161 l 1051 161 l 1051 76 l 114 76 l 114 896 l 1050 896 l 1050 811 l 200 811 l 200 528 l 907 528 m 1128 733 l 1128 974 l 36 974 l 36 -1 l 1129 -1 l 1129 239 l 276 239 l 276 368 l 983 368 l 983 604 l 276 604 l 276 733 l 1128 733 m 579 1306 l 965 1008 l 1163 1008 l 1297 865 l 1297 564 l 1085 564 l 1153 496 l 1153 274 l 1164 274 l 1299 131 l 1299 -171 l 144 -171 l 1 -36 l 1 1008 l 535 1008 l 157 1306 l 579 1306 z "},"É":{"ha":1529,"x_min":1,"x_max":1299,"o":"m 739 1221 q 651 1156 694 1189 q 563 1090 607 1122 l 467 1090 l 642 1221 l 739 1221 m 304 1040 l 586 1040 l 893 1271 l 604 1271 l 304 1040 m 907 528 l 907 444 l 200 444 l 200 161 l 1051 161 l 1051 76 l 114 76 l 114 896 l 1050 896 l 1050 811 l 200 811 l 200 528 l 907 528 m 1128 733 l 1128 974 l 36 974 l 36 -1 l 1129 -1 l 1129 239 l 276 239 l 276 368 l 983 368 l 983 604 l 276 604 l 276 733 l 1128 733 m 997 1306 l 1124 1163 l 918 1008 l 1163 1008 l 1297 865 l 1297 564 l 1085 564 l 1153 496 l 1153 274 l 1164 274 l 1299 131 l 1299 -171 l 144 -171 l 1 -36 l 1 1008 l 206 1008 l 594 1306 l 997 1306 z "},"Ê":{"ha":1529,"x_min":1,"x_max":1299,"o":"m 624 1251 q 739 1172 682 1211 q 854 1092 796 1132 l 776 1092 l 593 1208 l 408 1092 l 332 1092 l 563 1251 l 624 1251 m 132 1043 l 449 1043 l 593 1140 l 736 1043 l 1053 1043 l 644 1318 l 542 1318 l 132 1043 m 907 528 l 907 444 l 200 444 l 200 161 l 1051 161 l 1051 76 l 114 76 l 114 896 l 1050 896 l 1050 811 l 200 811 l 200 528 l 907 528 m 1128 733 l 1128 974 l 36 974 l 36 -1 l 1129 -1 l 1129 239 l 276 239 l 276 368 l 983 368 l 983 604 l 276 604 l 276 733 l 1128 733 m 654 1353 l 1164 1008 l 1297 865 l 1297 564 l 1085 564 l 1153 496 l 1153 274 l 1164 274 l 1299 131 l 1299 -171 l 144 -171 l 1 -36 l 1 1008 l 532 1353 l 654 1353 z "},"Ë":{"ha":1529,"x_min":1,"x_max":1299,"o":"m 722 1199 l 810 1199 l 810 1119 l 722 1119 l 722 1199 m 888 1275 l 644 1275 l 644 1043 l 888 1043 l 888 1275 m 386 1199 l 474 1199 l 474 1119 l 386 1119 l 386 1199 m 550 1275 l 308 1275 l 308 1043 l 550 1043 l 550 1275 m 907 528 l 907 444 l 200 444 l 200 161 l 1051 161 l 1051 76 l 114 76 l 114 896 l 1050 896 l 1050 811 l 200 811 l 200 528 l 907 528 m 1128 733 l 1128 974 l 36 974 l 36 -1 l 1129 -1 l 1129 239 l 276 239 l 276 368 l 983 368 l 983 604 l 276 604 l 276 733 l 1128 733 m 1057 1008 l 1163 1008 l 1297 865 l 1297 564 l 1085 564 l 1153 496 l 1153 274 l 1164 274 l 1299 131 l 1299 -171 l 144 -171 l 1 -36 l 1 1008 l 274 1008 l 274 1310 l 585 1310 l 610 1276 l 610 1310 l 922 1310 l 1057 1167 l 1057 1008 z "},"Ì":{"ha":636,"x_min":-258,"x_max":663,"o":"m 272 1090 l 176 1090 q 88 1156 132 1122 q 0 1221 44 1189 l 97 1221 l 272 1090 m 153 1040 l 435 1040 l 135 1271 l -154 1271 l 153 1040 m 103 896 l 186 896 l 186 76 l 103 76 l 103 896 m 263 974 l 26 974 l 26 -1 l 263 -1 l 263 974 m -258 1306 l 144 1306 l 535 1006 l 663 871 l 426 871 l 432 865 l 432 -171 l 135 -171 l -8 -36 l -8 1008 l 111 1008 l -258 1306 z "},"Í":{"ha":636,"x_min":-258,"x_max":663,"o":"m 278 1221 q 190 1156 233 1189 q 101 1090 146 1122 l 6 1090 l 181 1221 l 278 1221 m -157 1040 l 125 1040 l 432 1271 l 143 1271 l -157 1040 m 103 896 l 186 896 l 186 76 l 103 76 l 103 896 m 263 974 l 26 974 l 26 -1 l 263 -1 l 263 974 m 536 1306 l 663 1163 l 361 936 l 432 865 l 432 -171 l 135 -171 l -8 -36 l -8 871 l -107 871 l -258 1006 l 133 1306 l 536 1306 z "},"Î":{"ha":636,"x_min":-428,"x_max":843,"o":"m 176 1251 q 292 1172 235 1211 q 407 1092 349 1132 l 329 1092 l 146 1208 l -39 1092 l -115 1092 l 115 1251 l 176 1251 m -315 1043 l 1 1043 l 146 1140 l 289 1043 l 606 1043 l 197 1318 l 94 1318 l -315 1043 m 103 896 l 186 896 l 186 76 l 103 76 l 103 896 m 263 974 l 26 974 l 26 -1 l 263 -1 l 263 974 m 207 1353 l 717 1008 l 843 874 l 432 874 l 432 865 l 432 -171 l 135 -171 l -8 -36 l -8 874 l -275 874 l -428 1008 l 85 1353 l 207 1353 z "},"Ï":{"ha":636,"x_min":-183,"x_max":600,"o":"m 265 1199 l 353 1199 l 353 1119 l 265 1119 l 265 1199 m 431 1275 l 188 1275 l 188 1043 l 431 1043 l 431 1275 m -71 1199 l 17 1199 l 17 1119 l -71 1119 l -71 1199 m 93 1275 l -149 1275 l -149 1043 l 93 1043 l 93 1275 m 103 896 l 186 896 l 186 76 l 103 76 l 103 896 m 263 974 l 26 974 l 26 -1 l 263 -1 l 263 974 m -183 1008 l -183 1310 l 128 1310 l 153 1276 l 153 1310 l 465 1310 l 600 1167 l 600 874 l 432 874 l 432 865 l 432 -171 l 135 -171 l -8 -36 l -8 874 l -40 874 l -183 1008 z "},"Ð":{"ha":1778,"x_min":-50,"x_max":1536,"o":"m 747 528 l 747 444 l 321 444 l 321 161 l 818 161 q 969 178 899 161 q 1092 233 1040 194 q 1173 334 1143 272 q 1203 486 1203 396 q 1173 638 1203 575 q 1092 738 1143 700 q 969 794 1040 776 q 818 811 899 811 l 321 811 l 321 528 l 747 528 m 818 733 q 935 721 879 733 q 1033 679 990 708 q 1100 603 1075 650 q 1125 486 1125 556 q 1100 368 1125 415 q 1033 292 1075 321 q 936 251 992 264 q 818 239 881 239 l 399 239 l 399 368 l 824 368 l 824 604 l 399 604 l 399 733 l 818 733 m 238 528 l 238 896 l 818 896 q 1006 874 919 896 q 1156 803 1093 853 q 1255 676 1219 754 q 1290 486 1290 599 q 1255 296 1290 374 q 1156 169 1219 218 q 1006 98 1093 119 q 818 76 919 76 l 238 76 l 238 444 l 61 444 l 61 528 l 238 528 m 161 368 l 161 -1 l 818 -1 q 1040 26 939 -1 q 1213 111 1140 53 q 1326 262 1286 169 q 1367 486 1367 354 q 1326 710 1367 618 q 1213 861 1286 803 q 1040 947 1140 919 q 818 974 939 974 l 161 974 l 161 604 l -15 604 l -15 368 l 161 368 m -50 639 l 126 639 l 126 1008 l 818 1008 q 972 998 897 1008 q 1120 958 1047 988 q 1265 875 1193 929 q 1413 733 1338 821 q 1506 572 1475 671 q 1536 347 1536 474 q 1493 108 1536 207 q 1374 -52 1450 10 q 1190 -142 1297 -114 q 957 -171 1083 -171 l 269 -171 l 126 -36 l 126 199 l 93 199 l -50 333 l -50 639 m 993 310 q 1064 376 1038 333 q 1090 486 1090 419 q 1082 547 1090 518 q 957 564 1024 564 l 925 564 l 993 496 l 993 310 z "},"Ñ":{"ha":1465,"x_min":-1,"x_max":1258,"o":"m 878 1217 q 841 1178 863 1200 q 794 1137 819 1156 q 743 1105 769 1118 q 693 1092 717 1092 q 618 1108 649 1092 q 562 1144 588 1124 q 513 1180 536 1164 q 460 1196 489 1196 q 408 1174 429 1196 q 372 1131 388 1153 l 276 1131 q 314 1168 292 1147 q 361 1208 336 1189 q 413 1240 386 1226 q 463 1253 439 1253 q 540 1237 510 1253 q 594 1202 571 1221 q 641 1168 618 1183 q 696 1153 664 1153 q 747 1174 725 1153 q 783 1217 768 1194 l 878 1217 m 750 1293 q 741 1276 747 1286 q 728 1255 735 1265 q 713 1237 721 1244 q 696 1229 704 1229 q 651 1244 675 1229 q 597 1278 626 1260 q 535 1313 568 1297 q 463 1329 501 1329 q 367 1301 414 1329 q 278 1231 319 1272 q 205 1141 238 1189 q 151 1054 172 1093 l 419 1054 q 441 1090 426 1069 q 475 1110 456 1110 q 503 1097 486 1110 q 545 1067 519 1083 q 607 1038 571 1051 q 693 1025 643 1025 q 788 1052 742 1025 q 876 1119 835 1079 q 950 1206 917 1160 q 1004 1293 983 1253 l 750 1293 m 193 764 l 193 76 l 111 76 l 111 896 l 182 896 l 928 208 l 928 896 l 1011 896 l 1011 76 l 942 76 l 193 764 m 1089 974 l 851 974 l 851 383 l 208 974 l 33 974 l 33 -1 l 271 -1 l 271 590 l 915 -1 l 1089 -1 l 1089 974 m 1061 1328 l 1193 1185 q 1141 1098 1171 1144 q 1074 1008 1111 1051 l 1124 1008 l 1258 865 l 1258 -171 l 1042 -171 l 440 381 l 440 -171 l 142 -171 l -1 -36 l -1 1008 l 117 1008 l 94 1019 q 160 1129 119 1069 q 249 1241 200 1189 q 352 1328 297 1293 q 463 1364 407 1364 q 556 1342 514 1364 q 635 1296 599 1319 q 665 1278 654 1283 q 686 1272 675 1272 q 705 1279 697 1271 q 718 1299 713 1288 q 728 1328 724 1311 l 1061 1328 m 356 885 l 817 463 l 817 856 q 704 882 747 858 q 635 925 661 906 q 626 931 629 928 q 619 936 622 933 q 614 940 615 939 q 595 920 606 940 q 578 885 585 900 l 356 885 z "},"Ò":{"ha":1672,"x_min":22,"x_max":1476,"o":"m 797 1090 l 701 1090 q 613 1156 657 1122 q 525 1221 569 1189 l 622 1221 l 797 1090 m 678 1040 l 960 1040 l 660 1271 l 371 1271 l 678 1040 m 760 161 q 910 178 840 161 q 1033 234 981 196 q 1114 334 1085 272 q 1143 486 1143 396 q 1113 638 1143 575 q 1032 738 1083 700 q 910 794 981 776 q 760 811 840 811 l 607 811 q 455 794 525 811 q 333 738 385 776 q 252 638 282 700 q 222 486 222 575 q 252 334 222 396 q 333 233 282 272 q 455 178 385 194 q 607 161 525 161 l 760 161 m 607 239 q 489 251 544 239 q 392 292 433 264 q 325 368 350 321 q 300 486 300 415 q 325 603 300 556 q 392 679 350 650 q 490 721 435 708 q 607 733 546 733 l 760 733 q 876 721 821 733 q 974 679 932 708 q 1040 603 1015 650 q 1065 486 1065 556 q 1041 369 1065 417 q 975 293 1017 322 q 878 251 933 264 q 760 239 822 239 l 607 239 m 135 486 q 170 676 135 599 q 269 803 206 754 q 419 874 332 853 q 607 896 506 896 l 760 896 q 947 874 861 896 q 1097 803 1033 851 q 1195 676 1160 754 q 1231 486 1231 599 q 1195 296 1231 374 q 1097 169 1160 218 q 947 99 1033 121 q 760 76 861 76 l 607 76 q 419 98 506 76 q 269 169 332 119 q 170 296 206 218 q 135 486 135 374 m 57 486 q 98 262 57 354 q 212 111 139 169 q 385 26 285 53 q 607 -1 486 -1 l 760 -1 q 981 26 881 -1 q 1153 111 1081 53 q 1267 262 1226 169 q 1307 486 1307 354 q 1267 710 1307 618 q 1153 861 1226 803 q 981 947 1081 919 q 760 974 881 974 l 607 974 q 385 947 486 974 q 212 861 285 919 q 98 710 139 803 q 57 486 57 618 m 669 1306 l 1060 1006 q 1140 931 1107 960 q 1204 874 1174 901 q 1268 815 1235 847 q 1349 732 1301 782 q 1444 572 1411 669 q 1476 347 1476 474 q 1434 108 1476 207 q 1315 -52 1392 10 q 1131 -142 1238 -114 q 899 -171 1025 -171 l 746 -171 q 487 -138 604 -171 q 290 -28 369 -106 q 160 103 211 42 q 78 226 108 165 q 35 351 47 288 q 22 486 22 414 q 65 727 22 628 q 186 889 108 826 q 372 980 264 951 q 607 1008 479 1008 l 622 1008 l 244 1306 l 669 1306 m 760 274 q 863 284 814 274 q 950 319 913 294 q 1009 385 988 344 q 1031 486 1031 426 q 1022 547 1031 519 q 899 564 965 564 l 746 564 q 640 553 690 564 q 552 517 590 542 q 492 450 514 492 q 469 347 469 408 q 475 292 469 314 q 538 278 504 282 q 607 274 571 274 l 760 274 z "},"Ó":{"ha":1672,"x_min":22,"x_max":1476,"o":"m 806 1221 q 717 1156 761 1189 q 629 1090 674 1122 l 533 1090 l 708 1221 l 806 1221 m 371 1040 l 653 1040 l 960 1271 l 671 1271 l 371 1040 m 760 161 q 910 178 840 161 q 1033 234 981 196 q 1114 334 1085 272 q 1143 486 1143 396 q 1113 638 1143 575 q 1032 738 1083 700 q 910 794 981 776 q 760 811 840 811 l 607 811 q 455 794 525 811 q 333 738 385 776 q 252 638 282 700 q 222 486 222 575 q 252 334 222 396 q 333 233 282 272 q 455 178 385 194 q 607 161 525 161 l 760 161 m 607 239 q 489 251 544 239 q 392 292 433 264 q 325 368 350 321 q 300 486 300 415 q 325 603 300 556 q 392 679 350 650 q 490 721 435 708 q 607 733 546 733 l 760 733 q 876 721 821 733 q 974 679 932 708 q 1040 603 1015 650 q 1065 486 1065 556 q 1041 369 1065 417 q 975 293 1017 322 q 878 251 933 264 q 760 239 822 239 l 607 239 m 135 486 q 170 676 135 599 q 269 803 206 754 q 419 874 332 853 q 607 896 506 896 l 760 896 q 947 874 861 896 q 1097 803 1033 851 q 1195 676 1160 754 q 1231 486 1231 599 q 1195 296 1231 374 q 1097 169 1160 218 q 947 99 1033 121 q 760 76 861 76 l 607 76 q 419 98 506 76 q 269 169 332 119 q 170 296 206 218 q 135 486 135 374 m 57 486 q 98 262 57 354 q 212 111 139 169 q 385 26 285 53 q 607 -1 486 -1 l 760 -1 q 981 26 881 -1 q 1153 111 1081 53 q 1267 262 1226 169 q 1307 486 1307 354 q 1267 710 1307 618 q 1153 861 1226 803 q 981 947 1081 919 q 760 974 881 974 l 607 974 q 385 947 486 974 q 212 861 285 919 q 98 710 139 803 q 57 486 57 618 m 1064 1306 l 1190 1163 l 958 989 q 1048 964 1004 978 q 1138 923 1092 950 q 1235 851 1183 896 q 1347 736 1286 807 q 1443 574 1410 674 q 1476 347 1476 474 q 1434 108 1476 207 q 1315 -52 1392 10 q 1131 -142 1238 -114 q 899 -171 1025 -171 l 746 -171 q 608 -163 675 -171 q 480 -139 540 -156 q 368 -96 419 -122 q 278 -31 317 -69 q 149 101 199 39 q 72 224 100 163 q 33 350 43 286 q 22 486 22 414 q 43 661 22 583 q 103 798 64 739 q 199 899 143 857 q 326 965 256 940 l 269 1006 l 661 1306 l 1064 1306 m 760 274 q 863 284 814 274 q 950 319 913 294 q 1009 385 988 344 q 1031 486 1031 426 q 1022 547 1031 519 q 899 564 965 564 l 746 564 q 640 553 690 564 q 552 517 590 542 q 492 450 514 492 q 469 347 469 408 q 475 292 469 314 q 538 278 504 282 q 607 274 571 274 l 760 274 z "},"Ô":{"ha":1672,"x_min":22,"x_max":1476,"o":"m 713 1251 q 828 1172 771 1211 q 943 1092 885 1132 l 865 1092 l 682 1208 l 497 1092 l 421 1092 l 651 1251 l 713 1251 m 221 1043 l 538 1043 l 682 1140 l 825 1043 l 1142 1043 l 733 1318 l 631 1318 l 221 1043 m 760 161 q 910 178 840 161 q 1033 234 981 196 q 1114 334 1085 272 q 1143 486 1143 396 q 1113 638 1143 575 q 1032 738 1083 700 q 910 794 981 776 q 760 811 840 811 l 607 811 q 455 794 525 811 q 333 738 385 776 q 252 638 282 700 q 222 486 222 575 q 252 334 222 396 q 333 233 282 272 q 455 178 385 194 q 607 161 525 161 l 760 161 m 607 239 q 489 251 544 239 q 392 292 433 264 q 325 368 350 321 q 300 486 300 415 q 325 603 300 556 q 392 679 350 650 q 490 721 435 708 q 607 733 546 733 l 760 733 q 876 721 821 733 q 974 679 932 708 q 1040 603 1015 650 q 1065 486 1065 556 q 1041 369 1065 417 q 975 293 1017 322 q 878 251 933 264 q 760 239 822 239 l 607 239 m 135 486 q 170 676 135 599 q 269 803 206 754 q 419 874 332 853 q 607 896 506 896 l 760 896 q 947 874 861 896 q 1097 803 1033 851 q 1195 676 1160 754 q 1231 486 1231 599 q 1195 296 1231 374 q 1097 169 1160 218 q 947 99 1033 121 q 760 76 861 76 l 607 76 q 419 98 506 76 q 269 169 332 119 q 170 296 206 218 q 135 486 135 374 m 57 486 q 98 262 57 354 q 212 111 139 169 q 385 26 285 53 q 607 -1 486 -1 l 760 -1 q 981 26 881 -1 q 1153 111 1081 53 q 1267 262 1226 169 q 1307 486 1307 354 q 1267 710 1307 618 q 1153 861 1226 803 q 981 947 1081 919 q 760 974 881 974 l 607 974 q 385 947 486 974 q 212 861 285 919 q 98 710 139 803 q 57 486 57 618 m 743 1353 l 1253 1008 l 1379 874 l 1196 874 q 1214 858 1203 867 q 1244 831 1225 849 q 1291 786 1263 814 q 1361 714 1319 758 q 1450 563 1424 651 q 1476 347 1476 474 q 1434 108 1476 207 q 1315 -52 1392 10 q 1131 -142 1238 -114 q 899 -171 1025 -171 l 746 -171 q 482 -138 604 -171 q 281 -28 360 -106 q 151 103 201 42 q 73 226 101 165 q 33 351 44 288 q 22 486 22 414 q 74 747 22 642 q 219 913 126 851 l 108 1008 l 621 1353 l 743 1353 m 760 274 q 863 284 814 274 q 950 319 913 294 q 1009 385 988 344 q 1031 486 1031 426 q 1022 547 1031 519 q 899 564 965 564 l 746 564 q 640 553 690 564 q 552 517 590 542 q 492 450 514 492 q 469 347 469 408 q 475 292 469 314 q 538 278 504 282 q 607 274 571 274 l 760 274 z "},"Õ":{"ha":1672,"x_min":22,"x_max":1476,"o":"m 963 1217 q 926 1178 947 1200 q 879 1137 904 1156 q 828 1105 854 1118 q 778 1092 801 1092 q 703 1108 733 1092 q 647 1144 672 1124 q 597 1180 621 1164 q 544 1196 574 1196 q 493 1174 514 1196 q 457 1131 472 1153 l 361 1131 q 399 1168 376 1147 q 446 1208 421 1189 q 497 1240 471 1226 q 547 1253 524 1253 q 625 1237 594 1253 q 679 1202 656 1221 q 726 1168 703 1183 q 781 1153 749 1153 q 831 1174 810 1153 q 868 1217 853 1194 l 963 1217 m 835 1293 q 826 1276 832 1286 q 813 1255 819 1265 q 797 1237 806 1244 q 781 1229 789 1229 q 735 1244 760 1229 q 682 1278 711 1260 q 619 1313 653 1297 q 547 1329 586 1329 q 451 1301 499 1329 q 363 1231 404 1272 q 290 1141 322 1189 q 236 1054 257 1093 l 504 1054 q 526 1090 511 1069 q 560 1110 540 1110 q 588 1097 571 1110 q 630 1067 604 1083 q 692 1038 656 1051 q 778 1025 728 1025 q 873 1052 826 1025 q 960 1119 919 1079 q 1035 1206 1001 1160 q 1089 1293 1068 1253 l 835 1293 m 760 161 q 910 178 840 161 q 1033 234 981 196 q 1114 334 1085 272 q 1143 486 1143 396 q 1113 638 1143 575 q 1032 738 1083 700 q 910 794 981 776 q 760 811 840 811 l 607 811 q 455 794 525 811 q 333 738 385 776 q 252 638 282 700 q 222 486 222 575 q 252 334 222 396 q 333 233 282 272 q 455 178 385 194 q 607 161 525 161 l 760 161 m 607 239 q 489 251 544 239 q 392 292 433 264 q 325 368 350 321 q 300 486 300 415 q 325 603 300 556 q 392 679 350 650 q 490 721 435 708 q 607 733 546 733 l 760 733 q 876 721 821 733 q 974 679 932 708 q 1040 603 1015 650 q 1065 486 1065 556 q 1041 369 1065 417 q 975 293 1017 322 q 878 251 933 264 q 760 239 822 239 l 607 239 m 135 486 q 170 676 135 599 q 269 803 206 754 q 419 874 332 853 q 607 896 506 896 l 760 896 q 947 874 861 896 q 1097 803 1033 851 q 1195 676 1160 754 q 1231 486 1231 599 q 1195 296 1231 374 q 1097 169 1160 218 q 947 99 1033 121 q 760 76 861 76 l 607 76 q 419 98 506 76 q 269 169 332 119 q 170 296 206 218 q 135 486 135 374 m 57 486 q 98 262 57 354 q 212 111 139 169 q 385 26 285 53 q 607 -1 486 -1 l 760 -1 q 981 26 881 -1 q 1153 111 1081 53 q 1267 262 1226 169 q 1307 486 1307 354 q 1267 710 1307 618 q 1153 861 1226 803 q 981 947 1081 919 q 760 974 881 974 l 607 974 q 385 947 486 974 q 212 861 285 919 q 98 710 139 803 q 57 486 57 618 m 1146 1328 l 1278 1185 q 1243 1125 1263 1157 q 1200 1061 1224 1093 q 1150 998 1176 1029 q 1094 940 1124 967 q 1141 916 1117 929 q 1194 880 1165 903 q 1262 821 1224 857 q 1353 728 1300 785 q 1446 569 1415 665 q 1476 347 1476 474 q 1434 108 1476 207 q 1315 -52 1392 10 q 1131 -142 1238 -114 q 899 -171 1025 -171 l 746 -171 q 609 -165 675 -171 q 483 -143 543 -158 q 373 -102 424 -128 q 283 -37 322 -76 q 153 95 204 32 q 74 221 103 158 q 33 349 44 283 q 22 486 22 414 q 88 772 22 663 q 268 940 153 882 l 179 1019 q 244 1129 204 1069 q 333 1241 285 1189 q 437 1328 382 1293 q 547 1364 492 1364 q 641 1342 599 1364 q 719 1296 683 1319 q 754 1274 739 1283 q 781 1264 769 1264 l 813 1328 l 1146 1328 m 760 274 q 863 284 814 274 q 950 319 913 294 q 1009 385 988 344 q 1031 486 1031 426 q 1022 547 1031 519 q 899 564 965 564 l 746 564 q 640 553 690 564 q 552 517 590 542 q 492 450 514 492 q 469 347 469 408 q 475 292 469 314 q 538 278 504 282 q 607 274 571 274 l 760 274 z "},"Ö":{"ha":1668,"x_min":22,"x_max":1476,"o":"m 785 1199 l 872 1199 l 872 1119 l 785 1119 l 785 1199 m 950 1275 l 707 1275 l 707 1043 l 950 1043 l 950 1275 m 449 1199 l 536 1199 l 536 1119 l 449 1119 l 449 1199 m 613 1275 l 371 1275 l 371 1043 l 613 1043 l 613 1275 m 760 161 q 910 178 840 161 q 1033 234 981 196 q 1114 334 1085 272 q 1143 486 1143 396 q 1113 638 1143 575 q 1032 738 1083 700 q 910 794 981 776 q 760 811 840 811 l 607 811 q 455 794 525 811 q 333 738 385 776 q 252 638 282 700 q 222 486 222 575 q 252 334 222 396 q 333 233 282 272 q 455 178 385 194 q 607 161 525 161 l 760 161 m 607 239 q 489 251 544 239 q 392 292 433 264 q 325 368 350 321 q 300 486 300 415 q 325 603 300 556 q 392 679 350 650 q 490 721 435 708 q 607 733 546 733 l 760 733 q 876 721 821 733 q 974 679 932 708 q 1040 603 1015 650 q 1065 486 1065 556 q 1041 369 1065 417 q 975 293 1017 322 q 878 251 933 264 q 760 239 822 239 l 607 239 m 135 486 q 170 676 135 599 q 269 803 206 754 q 419 874 332 853 q 607 896 506 896 l 760 896 q 947 874 861 896 q 1097 803 1033 851 q 1195 676 1160 754 q 1231 486 1231 599 q 1195 296 1231 374 q 1097 169 1160 218 q 947 99 1033 121 q 760 76 861 76 l 607 76 q 419 98 506 76 q 269 169 332 119 q 170 296 206 218 q 135 486 135 374 m 57 486 q 98 262 57 354 q 212 111 139 169 q 385 26 285 53 q 607 -1 486 -1 l 760 -1 q 981 26 881 -1 q 1153 111 1081 53 q 1267 262 1226 169 q 1307 486 1307 354 q 1267 710 1307 618 q 1153 861 1226 803 q 981 947 1081 919 q 760 974 881 974 l 607 974 q 385 947 486 974 q 212 861 285 919 q 98 710 139 803 q 57 486 57 618 m 1119 928 q 1157 905 1138 917 q 1202 872 1176 893 q 1263 818 1228 851 q 1347 731 1297 785 q 1443 571 1410 668 q 1476 347 1476 474 q 1434 108 1476 207 q 1315 -52 1392 10 q 1131 -142 1238 -114 q 899 -171 1025 -171 l 746 -171 q 607 -162 675 -171 q 478 -137 539 -154 q 364 -92 417 -119 q 272 -26 311 -65 q 144 105 193 43 q 69 227 96 167 q 32 351 42 288 q 22 486 22 414 q 47 674 22 592 q 117 817 71 757 q 227 918 163 878 q 372 981 292 958 l 336 1008 l 336 1310 l 647 1310 l 672 1276 l 672 1310 l 985 1310 l 1119 1167 l 1119 928 m 760 274 q 863 284 814 274 q 950 319 913 294 q 1009 385 988 344 q 1031 486 1031 426 q 1022 547 1031 519 q 899 564 965 564 l 746 564 q 640 553 690 564 q 552 517 590 542 q 492 450 514 492 q 469 347 469 408 q 475 292 469 314 q 538 278 504 282 q 607 274 571 274 l 760 274 z "},"Ø":{"ha":1696,"x_min":22,"x_max":1476,"o":"m 1231 486 q 1195 296 1231 374 q 1097 169 1160 218 q 947 99 1033 121 q 760 76 861 76 l 607 76 q 418 99 504 76 q 269 170 332 121 q 170 297 206 219 q 135 486 135 375 q 170 676 135 599 q 269 803 206 754 q 419 874 332 853 q 607 896 506 896 l 760 896 q 949 873 863 896 q 1097 801 1035 850 q 1195 674 1160 751 q 1231 486 1231 596 m 481 172 q 526 165 503 169 q 572 161 550 161 l 760 161 q 910 178 840 161 q 1033 234 981 196 q 1114 334 1085 272 q 1143 486 1143 396 q 1103 658 1143 592 q 971 774 1063 725 l 481 172 m 607 811 q 455 794 525 811 q 333 738 385 776 q 252 638 282 700 q 222 486 222 575 q 231 390 222 432 q 261 314 240 349 q 315 251 282 279 q 393 199 347 224 q 638 499 515 350 q 883 800 761 649 q 822 807 851 803 q 760 811 792 811 l 607 811 m 300 486 q 325 603 300 556 q 392 679 350 650 q 490 721 435 708 q 607 733 546 733 l 728 733 l 376 303 q 317 385 335 336 q 300 486 300 433 m 635 239 l 986 669 q 1047 588 1028 636 q 1065 486 1065 539 q 1041 369 1065 417 q 975 293 1017 322 q 878 251 933 264 q 760 239 822 239 l 635 239 m 449 11 q 607 -1 528 -1 l 760 -1 q 981 26 881 -1 q 1153 111 1081 53 q 1267 262 1226 169 q 1307 486 1307 354 q 1299 594 1307 540 q 1272 697 1290 647 q 1222 789 1253 746 q 1147 867 1192 832 l 1235 974 l 925 974 l 915 961 q 760 974 838 974 l 607 974 q 385 947 486 974 q 212 861 285 919 q 98 710 139 803 q 57 486 57 618 q 65 378 57 432 q 92 276 74 325 q 142 183 111 226 q 217 106 172 140 l 129 -1 l 439 -1 l 449 11 m 56 -36 l 168 103 q 56 279 89 178 q 22 486 22 381 q 65 727 22 628 q 186 889 108 826 q 372 980 264 951 q 607 1008 479 1008 l 760 1008 q 832 1006 796 1008 q 901 999 868 1003 l 907 1008 l 1308 1008 l 1439 865 l 1329 731 l 1340 719 q 1445 547 1414 644 q 1476 347 1476 449 q 1434 108 1476 207 q 1315 -52 1392 10 q 1131 -142 1238 -114 q 899 -171 1025 -171 l 746 -171 q 672 -168 710 -171 q 600 -161 635 -165 l 593 -171 l 203 -171 l 56 -36 z "},"Ù":{"ha":1793,"x_min":18,"x_max":1472,"o":"m 776 1090 l 681 1090 q 592 1156 636 1122 q 504 1221 549 1189 l 601 1221 l 776 1090 m 657 1040 l 939 1040 l 639 1271 l 350 1271 l 657 1040 m 218 896 l 218 486 q 247 334 218 396 q 328 234 276 272 q 450 178 381 196 q 601 161 519 161 l 754 161 q 905 178 835 161 q 1027 234 975 196 q 1109 334 1079 272 q 1139 486 1139 396 l 1139 896 l 1226 896 l 1226 486 q 1190 296 1226 374 q 1091 169 1154 218 q 942 98 1028 119 q 754 76 856 76 l 601 76 q 413 98 500 76 q 263 169 326 119 q 165 296 200 218 q 129 486 129 374 l 129 896 l 218 896 m 53 486 q 93 262 53 354 q 206 111 133 169 q 380 26 279 53 q 601 -1 481 -1 l 754 -1 q 976 26 875 -1 q 1149 111 1076 53 q 1263 262 1222 169 q 1303 486 1303 354 l 1303 974 l 1061 974 l 1061 486 q 1036 368 1061 415 q 969 292 1011 321 q 872 251 928 264 q 754 239 817 239 l 601 239 q 483 251 539 239 q 386 293 428 264 q 320 369 344 322 q 296 486 296 417 l 296 974 l 53 974 l 53 486 m 649 1306 l 1035 1008 l 1338 1008 l 1472 865 l 1472 347 q 1429 108 1472 207 q 1310 -52 1386 10 q 1126 -142 1233 -114 q 893 -171 1019 -171 l 740 -171 q 476 -135 599 -171 q 275 -22 353 -100 q 146 106 196 46 q 67 226 96 167 q 28 349 39 286 q 18 486 18 413 l 18 1008 l 331 1008 l 465 865 l 465 347 q 466 318 465 332 q 469 292 467 304 q 601 274 528 274 l 754 274 q 858 284 808 274 q 944 319 907 294 q 1004 385 982 344 q 1026 486 1026 425 l 1026 871 l 785 871 l 226 1306 l 649 1306 z "},"Ú":{"ha":1793,"x_min":18,"x_max":1472,"o":"m 835 1221 q 747 1156 790 1189 q 658 1090 703 1122 l 563 1090 l 738 1221 l 835 1221 m 400 1040 l 682 1040 l 989 1271 l 700 1271 l 400 1040 m 218 896 l 218 486 q 247 334 218 396 q 328 234 276 272 q 450 178 381 196 q 601 161 519 161 l 754 161 q 905 178 835 161 q 1027 234 975 196 q 1109 334 1079 272 q 1139 486 1139 396 l 1139 896 l 1226 896 l 1226 486 q 1190 296 1226 374 q 1091 169 1154 218 q 942 98 1028 119 q 754 76 856 76 l 601 76 q 413 98 500 76 q 263 169 326 119 q 165 296 200 218 q 129 486 129 374 l 129 896 l 218 896 m 53 486 q 93 262 53 354 q 206 111 133 169 q 380 26 279 53 q 601 -1 481 -1 l 754 -1 q 976 26 875 -1 q 1149 111 1076 53 q 1263 262 1222 169 q 1303 486 1303 354 l 1303 974 l 1061 974 l 1061 486 q 1036 368 1061 415 q 969 292 1011 321 q 872 251 928 264 q 754 239 817 239 l 601 239 q 483 251 539 239 q 386 293 428 264 q 320 369 344 322 q 296 486 296 417 l 296 974 l 53 974 l 53 486 m 1093 1306 l 1219 1163 l 832 871 l 460 871 l 465 865 l 465 347 q 466 318 465 332 q 469 292 467 304 q 601 274 528 274 l 754 274 q 858 284 808 274 q 944 319 907 294 q 1004 385 982 344 q 1026 486 1026 425 l 1026 1008 l 1338 1008 l 1472 865 l 1472 347 q 1429 108 1472 207 q 1310 -52 1386 10 q 1126 -142 1233 -114 q 893 -171 1019 -171 l 740 -171 q 603 -165 669 -171 q 478 -142 538 -158 q 369 -101 419 -126 q 281 -36 319 -75 q 151 94 201 32 q 71 219 100 157 q 30 347 42 282 q 18 486 18 413 l 18 1008 l 301 1008 l 690 1306 l 1093 1306 z "},"Û":{"ha":1793,"x_min":18,"x_max":1472,"o":"m 704 1251 q 819 1172 763 1211 q 935 1092 876 1132 l 857 1092 l 674 1208 l 489 1092 l 413 1092 l 643 1251 l 704 1251 m 213 1043 l 529 1043 l 674 1140 l 817 1043 l 1133 1043 l 725 1318 l 622 1318 l 213 1043 m 218 896 l 218 486 q 247 334 218 396 q 328 234 276 272 q 450 178 381 196 q 601 161 519 161 l 754 161 q 905 178 835 161 q 1027 234 975 196 q 1109 334 1079 272 q 1139 486 1139 396 l 1139 896 l 1226 896 l 1226 486 q 1190 296 1226 374 q 1091 169 1154 218 q 942 98 1028 119 q 754 76 856 76 l 601 76 q 413 98 500 76 q 263 169 326 119 q 165 296 200 218 q 129 486 129 374 l 129 896 l 218 896 m 53 486 q 93 262 53 354 q 206 111 133 169 q 380 26 279 53 q 601 -1 481 -1 l 754 -1 q 976 26 875 -1 q 1149 111 1076 53 q 1263 262 1222 169 q 1303 486 1303 354 l 1303 974 l 1061 974 l 1061 486 q 1036 368 1061 415 q 969 292 1011 321 q 872 251 928 264 q 754 239 817 239 l 601 239 q 483 251 539 239 q 386 293 428 264 q 320 369 344 322 q 296 486 296 417 l 296 974 l 53 974 l 53 486 m 735 1353 l 1244 1008 l 1338 1008 l 1338 1000 l 1472 865 l 1472 347 q 1429 108 1472 207 q 1310 -52 1386 10 q 1126 -142 1233 -114 q 893 -171 1019 -171 l 740 -171 q 484 -136 599 -171 q 292 -24 369 -101 l 193 74 q 64 238 110 136 q 18 486 18 339 l 18 1008 l 100 1008 l 613 1353 l 735 1353 m 1026 874 l 947 874 l 813 965 l 676 874 l 457 874 l 465 865 l 465 347 q 466 318 465 332 q 469 292 467 304 q 601 274 528 274 l 754 274 q 858 284 808 274 q 944 319 907 294 q 1004 385 982 344 q 1026 486 1026 425 l 1026 874 m 335 167 q 345 161 340 164 q 357 156 350 158 l 325 186 l 335 167 z "},"Ü":{"ha":1793,"x_min":18,"x_max":1472,"o":"m 810 1199 l 897 1199 l 897 1119 l 810 1119 l 810 1199 m 975 1275 l 732 1275 l 732 1043 l 975 1043 l 975 1275 m 474 1199 l 561 1199 l 561 1119 l 474 1119 l 474 1199 m 638 1275 l 396 1275 l 396 1043 l 638 1043 l 638 1275 m 218 896 l 218 486 q 247 334 218 396 q 328 234 276 272 q 450 178 381 196 q 601 161 519 161 l 754 161 q 905 178 835 161 q 1027 234 975 196 q 1109 334 1079 272 q 1139 486 1139 396 l 1139 896 l 1226 896 l 1226 486 q 1190 296 1226 374 q 1091 169 1154 218 q 942 98 1028 119 q 754 76 856 76 l 601 76 q 413 98 500 76 q 263 169 326 119 q 165 296 200 218 q 129 486 129 374 l 129 896 l 218 896 m 53 486 q 93 262 53 354 q 206 111 133 169 q 380 26 279 53 q 601 -1 481 -1 l 754 -1 q 976 26 875 -1 q 1149 111 1076 53 q 1263 262 1222 169 q 1303 486 1303 354 l 1303 974 l 1061 974 l 1061 486 q 1036 368 1061 415 q 969 292 1011 321 q 872 251 928 264 q 754 239 817 239 l 601 239 q 483 251 539 239 q 386 293 428 264 q 320 369 344 322 q 296 486 296 417 l 296 974 l 53 974 l 53 486 m 18 1008 l 331 1008 l 465 865 l 465 347 q 466 318 465 332 q 469 292 467 304 q 601 274 528 274 l 754 274 q 858 284 808 274 q 944 319 907 294 q 1004 385 982 344 q 1026 486 1026 425 l 1026 874 l 840 874 l 807 907 l 807 874 l 504 874 l 361 1008 l 361 1310 l 672 1310 l 697 1276 l 697 1310 l 1010 1310 l 1144 1167 l 1144 1008 l 1338 1008 l 1472 865 l 1472 347 q 1429 108 1472 207 q 1310 -52 1386 10 q 1126 -142 1233 -114 q 893 -171 1019 -171 l 740 -171 q 603 -163 669 -171 q 476 -139 536 -156 q 365 -96 415 -122 q 275 -31 314 -69 q 146 99 196 38 q 67 222 96 161 q 28 348 39 283 q 18 486 18 413 l 18 1008 z "},"Ý":{"ha":1560,"x_min":-132,"x_max":1581,"o":"m 808 1221 q 720 1156 764 1189 q 632 1090 676 1122 l 536 1090 l 711 1221 l 808 1221 m 374 1040 l 656 1040 l 963 1271 l 674 1271 l 374 1040 m 140 896 l 263 896 l 665 500 l 1061 896 l 1182 896 l 707 422 l 707 76 l 621 76 l 621 421 l 140 896 m 785 -1 l 785 390 l 1367 974 l 1031 974 l 664 604 l 292 974 l -47 974 l 544 388 l 544 -1 l 785 -1 m 1067 1306 l 1193 1163 l 806 871 l 443 871 l 663 653 l 1015 1008 l 1451 1008 l 1581 865 l 954 239 l 954 -171 l 653 -171 l 510 -36 l 510 374 q 353 528 435 447 q 189 691 272 608 q 24 854 106 774 q -132 1008 -58 935 l 275 1008 l 664 1306 l 1067 1306 z "},"˘":{"ha":808,"x_min":-76,"x_max":786,"o":"m 293 1119 q 227 1131 257 1119 q 174 1164 197 1143 q 131 1212 150 1185 q 96 1268 111 1239 l 192 1268 q 210 1242 199 1257 q 236 1213 222 1226 q 265 1190 250 1199 q 294 1181 279 1181 q 326 1190 311 1181 q 354 1212 342 1199 q 377 1240 367 1225 q 394 1268 388 1256 l 499 1268 q 417 1163 468 1206 q 293 1119 365 1119 m 294 1043 q 406 1071 356 1043 q 494 1142 456 1099 q 561 1240 533 1186 q 606 1344 589 1293 l 344 1344 q 335 1314 342 1329 q 322 1286 329 1299 q 306 1266 314 1274 q 294 1258 299 1258 q 281 1267 289 1258 q 265 1290 272 1276 q 251 1317 257 1303 q 243 1344 244 1332 l -24 1344 q 27 1240 -1 1293 q 94 1142 56 1186 q 181 1071 132 1099 q 294 1043 231 1043 m 207 957 q 87 1078 133 1021 q 10 1188 40 1136 q -39 1288 -19 1240 q -76 1379 -58 1335 l 274 1379 q 277 1349 274 1367 q 292 1329 281 1332 q 303 1335 299 1329 q 313 1351 308 1342 q 319 1368 317 1360 q 322 1379 321 1376 l 653 1379 l 786 1236 q 734 1110 767 1174 q 657 993 701 1046 q 556 907 613 940 q 433 874 500 874 q 372 879 403 874 q 310 895 340 885 q 254 921 281 906 q 207 957 228 936 z "},"Ÿ":{"ha":1560,"x_min":-132,"x_max":1581,"o":"m 793 1199 l 881 1199 l 881 1119 l 793 1119 l 793 1199 m 958 1275 l 715 1275 l 715 1043 l 958 1043 l 958 1275 m 457 1199 l 544 1199 l 544 1119 l 457 1119 l 457 1199 m 621 1275 l 379 1275 l 379 1043 l 621 1043 l 621 1275 m 140 896 l 263 896 l 665 500 l 1061 896 l 1182 896 l 707 422 l 707 76 l 621 76 l 621 421 l 140 896 m 785 -1 l 785 390 l 1367 974 l 1031 974 l 664 604 l 292 974 l -47 974 l 544 388 l 544 -1 l 785 -1 m 510 374 q 353 528 435 447 q 189 691 272 608 q 24 854 106 774 q -132 1008 -58 935 l 306 1008 l 663 653 l 882 874 l 824 874 l 790 907 l 790 874 l 488 874 l 344 1008 l 344 1310 l 656 1310 l 681 1276 l 681 1310 l 993 1310 l 1128 1167 l 1128 1008 l 1451 1008 l 1581 865 l 954 239 l 954 -171 l 653 -171 l 510 -36 l 510 374 z "},"a":{"ha":1757,"x_min":-53,"x_max":1733,"o":"m 1076 378 l 783 793 l 483 378 l 1076 378 m 926 453 l 632 453 l 781 661 l 926 453 m 1283 76 l 1133 292 l 424 292 q 348 184 385 239 q 272 76 311 129 l 161 76 q 455 486 308 283 q 747 896 601 689 l 814 896 l 1388 76 l 1283 76 m 710 974 l 15 -1 l 310 -1 l 463 214 l 1090 214 l 1242 -1 l 1536 -1 l 856 974 l 710 974 m 1011 865 l 1733 -171 l 1364 -171 l 1224 -36 l 1167 44 l 618 44 q 581 -8 601 19 q 541 -65 561 -36 q 501 -120 521 -93 q 465 -171 482 -147 l 94 -171 l -53 -36 l 692 1008 l 874 1008 l 1011 865 z "},"b":{"ha":1547,"x_min":10,"x_max":1390,"o":"m 799 528 q 864 535 832 528 q 922 560 896 543 q 963 603 947 576 q 978 668 978 631 q 963 734 978 707 q 924 778 949 761 q 867 803 899 796 q 800 811 835 811 l 206 811 l 206 528 l 799 528 m 800 733 q 833 731 815 733 q 867 720 851 728 q 892 700 882 713 q 901 668 901 688 q 891 637 901 649 q 865 617 881 625 q 831 607 849 610 q 799 604 813 604 l 283 604 l 283 733 l 800 733 m 874 161 q 940 169 907 161 q 999 194 974 176 q 1041 238 1025 211 q 1057 304 1057 265 q 1043 365 1057 339 q 1006 409 1029 392 q 952 435 982 426 q 890 444 922 444 l 206 444 l 206 161 l 874 161 m 890 368 q 920 365 904 368 q 949 353 936 361 q 971 333 963 346 q 979 304 979 321 q 969 271 979 283 q 942 251 958 258 q 908 242 926 244 q 874 239 889 239 l 283 239 l 283 368 l 890 368 m 800 896 q 906 883 857 896 q 990 843 954 871 q 1045 772 1025 815 q 1067 668 1065 729 q 1052 605 1067 635 q 1017 553 1038 575 q 972 517 996 531 q 932 503 949 504 q 1007 484 969 500 q 1074 442 1044 468 q 1124 381 1104 415 q 1143 304 1143 346 q 1122 198 1143 242 q 1065 127 1101 154 q 978 88 1028 100 q 874 76 929 76 l 122 76 l 122 896 l 800 896 m 874 -1 q 1013 16 949 -1 q 1122 70 1076 33 q 1194 165 1168 107 q 1221 304 1221 222 q 1183 428 1221 374 q 1068 514 1144 482 q 1099 547 1085 528 q 1122 586 1113 565 q 1138 628 1132 607 q 1143 668 1143 650 q 1118 805 1143 747 q 1048 900 1093 863 q 940 956 1003 938 q 800 974 876 974 l 44 974 l 44 -1 l 874 -1 m 10 1008 l 800 1008 q 1026 967 925 1008 q 1215 821 1128 925 q 1268 735 1244 786 q 1301 630 1292 685 q 1302 522 1311 575 q 1257 432 1293 469 q 1318 385 1293 418 q 1359 314 1343 353 q 1383 235 1375 275 q 1390 165 1390 194 q 1362 12 1390 75 q 1283 -92 1333 -51 q 1164 -152 1233 -133 q 1013 -171 1094 -171 l 153 -171 l 10 -36 l 10 1008 z "},"d":{"ha":1613,"x_min":13,"x_max":1422,"o":"m 703 161 q 854 178 783 161 q 977 233 925 194 q 1059 334 1029 272 q 1089 486 1089 396 q 1059 638 1089 576 q 977 739 1029 700 q 854 794 925 778 q 703 811 783 811 l 208 811 l 208 161 l 703 161 m 703 733 q 822 722 765 733 q 920 681 878 710 q 988 604 963 651 q 1014 486 1014 557 q 989 367 1014 415 q 921 291 964 319 q 822 251 878 263 q 703 239 765 239 l 283 239 l 283 733 l 703 733 m 703 896 q 890 874 804 896 q 1040 803 976 853 q 1140 676 1104 754 q 1176 486 1176 599 q 1140 296 1176 374 q 1040 169 1104 218 q 890 98 976 119 q 703 76 804 76 l 124 76 l 124 896 l 703 896 m 703 -1 q 924 25 824 -1 q 1098 110 1025 51 q 1212 261 1171 168 q 1253 486 1253 354 q 1212 711 1253 618 q 1098 863 1171 804 q 924 947 1025 921 q 703 974 824 974 l 47 974 l 47 -1 l 703 -1 m 13 1008 l 703 1008 q 856 1001 782 1008 q 1001 967 929 993 q 1144 889 1072 940 q 1290 750 1215 838 q 1388 580 1353 688 q 1422 347 1422 472 q 1379 108 1422 207 q 1259 -52 1336 10 q 1075 -142 1182 -114 q 842 -171 968 -171 l 156 -171 l 13 -36 l 13 1008 m 453 274 l 703 274 q 808 284 758 274 q 897 319 858 294 q 957 384 935 343 q 979 486 979 425 q 972 547 979 517 q 842 564 911 564 l 453 564 l 453 274 z "},"e":{"ha":1485,"x_min":1,"x_max":1299,"o":"m 907 528 l 907 444 l 200 444 l 200 161 l 1051 161 l 1051 76 l 114 76 l 114 896 l 1050 896 l 1050 811 l 200 811 l 200 528 l 907 528 m 1128 733 l 1128 974 l 36 974 l 36 -1 l 1129 -1 l 1129 239 l 276 239 l 276 368 l 983 368 l 983 604 l 276 604 l 276 733 l 1128 733 m 1 -36 l 1 1008 l 1163 1008 l 1297 865 l 1297 564 l 1085 564 l 1153 496 l 1153 274 l 1299 131 l 1299 -171 l 144 -171 l 1 -36 z "},"f":{"ha":1468,"x_min":1,"x_max":1297,"o":"m 907 528 l 907 444 l 200 444 l 200 76 l 114 76 l 114 896 l 1050 896 l 1050 811 l 200 811 l 200 528 l 907 528 m 1128 733 l 1128 974 l 36 974 l 36 -1 l 276 -1 l 276 368 l 983 368 l 983 604 l 276 604 l 276 733 l 1128 733 m 1 -36 l 1 1008 l 1163 1008 l 1297 865 l 1297 564 l 1085 564 l 1153 496 l 1153 199 l 446 199 l 446 -171 l 144 -171 l 1 -36 z "},"g":{"ha":1707,"x_min":18,"x_max":1496,"o":"m 1046 728 q 906 793 983 775 q 751 811 829 811 l 600 811 q 449 794 519 811 q 328 738 379 776 q 247 638 276 700 q 217 486 217 575 q 246 334 217 396 q 327 234 275 272 q 449 178 379 196 q 600 161 518 161 l 751 161 q 890 177 824 161 q 1008 227 956 193 q 1099 315 1061 261 q 1153 444 1136 368 l 769 444 l 769 528 l 1250 528 l 1250 486 q 1210 292 1250 371 q 1101 166 1169 214 q 943 97 1033 118 q 751 76 853 76 l 600 76 q 413 99 499 76 q 263 169 326 121 q 164 296 200 218 q 128 486 128 374 q 164 676 128 599 q 263 803 200 754 q 413 874 326 851 q 600 896 499 896 l 751 896 q 854 892 803 896 q 954 878 906 889 q 1049 847 1003 867 q 1136 792 1096 826 l 1046 728 m 1254 772 q 1149 875 1206 836 q 1028 936 1092 914 q 896 966 965 958 q 751 974 826 974 l 600 974 q 379 947 479 974 q 206 861 279 919 q 93 710 133 803 q 53 486 53 618 q 93 262 53 354 q 206 111 133 169 q 379 26 279 53 q 600 -1 479 -1 l 751 -1 q 976 24 871 -1 q 1158 108 1081 50 q 1281 258 1236 165 q 1326 486 1326 351 l 1326 604 l 692 604 l 692 368 l 1053 368 q 996 306 1031 331 q 920 266 961 281 q 835 245 879 251 q 751 239 792 239 l 600 239 q 482 251 538 239 q 385 292 426 264 q 318 368 343 321 q 293 486 293 415 q 318 603 293 556 q 385 679 343 650 q 483 721 428 708 q 600 733 539 733 l 751 733 q 908 708 833 733 q 1042 621 983 682 l 1254 772 m 275 -22 q 147 104 197 44 q 69 224 97 164 q 29 348 40 285 q 18 486 18 411 q 61 727 18 628 q 181 889 104 826 q 365 980 258 951 q 600 1008 472 1008 l 751 1008 q 899 1001 828 1008 q 1036 973 969 994 q 1165 909 1103 951 q 1285 796 1226 867 q 1353 726 1326 754 q 1395 679 1379 699 q 1420 648 1411 660 q 1436 626 1429 636 l 1394 597 l 1496 496 l 1496 347 q 1449 106 1496 204 q 1319 -55 1401 7 q 1127 -144 1238 -117 q 890 -171 1017 -171 l 739 -171 q 475 -135 597 -171 q 275 -22 353 -100 m 657 556 q 580 534 615 549 q 518 494 544 519 q 477 433 492 469 q 463 347 463 396 q 468 292 463 314 q 531 278 497 282 q 600 274 564 274 l 725 274 l 657 333 l 657 556 z "},"h":{"ha":1483,"x_min":3,"x_max":1308,"o":"m 975 444 l 200 444 l 200 76 l 115 76 l 115 896 l 200 896 l 200 528 l 975 528 l 975 896 l 1061 896 l 1061 76 l 975 76 l 975 444 m 1139 974 l 897 974 l 897 604 l 278 604 l 278 974 l 38 974 l 38 -1 l 278 -1 l 278 368 l 897 368 l 897 -1 l 1139 -1 l 1139 974 m 447 639 l 863 639 l 863 1008 l 1174 1008 l 1308 865 l 1308 -171 l 1006 -171 l 863 -36 l 863 199 l 447 199 l 447 -171 l 146 -171 l 3 -36 l 3 1008 l 313 1008 l 447 865 l 447 639 z "},"i":{"ha":654,"x_min":-8,"x_max":432,"o":"m 103 896 l 186 896 l 186 76 l 103 76 l 103 896 m 263 974 l 26 974 l 26 -1 l 263 -1 l 263 974 m -8 -36 l -8 1008 l 297 1008 l 432 865 l 432 -171 l 135 -171 l -8 -36 z "},"j":{"ha":1503,"x_min":-44,"x_max":1313,"o":"m 596 161 q 747 178 676 161 q 869 234 817 196 q 950 334 921 272 q 979 486 979 396 l 979 896 l 1068 896 l 1068 486 q 1026 280 1068 360 q 914 155 985 200 q 748 93 843 110 q 547 76 653 76 q 424 82 486 76 q 306 104 363 88 q 198 153 249 121 q 108 240 147 186 l 200 296 q 283 224 238 250 q 381 183 329 197 q 486 165 432 169 q 596 161 540 161 m 547 239 q 363 276 447 239 q 221 396 279 313 l 3 265 q 118 121 54 174 q 257 41 182 68 q 417 6 332 14 q 596 -1 501 -1 q 817 26 717 -1 q 990 111 917 53 q 1103 262 1063 169 q 1143 486 1143 354 l 1143 974 l 903 974 l 903 486 q 872 354 903 403 q 792 280 842 306 q 678 247 742 254 q 547 239 614 239 m 547 274 q 665 281 607 274 q 767 309 722 288 q 840 373 813 331 q 868 486 868 415 l 868 1008 l 1178 1008 l 1313 865 l 1313 347 q 1270 108 1313 207 q 1151 -52 1228 10 q 967 -142 1074 -114 q 735 -171 861 -171 q 584 -166 657 -171 q 444 -144 511 -161 q 315 -97 376 -128 q 199 -11 253 -65 q 102 82 140 42 q 38 156 64 122 q -8 218 11 189 q -44 279 -26 247 l 229 442 q 251 411 239 426 q 277 381 263 397 q 311 349 292 364 q 423 292 361 310 q 547 274 485 274 z "},"k":{"ha":1629,"x_min":6,"x_max":1658,"o":"m 117 896 l 201 896 l 201 543 l 892 896 l 1033 896 l 222 486 q 623 281 424 382 q 1024 76 822 181 l 892 76 l 201 428 l 201 76 l 117 76 l 117 896 m 279 301 l 869 -1 l 1301 0 q 839 242 1068 121 q 376 486 610 364 l 1314 974 l 869 974 q 575 822 722 896 q 279 671 428 747 l 279 974 l 40 974 l 40 -1 l 279 -1 l 279 301 m 649 381 l 771 317 q 909 244 838 282 q 1053 169 981 207 q 1197 94 1125 132 q 1333 24 1268 57 l 1658 -169 l 1000 -171 l 449 113 l 449 -171 l 149 -171 l 6 -36 l 6 1008 l 314 1008 l 449 865 l 449 797 q 541 844 496 821 q 635 892 586 867 q 738 945 683 917 q 860 1008 793 974 l 1331 1008 l 1506 826 l 649 381 z "},"l":{"ha":1418,"x_min":-1,"x_max":1224,"o":"m 193 896 l 193 161 l 978 161 l 978 76 l 110 76 l 110 896 l 193 896 m 1054 -1 l 1054 239 l 271 239 l 271 974 l 33 974 l 33 -1 l 1054 -1 m -1 1008 l 306 1008 l 440 865 l 440 274 l 1089 274 l 1224 131 l 1224 -171 l 142 -171 l -1 -36 l -1 1008 z "},"m":{"ha":1693,"x_min":17,"x_max":1478,"o":"m 128 896 l 200 896 l 679 185 q 917 542 797 365 q 1160 896 1038 718 l 1232 896 l 1232 76 l 1146 76 l 1146 721 l 714 76 l 646 76 l 214 719 l 214 76 l 128 76 l 128 896 m 290 467 l 603 -1 l 756 -1 l 1069 468 l 1069 -1 l 1308 -1 l 1308 974 l 1117 974 l 678 324 l 242 974 l 51 974 l 51 -1 l 290 -1 l 290 467 m 396 865 l 697 414 l 1100 1008 l 1343 1008 l 1478 865 l 1478 -171 l 1178 -171 l 1035 -36 l 1035 15 l 910 -171 l 726 -171 l 586 -36 l 460 153 l 460 -171 l 160 -171 l 17 -36 l 17 1008 l 258 1008 l 396 865 z "},"n":{"ha":1467,"x_min":-1,"x_max":1258,"o":"m 193 764 l 193 76 l 111 76 l 111 896 l 182 896 l 928 208 l 928 896 l 1011 896 l 1011 76 l 942 76 l 193 764 m 1089 974 l 851 974 l 851 383 l 208 974 l 33 974 l 33 -1 l 271 -1 l 271 590 l 915 -1 l 1089 -1 l 1089 974 m -1 -36 l -1 1008 l 221 1008 l 817 463 l 817 1008 l 1124 1008 l 1258 865 l 1258 -171 l 1042 -171 l 440 381 l 440 -171 l 142 -171 l -1 -36 z "},"o":{"ha":1622,"x_min":22,"x_max":1476,"o":"m 760 161 q 910 178 840 161 q 1033 234 981 196 q 1114 334 1085 272 q 1143 486 1143 396 q 1113 638 1143 575 q 1032 738 1083 700 q 910 794 981 776 q 760 811 840 811 l 607 811 q 455 794 525 811 q 333 738 385 776 q 252 638 282 700 q 222 486 222 575 q 252 334 222 396 q 333 233 282 272 q 455 178 385 194 q 607 161 525 161 l 760 161 m 607 239 q 489 251 544 239 q 392 292 433 264 q 325 368 350 321 q 300 486 300 415 q 325 603 300 556 q 392 679 350 650 q 490 721 435 708 q 607 733 546 733 l 760 733 q 876 721 821 733 q 974 679 932 708 q 1040 603 1015 650 q 1065 486 1065 556 q 1041 369 1065 417 q 975 293 1017 322 q 878 251 933 264 q 760 239 822 239 l 607 239 m 135 486 q 170 676 135 599 q 269 803 206 754 q 419 874 332 853 q 607 896 506 896 l 760 896 q 947 874 861 896 q 1097 803 1033 851 q 1195 676 1160 754 q 1231 486 1231 599 q 1195 296 1231 374 q 1097 169 1160 218 q 947 99 1033 121 q 760 76 861 76 l 607 76 q 419 98 506 76 q 269 169 332 119 q 170 296 206 218 q 135 486 135 374 m 57 486 q 98 262 57 354 q 212 111 139 169 q 385 26 285 53 q 607 -1 486 -1 l 760 -1 q 981 26 881 -1 q 1153 111 1081 53 q 1267 262 1226 169 q 1307 486 1307 354 q 1267 710 1307 618 q 1153 861 1226 803 q 981 947 1081 919 q 760 974 881 974 l 607 974 q 385 947 486 974 q 212 861 285 919 q 98 710 139 803 q 57 486 57 618 m 22 486 q 65 727 22 628 q 186 889 108 826 q 372 980 264 951 q 607 1008 479 1008 l 760 1008 q 912 999 840 1008 q 1053 962 983 990 q 1191 881 1122 933 q 1333 742 1260 829 q 1436 576 1396 679 q 1476 347 1476 474 q 1434 108 1476 207 q 1315 -52 1392 10 q 1131 -142 1238 -114 q 899 -171 1025 -171 l 746 -171 q 482 -139 604 -171 q 281 -29 360 -107 q 151 102 201 40 q 73 225 101 164 q 33 350 44 286 q 22 486 22 414 m 760 274 q 863 284 814 274 q 950 319 913 294 q 1009 385 988 344 q 1031 486 1031 426 q 1022 547 1031 519 q 899 564 965 564 l 746 564 q 640 553 690 564 q 552 517 590 542 q 492 450 514 492 q 469 347 469 408 q 475 292 469 314 q 538 278 504 282 q 607 274 571 274 l 760 274 z "},"p":{"ha":1460,"x_min":3,"x_max":1306,"o":"m 793 733 q 827 731 810 733 q 859 721 844 728 q 883 701 874 714 q 893 668 893 689 q 883 636 893 649 q 857 617 872 624 q 824 607 842 610 q 792 604 806 604 l 278 604 l 278 733 l 793 733 m 792 528 q 858 535 825 528 q 915 560 890 543 q 956 603 940 576 q 971 668 971 631 q 956 734 971 707 q 917 778 942 761 q 860 803 893 796 q 793 811 828 811 l 200 811 l 200 528 l 792 528 m 200 76 l 115 76 l 115 896 l 793 896 q 899 883 850 896 q 983 842 947 869 q 1038 772 1018 815 q 1058 668 1058 728 q 1023 542 1058 592 q 918 465 988 493 l 918 464 q 829 447 886 453 q 702 440 772 442 q 556 438 632 438 q 410 440 479 438 q 285 443 340 442 q 200 444 229 444 l 200 76 m 1136 668 q 1111 805 1136 747 q 1041 900 1086 863 q 933 956 996 938 q 793 974 869 974 l 38 974 l 38 -1 l 278 -1 l 278 368 q 365 367 311 368 q 481 363 418 365 q 611 361 543 361 q 742 364 679 361 q 860 374 806 367 q 950 393 914 381 l 950 394 q 1089 500 1042 433 q 1136 668 1136 567 m 3 -36 l 3 1008 l 793 1008 q 899 1001 847 1008 q 1005 969 951 993 q 1115 900 1058 944 q 1235 782 1172 856 q 1290 675 1275 742 q 1306 529 1306 608 q 1253 343 1306 417 q 1100 225 1201 269 q 1034 209 1072 215 q 950 199 996 203 q 853 193 904 194 q 751 192 803 192 q 603 192 676 192 q 447 193 529 192 l 447 -171 l 146 -171 l 3 -36 z "},"q":{"ha":1764,"x_min":24,"x_max":1908,"o":"m 776 239 l 608 239 q 490 251 546 239 q 392 292 435 264 q 325 368 350 321 q 300 486 300 415 q 325 604 300 557 q 392 680 350 651 q 490 721 435 708 q 608 733 546 733 l 760 733 q 876 721 821 733 q 974 679 932 708 q 1042 603 1017 650 q 1067 486 1067 556 q 1056 408 1067 446 q 1026 336 1046 371 l 888 411 l 485 411 l 776 239 m 1046 240 q 1117 353 1092 289 q 1143 486 1143 418 q 1114 638 1143 575 q 1033 738 1085 700 q 910 794 981 776 q 760 811 840 811 l 608 811 q 458 794 528 811 q 335 738 388 776 q 253 637 283 699 q 224 486 224 575 q 253 334 224 396 q 335 234 283 272 q 458 178 388 196 q 608 161 528 161 l 760 161 q 810 165 779 161 q 873 176 840 169 q 935 191 906 183 q 985 206 965 199 l 742 336 l 871 335 l 1046 240 m 136 486 q 172 676 136 599 q 270 803 207 754 q 420 874 333 853 q 608 896 507 896 l 760 896 q 947 874 861 896 q 1097 803 1033 851 q 1196 676 1160 754 q 1232 486 1232 599 q 1201 340 1232 410 q 1128 207 1169 269 l 1369 76 l 1253 76 l 1088 167 q 928 101 1017 126 q 760 76 840 76 l 608 76 q 420 98 507 76 q 270 169 333 119 q 172 296 207 218 q 136 486 136 374 m 58 486 q 85 290 58 371 q 161 154 113 208 q 276 69 210 100 q 419 23 342 39 q 584 3 497 7 q 760 -1 671 -1 q 928 21 840 -1 q 1089 79 1017 43 l 1238 0 l 1638 0 l 1239 235 q 1289 356 1271 293 q 1307 486 1307 419 q 1280 683 1307 601 q 1205 818 1253 764 q 1092 903 1157 872 q 949 950 1026 935 q 784 969 871 965 q 608 974 697 974 q 387 947 488 974 q 213 861 286 919 q 99 710 140 803 q 58 486 58 618 m 24 486 q 67 727 24 628 q 188 889 110 826 q 373 980 265 951 q 608 1008 481 1008 q 803 1005 707 1008 q 994 977 900 1001 q 1178 898 1088 953 q 1353 739 1268 843 q 1444 581 1411 681 q 1476 347 1476 482 q 1465 251 1476 299 q 1438 158 1454 204 l 1767 -35 l 1908 -169 l 1369 -169 l 1229 -94 q 1067 -150 1156 -129 q 899 -171 979 -171 q 719 -168 808 -171 q 547 -151 629 -165 q 392 -108 464 -137 q 269 -28 321 -79 q 147 94 194 36 q 72 213 99 153 q 34 340 44 274 q 24 486 24 407 m 747 564 q 591 538 661 564 q 489 446 521 511 l 896 446 l 1013 383 q 1032 486 1032 435 q 1024 547 1032 518 q 899 564 965 564 l 747 564 z "},"r":{"ha":1604,"x_min":17,"x_max":1531,"o":"m 804 733 q 839 731 821 733 q 872 721 857 728 q 898 701 888 714 q 908 668 908 689 q 897 636 908 649 q 870 617 886 624 q 835 607 854 610 q 803 604 817 604 l 289 604 l 289 733 l 804 733 m 803 528 q 869 535 836 528 q 928 560 901 543 q 970 603 954 576 q 986 668 986 631 q 971 735 986 707 q 930 779 956 763 q 872 803 904 796 q 804 811 839 811 l 213 811 l 213 528 l 803 528 m 929 465 q 886 449 910 454 q 842 438 863 443 q 998 257 919 346 q 1156 76 1076 168 l 1043 76 l 722 444 l 213 444 l 213 76 l 126 76 l 126 896 l 804 896 q 910 883 861 896 q 995 843 960 871 q 1051 772 1031 815 q 1071 668 1071 729 q 1036 542 1071 592 q 931 465 1001 493 l 929 465 m 1149 668 q 1124 805 1149 747 q 1053 900 1099 863 q 944 956 1007 938 q 804 974 881 974 l 51 974 l 51 -1 l 289 -1 l 289 368 l 686 368 l 1006 -1 l 1325 -1 l 975 400 q 1149 668 1149 476 m 17 -36 l 17 1008 l 804 1008 q 908 1001 858 1008 q 1009 969 958 993 q 1115 901 1060 946 q 1232 783 1169 857 q 1295 676 1272 743 q 1318 529 1318 608 q 1278 367 1318 438 q 1164 251 1239 296 q 1254 147 1207 201 q 1349 38 1301 93 q 1442 -70 1396 -17 q 1531 -171 1489 -124 l 1131 -171 l 990 -36 l 788 199 l 458 199 l 458 -171 l 160 -171 l 17 -36 z "},"s":{"ha":1589,"x_min":6,"x_max":1442,"o":"m 254 267 q 353 201 299 224 q 465 170 407 179 q 585 160 524 161 q 703 160 646 160 q 759 161 724 160 q 835 167 794 163 q 918 181 876 172 q 994 206 960 190 q 1049 242 1028 221 q 1071 294 1071 264 q 1048 348 1071 325 q 989 388 1025 371 q 908 416 953 404 q 818 434 863 428 q 735 443 774 440 q 674 446 697 446 l 675 446 q 593 453 642 447 q 492 469 544 458 q 386 498 439 481 q 292 540 333 515 q 224 599 250 565 q 197 678 197 633 q 223 761 197 726 q 290 820 249 796 q 382 859 331 844 q 486 882 433 874 q 587 893 539 890 q 668 896 635 896 q 778 891 722 896 q 889 874 835 886 q 994 840 943 861 q 1089 785 1046 818 l 1015 732 q 931 776 975 760 q 839 800 886 792 q 743 810 792 808 q 649 813 694 813 q 562 808 617 813 q 453 791 507 804 q 361 751 400 778 q 322 678 322 724 q 360 606 322 633 q 458 563 397 579 q 598 538 519 547 q 758 519 676 529 q 919 497 840 510 q 1058 459 997 483 q 1157 395 1119 435 q 1194 294 1194 356 q 1169 218 1194 251 q 1101 160 1143 185 q 1008 120 1060 136 q 903 94 956 104 q 804 81 851 85 q 726 76 757 76 l 622 76 q 503 81 565 76 q 381 99 440 85 q 267 140 321 114 q 171 213 213 167 l 254 267 m 56 242 q 188 102 111 151 q 353 30 264 53 q 537 3 442 7 q 726 -1 632 -1 q 825 5 768 -1 q 943 25 882 11 q 1063 62 1004 39 q 1169 117 1122 85 q 1244 194 1215 150 q 1272 294 1272 238 q 1242 410 1272 363 q 1165 491 1213 458 q 1055 544 1117 524 q 928 575 993 564 q 800 592 863 586 q 689 601 738 597 q 625 608 672 603 q 528 622 578 613 q 439 644 478 631 q 400 678 400 658 q 436 711 400 700 q 519 728 472 722 q 609 734 565 733 q 668 735 653 735 q 758 731 713 735 q 848 717 804 728 q 931 685 892 706 q 1004 631 971 664 l 1207 767 q 1088 880 1154 839 q 946 942 1021 921 q 790 968 871 963 q 626 974 708 974 q 528 967 583 974 q 417 947 474 961 q 308 911 361 933 q 213 856 254 889 q 146 778 171 822 q 121 678 121 735 q 153 565 121 613 q 238 485 185 518 q 357 431 290 451 q 492 397 424 410 q 626 376 561 383 q 739 363 690 368 q 794 357 753 361 q 879 345 835 353 q 958 325 924 338 q 993 294 993 313 q 971 269 993 279 q 914 252 949 258 q 838 243 879 246 q 756 239 796 240 q 685 238 717 238 q 642 238 654 238 q 538 242 589 238 q 438 262 486 247 q 346 303 389 276 q 268 374 303 329 l 56 242 m 257 408 l 190 476 q 114 562 142 513 q 86 678 86 611 q 113 791 86 742 q 185 876 140 840 q 286 938 229 913 q 403 979 343 964 q 521 1001 463 994 q 626 1008 579 1008 q 792 1003 708 1008 q 955 978 875 999 q 1108 914 1035 957 q 1246 793 1182 871 q 1314 722 1289 750 q 1353 674 1339 693 q 1375 642 1368 654 q 1389 621 1382 631 l 1211 501 q 1227 490 1218 494 q 1253 471 1236 485 q 1297 431 1269 457 q 1369 358 1324 406 q 1422 269 1403 324 q 1442 156 1442 215 q 1411 44 1442 93 q 1332 -40 1381 -4 q 1221 -101 1283 -76 q 1094 -142 1158 -126 q 970 -164 1031 -157 q 865 -171 910 -171 q 699 -171 783 -171 q 533 -157 614 -171 q 375 -111 451 -143 q 235 -14 299 -79 q 144 74 181 36 q 81 144 107 113 q 38 201 56 175 q 6 253 21 228 l 257 408 z "},"t":{"ha":1511,"x_min":10,"x_max":1382,"o":"m 586 811 l 121 811 l 121 896 l 1136 896 l 1136 811 l 669 811 l 669 76 l 586 76 l 586 811 m 746 733 l 1213 733 l 1213 974 l 44 974 l 44 733 l 510 733 l 510 -1 l 746 -1 l 746 733 m 10 699 l 10 1008 l 1247 1008 l 1382 865 l 1382 564 l 915 564 l 915 -171 l 618 -171 l 475 -36 l 475 564 l 153 564 l 10 699 z "},"v":{"ha":1742,"x_min":-81,"x_max":1706,"o":"m 719 76 q 426 486 572 283 q 133 896 281 689 l 244 896 l 756 179 q 1006 537 882 358 q 1256 896 1131 715 l 1360 896 l 786 76 l 719 76 m 1214 974 q 985 642 1099 807 q 753 311 871 476 l 282 974 l -12 974 l 682 -1 l 828 -1 l 1508 974 l 1214 974 m 1706 865 l 983 -171 l 804 -171 l 664 -36 l -81 1008 l 328 1008 l 438 865 l 769 394 q 856 517 813 454 q 951 653 900 581 q 1061 813 1001 726 q 1196 1008 1121 900 l 1574 1008 l 1706 865 z "},"w":{"ha":1967,"x_min":-22,"x_max":1840,"o":"m 521 218 q 664 558 590 390 q 808 896 738 725 l 876 896 l 1164 219 q 1306 557 1235 389 q 1446 896 1376 725 l 1543 896 q 1374 486 1458 689 q 1204 76 1289 283 l 1133 76 l 843 754 l 550 76 l 482 76 q 314 487 399 283 q 143 896 229 690 l 240 896 l 521 218 m 432 -1 l 604 -1 q 722 278 663 140 q 842 557 781 417 l 1081 -1 l 1254 -1 l 1657 974 l 1394 974 q 1280 698 1338 835 q 1164 422 1222 561 l 928 974 l 758 974 l 521 419 l 290 974 l 29 974 l 432 -1 m 313 1008 l 449 865 l 558 599 q 647 803 603 701 q 736 1008 692 904 l 951 1008 l 1088 865 l 1200 599 l 1217 638 q 1235 680 1225 657 q 1253 722 1246 703 q 1314 867 1283 793 q 1372 1008 1344 942 l 1708 1008 l 1840 865 l 1413 -171 l 1199 -171 l 1057 -36 l 938 242 q 849 34 893 138 q 763 -171 804 -69 l 551 -171 l 410 -36 l -22 1008 l 313 1008 z "},"x":{"ha":1832,"x_min":-29,"x_max":1790,"o":"m 1357 76 l 1232 76 l 815 443 l 406 76 l 283 76 l 761 489 q 522 693 640 592 q 281 896 403 794 l 406 896 l 817 533 q 1018 715 917 625 q 1221 896 1119 804 l 1344 896 l 871 489 l 1357 76 m 1193 974 q 1006 805 1100 888 q 817 636 911 722 l 435 974 l 72 974 l 643 490 l 72 -1 l 435 -1 l 815 340 l 1203 -1 l 1568 -1 l 990 488 l 1554 974 l 1193 974 m 1775 865 l 1192 361 l 1663 -36 l 1790 -171 l 1329 -171 l 954 160 q 769 -6 863 76 q 585 -171 676 -89 l 129 -171 l -21 -36 l 581 482 l -29 1008 l 447 1008 l 815 683 l 1181 1008 l 1647 1008 l 1775 865 z "},"y":{"ha":1628,"x_min":-132,"x_max":1581,"o":"m 140 896 l 263 896 l 665 500 l 1061 896 l 1182 896 l 707 422 l 707 76 l 621 76 l 621 421 l 140 896 m 785 -1 l 785 390 l 1367 974 l 1031 974 l 664 604 l 292 974 l -47 974 l 544 388 l 544 -1 l 785 -1 m 510 374 q 353 528 435 447 q 189 691 272 608 q 24 854 106 774 q -132 1008 -58 935 l 306 1008 l 663 653 l 1015 1008 l 1451 1008 l 1581 865 l 954 239 l 954 -171 l 653 -171 l 510 -36 l 510 374 z "},"z":{"ha":1438,"x_min":1,"x_max":1265,"o":"m 975 896 l 975 826 l 260 161 l 1019 161 l 1019 76 l 113 76 l 113 146 l 831 811 l 156 811 l 156 896 l 975 896 m 638 733 l 36 179 l 36 -1 l 1096 -1 l 1096 239 l 454 239 l 1053 792 l 1053 974 l 78 974 l 78 733 l 638 733 m 43 1008 l 1088 1008 l 1222 865 l 1222 639 l 825 274 l 1131 274 l 1265 131 l 1265 -171 l 144 -171 l 1 -36 l 1 194 l 401 564 l 186 564 l 43 699 l 43 1008 z "},"ÿ":{"ha":1560,"x_min":-132,"x_max":1581,"o":"m 793 1199 l 881 1199 l 881 1119 l 793 1119 l 793 1199 m 958 1275 l 715 1275 l 715 1043 l 958 1043 l 958 1275 m 457 1199 l 544 1199 l 544 1119 l 457 1119 l 457 1199 m 621 1275 l 379 1275 l 379 1043 l 621 1043 l 621 1275 m 140 896 l 263 896 l 665 500 l 1061 896 l 1182 896 l 707 422 l 707 76 l 621 76 l 621 421 l 140 896 m 785 -1 l 785 390 l 1367 974 l 1031 974 l 664 604 l 292 974 l -47 974 l 544 388 l 544 -1 l 785 -1 m 510 374 q 353 528 435 447 q 189 691 272 608 q 24 854 106 774 q -132 1008 -58 935 l 306 1008 l 663 653 l 882 874 l 824 874 l 790 907 l 790 874 l 488 874 l 344 1008 l 344 1310 l 656 1310 l 681 1276 l 681 1310 l 993 1310 l 1128 1167 l 1128 1008 l 1451 1008 l 1581 865 l 954 239 l 954 -171 l 653 -171 l 510 -36 l 510 374 z "},"c":{"ha":1643,"x_min":14,"x_max":1476,"o":"m 599 811 q 447 794 517 811 q 325 738 376 776 q 244 638 274 700 q 214 486 214 575 q 244 334 214 396 q 325 233 274 272 q 447 178 376 194 q 599 161 517 161 l 750 161 q 940 191 847 161 q 1099 296 1032 221 l 1188 240 q 1099 153 1149 186 q 992 104 1049 121 q 873 82 935 88 q 750 76 811 76 l 599 76 q 410 98 497 76 q 260 169 324 119 q 162 296 197 218 q 126 486 126 374 q 162 676 126 599 q 260 803 197 754 q 410 874 324 853 q 599 896 497 896 l 750 896 q 873 890 811 896 q 992 868 935 885 q 1099 819 1049 851 q 1188 732 1149 786 l 1099 676 q 940 781 1032 751 q 750 811 847 811 l 599 811 m 750 733 q 933 697 850 733 q 1075 576 1017 660 l 1296 707 q 1190 840 1249 788 q 1063 922 1132 892 q 916 963 994 951 q 750 974 838 974 l 599 974 q 377 947 478 974 q 203 861 276 919 q 90 710 131 803 q 49 486 49 618 q 90 262 49 354 q 203 111 131 169 q 377 26 276 53 q 599 -1 478 -1 l 750 -1 q 916 10 838 -1 q 1063 51 994 21 q 1190 132 1132 81 q 1296 265 1249 183 l 1075 396 q 933 276 1017 313 q 750 239 850 239 l 599 239 q 481 251 536 239 q 383 292 425 264 q 317 368 342 321 q 292 486 292 415 q 317 603 292 556 q 384 679 342 650 q 482 721 426 708 q 599 733 538 733 l 750 733 m 257 -19 q 131 110 178 50 q 57 230 83 171 q 22 351 31 289 q 14 486 14 414 q 57 727 14 628 q 178 889 100 826 q 363 980 256 951 q 599 1008 471 1008 l 750 1008 q 902 1002 829 1008 q 1047 968 975 996 q 1194 885 1119 940 q 1356 731 1269 829 q 1386 694 1369 715 q 1418 650 1403 674 q 1449 602 1433 626 q 1476 557 1464 578 l 1206 397 l 1100 503 q 999 549 1051 535 q 889 564 946 564 l 738 564 q 632 553 682 564 q 544 517 582 542 q 483 450 506 492 q 461 347 461 408 q 467 292 461 314 q 529 278 496 282 q 599 274 563 274 l 750 274 q 923 313 842 274 q 1067 442 1004 351 l 1344 278 l 1476 138 q 1356 -17 1421 43 q 1218 -110 1292 -76 q 1063 -158 1144 -144 q 889 -171 981 -171 l 738 -171 q 598 -162 667 -171 q 466 -134 529 -153 q 349 -87 403 -115 q 257 -19 296 -58 z "},"C":{"ha":1638,"x_min":14,"x_max":1476,"o":"m 599 811 q 447 794 517 811 q 325 738 376 776 q 244 638 274 700 q 214 486 214 575 q 244 334 214 396 q 325 233 274 272 q 447 178 376 194 q 599 161 517 161 l 750 161 q 940 191 847 161 q 1099 296 1032 221 l 1188 240 q 1099 153 1149 186 q 992 104 1049 121 q 873 82 935 88 q 750 76 811 76 l 599 76 q 410 98 497 76 q 260 169 324 119 q 162 296 197 218 q 126 486 126 374 q 162 676 126 599 q 260 803 197 754 q 410 874 324 853 q 599 896 497 896 l 750 896 q 873 890 811 896 q 992 868 935 885 q 1099 819 1049 851 q 1188 732 1149 786 l 1099 676 q 940 781 1032 751 q 750 811 847 811 l 599 811 m 750 733 q 933 697 850 733 q 1075 576 1017 660 l 1296 707 q 1190 840 1249 788 q 1063 922 1132 892 q 916 963 994 951 q 750 974 838 974 l 599 974 q 377 947 478 974 q 203 861 276 919 q 90 710 131 803 q 49 486 49 618 q 90 262 49 354 q 203 111 131 169 q 377 26 276 53 q 599 -1 478 -1 l 750 -1 q 916 10 838 -1 q 1063 51 994 21 q 1190 132 1132 81 q 1296 265 1249 183 l 1075 396 q 933 276 1017 313 q 750 239 850 239 l 599 239 q 481 251 536 239 q 383 292 425 264 q 317 368 342 321 q 292 486 292 415 q 317 603 292 556 q 384 679 342 650 q 482 721 426 708 q 599 733 538 733 l 750 733 m 257 -19 q 131 110 178 50 q 57 230 83 171 q 22 351 31 289 q 14 486 14 414 q 57 727 14 628 q 178 889 100 826 q 363 980 256 951 q 599 1008 471 1008 l 750 1008 q 902 1002 829 1008 q 1047 968 975 996 q 1194 885 1119 940 q 1356 731 1269 829 q 1386 694 1369 715 q 1418 650 1403 674 q 1449 602 1433 626 q 1476 557 1464 578 l 1206 397 l 1100 503 q 999 549 1051 535 q 889 564 946 564 l 738 564 q 632 553 682 564 q 544 517 582 542 q 483 450 506 492 q 461 347 461 408 q 467 292 461 314 q 529 278 496 282 q 599 274 563 274 l 750 274 q 923 313 842 274 q 1067 442 1004 351 l 1344 278 l 1476 138 q 1356 -17 1421 43 q 1218 -110 1292 -76 q 1063 -158 1144 -144 q 889 -171 981 -171 l 738 -171 q 598 -162 667 -171 q 466 -134 529 -153 q 349 -87 403 -115 q 257 -19 296 -58 z "},"u":{"ha":1688,"x_min":18,"x_max":1472,"o":"m 218 896 l 218 486 q 247 334 218 396 q 328 234 276 272 q 450 178 381 196 q 601 161 519 161 l 754 161 q 905 178 835 161 q 1027 234 975 196 q 1109 334 1079 272 q 1139 486 1139 396 l 1139 896 l 1226 896 l 1226 486 q 1190 296 1226 374 q 1091 169 1154 218 q 942 98 1028 119 q 754 76 856 76 l 601 76 q 413 98 500 76 q 263 169 326 119 q 165 296 200 218 q 129 486 129 374 l 129 896 l 218 896 m 53 486 q 93 262 53 354 q 206 111 133 169 q 380 26 279 53 q 601 -1 481 -1 l 754 -1 q 976 26 875 -1 q 1149 111 1076 53 q 1263 262 1222 169 q 1303 486 1303 354 l 1303 974 l 1061 974 l 1061 486 q 1036 368 1061 415 q 969 292 1011 321 q 872 251 928 264 q 754 239 817 239 l 601 239 q 483 251 539 239 q 386 293 428 264 q 320 369 344 322 q 296 486 296 417 l 296 974 l 53 974 l 53 486 m 18 1008 l 331 1008 l 465 865 l 465 347 q 466 318 465 332 q 469 292 467 304 q 601 274 528 274 l 754 274 q 858 284 808 274 q 944 319 907 294 q 1004 385 982 344 q 1026 486 1026 425 l 1026 1008 l 1338 1008 l 1472 865 l 1472 347 q 1429 108 1472 207 q 1310 -52 1386 10 q 1126 -142 1233 -114 q 893 -171 1019 -171 l 740 -171 q 603 -164 669 -171 q 478 -141 538 -157 q 369 -99 419 -125 q 281 -33 319 -72 q 151 97 201 35 q 71 221 100 158 q 30 348 42 283 q 18 486 18 413 l 18 1008 z "},"L":{"ha":1418,"x_min":-1,"x_max":1224,"o":"m 110 896 l 193 896 l 193 161 l 978 161 l 978 76 l 110 76 l 110 896 m 33 -1 l 1054 -1 l 1054 239 l 271 239 l 271 974 l 33 974 l 33 -1 m -1 1008 l 306 1008 l 440 865 l 440 274 l 1089 274 l 1224 131 l 1224 -171 l 142 -171 l -1 -36 l -1 1008 z "},"š":{"ha":1706,"x_min":6,"x_max":1442,"o":"m 400 1269 l 476 1269 l 661 1153 l 844 1269 l 922 1269 q 807 1190 864 1229 q 692 1110 750 1150 l 631 1110 l 400 1269 m 1121 1318 l 804 1318 l 661 1221 l 517 1318 l 200 1318 l 610 1043 l 713 1043 l 1121 1318 m 254 267 q 353 201 299 224 q 465 170 407 179 q 585 160 524 161 q 703 160 646 160 q 759 161 724 160 q 835 167 794 163 q 918 181 876 172 q 994 206 960 190 q 1049 242 1028 221 q 1071 294 1071 264 q 1048 348 1071 325 q 989 388 1025 371 q 908 416 953 404 q 818 434 863 428 q 735 443 774 440 q 674 446 697 446 l 675 446 q 593 453 642 447 q 492 469 544 458 q 386 498 439 481 q 292 540 333 515 q 224 599 250 565 q 197 678 197 633 q 223 761 197 726 q 290 820 249 796 q 382 859 331 844 q 486 882 433 874 q 587 893 539 890 q 668 896 635 896 q 778 891 722 896 q 889 874 835 886 q 994 840 943 861 q 1089 785 1046 818 l 1015 732 q 931 776 975 760 q 839 800 886 792 q 743 810 792 808 q 649 813 694 813 q 562 808 617 813 q 453 791 507 804 q 361 751 400 778 q 322 678 322 724 q 360 606 322 633 q 458 563 397 579 q 598 538 519 547 q 758 519 676 529 q 919 497 840 510 q 1058 459 997 483 q 1157 395 1119 435 q 1194 294 1194 356 q 1169 218 1194 251 q 1101 160 1143 185 q 1008 120 1060 136 q 903 94 956 104 q 804 81 851 85 q 726 76 757 76 l 622 76 q 503 81 565 76 q 381 99 440 85 q 267 140 321 114 q 171 213 213 167 l 254 267 m 56 242 q 188 102 111 151 q 353 30 264 53 q 537 3 442 7 q 726 -1 632 -1 q 825 5 768 -1 q 943 25 882 11 q 1063 62 1004 39 q 1169 117 1122 85 q 1244 194 1215 150 q 1272 294 1272 238 q 1242 410 1272 363 q 1165 491 1213 458 q 1055 544 1117 524 q 928 575 993 564 q 800 592 863 586 q 689 601 738 597 q 625 608 672 603 q 528 622 578 613 q 439 644 478 631 q 400 678 400 658 q 436 711 400 700 q 519 728 472 722 q 609 734 565 733 q 668 735 653 735 q 758 731 713 735 q 848 717 804 728 q 931 685 892 706 q 1004 631 971 664 l 1207 767 q 1088 880 1154 839 q 946 942 1021 921 q 790 968 871 963 q 626 974 708 974 q 528 967 583 974 q 417 947 474 961 q 308 911 361 933 q 213 856 254 889 q 146 778 171 822 q 121 678 121 735 q 153 565 121 613 q 238 485 185 518 q 357 431 290 451 q 492 397 424 410 q 626 376 561 383 q 739 363 690 368 q 794 357 753 361 q 879 345 835 353 q 958 325 924 338 q 993 294 993 313 q 971 269 993 279 q 914 252 949 258 q 838 243 879 246 q 756 239 796 240 q 685 238 717 238 q 642 238 654 238 q 538 242 589 238 q 438 262 486 247 q 346 303 389 276 q 268 374 303 329 l 56 242 m 1211 501 q 1227 490 1218 494 q 1253 471 1236 485 q 1297 431 1269 457 q 1369 358 1324 406 q 1422 269 1403 324 q 1442 156 1442 215 q 1411 44 1442 93 q 1332 -40 1381 -4 q 1221 -101 1283 -76 q 1094 -142 1158 -126 q 970 -164 1031 -157 q 865 -171 910 -171 q 698 -169 783 -171 q 530 -154 613 -168 q 370 -107 447 -140 q 229 -8 293 -74 q 139 78 175 42 q 78 146 103 115 q 38 202 54 176 q 6 253 21 228 l 257 408 l 190 476 q 114 562 142 513 q 86 678 86 611 q 133 824 86 761 q 251 927 181 886 q 406 988 322 968 q 565 1004 490 1007 l 60 1353 l 526 1353 l 661 1263 q 728 1308 693 1285 q 794 1353 763 1331 l 1232 1353 l 1358 1210 l 988 960 q 1103 909 1047 944 q 1208 826 1158 874 q 1303 726 1258 779 q 1389 621 1349 672 l 1211 501 z "},"ﬁ":{"ha":1642,"x_min":1,"x_max":1460,"o":"m 1214 896 l 1214 76 l 1131 76 l 1131 811 l 200 811 l 200 528 l 907 528 l 907 444 l 200 444 l 200 76 l 114 76 l 114 896 l 1214 896 m 276 733 l 1054 733 l 1054 -1 l 1290 -1 l 1290 974 l 36 974 l 36 -1 l 276 -1 l 276 368 l 983 368 l 983 604 l 276 604 l 276 733 m 1 -36 l 1 1008 l 1325 1008 l 1460 865 l 1460 -171 l 1163 -171 l 1019 -36 l 1019 199 l 446 199 l 446 -171 l 144 -171 l 1 -36 z "},"ﬂ":{"ha":1647,"x_min":1,"x_max":1460,"o":"m 1214 896 l 1214 76 l 1131 76 l 1131 811 l 200 811 l 200 528 l 907 528 l 907 444 l 200 444 l 200 76 l 114 76 l 114 896 l 1214 896 m 276 733 l 1054 733 l 1054 -1 l 1290 -1 l 1290 974 l 36 974 l 36 -1 l 276 -1 l 276 368 l 983 368 l 983 604 l 276 604 l 276 733 m 1 -36 l 1 1008 l 1325 1008 l 1460 865 l 1460 -171 l 1163 -171 l 1019 -36 l 1019 199 l 446 199 l 446 -171 l 144 -171 l 1 -36 z "},"Ł":{"ha":1799,"x_min":-125,"x_max":1544,"o":"m 514 168 l 1299 168 l 1299 83 l 431 83 l 431 278 l 242 74 l 128 74 l 431 403 l 431 903 l 514 903 l 514 485 l 707 693 l 821 693 q 667 526 743 610 q 514 360 590 443 l 514 168 m 354 79 l 354 6 l 1375 6 l 1375 246 l 592 246 l 592 336 l 994 771 l 672 771 l 592 683 l 592 981 l 354 981 l 354 428 l -46 -4 l 276 -4 l 354 79 m 849 281 l 1410 281 l 1544 138 l 1544 -164 l 463 -164 l 450 -151 l 429 -174 l 24 -174 l -125 -39 l 319 442 l 319 1015 l 626 1015 l 761 872 l 761 806 l 1074 806 l 1203 663 l 849 281 z "},"ł":{"ha":1749,"x_min":-125,"x_max":1544,"o":"m 514 168 l 1299 168 l 1299 83 l 431 83 l 431 278 l 242 74 l 128 74 l 431 403 l 431 903 l 514 903 l 514 485 l 707 693 l 821 693 q 667 526 743 610 q 514 360 590 443 l 514 168 m 354 79 l 354 6 l 1375 6 l 1375 246 l 592 246 l 592 336 l 994 771 l 672 771 l 592 683 l 592 981 l 354 981 l 354 428 l -46 -4 l 276 -4 l 354 79 m 849 281 l 1410 281 l 1544 138 l 1544 -164 l 463 -164 l 450 -151 l 429 -174 l 24 -174 l -125 -39 l 319 442 l 319 1015 l 626 1015 l 761 872 l 761 806 l 1074 806 l 1203 663 l 849 281 z "},"Ž":{"ha":1517,"x_min":-3,"x_max":1268,"o":"m 310 1269 l 386 1269 l 571 1153 l 754 1269 l 832 1269 q 717 1190 774 1229 q 601 1110 660 1150 l 540 1110 l 310 1269 m 1031 1318 l 714 1318 l 571 1221 l 426 1318 l 110 1318 l 519 1043 l 622 1043 l 1031 1318 m 975 896 l 975 826 l 260 161 l 1019 161 l 1019 76 l 113 76 l 113 146 l 831 811 l 156 811 l 156 896 l 975 896 m 638 733 l 36 179 l 36 -1 l 1096 -1 l 1096 239 l 454 239 l 1053 792 l 1053 974 l 78 974 l 78 733 l 638 733 m 1 -36 l 1 194 l 401 564 l 186 564 l 43 699 l 43 1008 l 472 1008 l -3 1353 l 436 1353 l 571 1263 q 638 1308 603 1285 q 704 1353 672 1331 l 1142 1353 l 1268 1210 l 968 1008 l 1088 1008 l 1222 865 l 1222 639 l 825 274 l 1131 274 l 1265 131 l 1265 -171 l 144 -171 l 1 -36 z "},"{":{"ha":692,"x_min":-49,"x_max":599,"o":"m 63 524 q 101 631 101 567 q 92 715 101 674 q 83 799 83 756 q 272 985 83 985 l 351 985 l 351 903 q 285 903 318 903 q 228 894 253 903 q 187 863 203 885 q 171 797 171 840 q 186 693 171 744 q 201 590 201 642 q 190 538 201 563 q 164 490 179 513 q 190 441 178 467 q 201 388 201 415 q 186 283 201 335 q 171 179 171 232 q 187 115 171 136 q 228 84 203 93 q 286 75 254 75 q 351 75 318 75 l 351 -8 l 272 -8 q 83 178 83 -8 q 93 264 83 222 q 103 350 103 306 q 93 406 103 379 q 63 453 83 432 l 63 524 m -14 407 q -1 400 -10 404 q 15 390 7 396 q 28 378 22 385 q 33 367 33 372 q 19 276 33 326 q 6 178 6 226 q 73 -18 6 47 q 272 -83 140 -83 l 429 -83 l 429 151 q 387 149 417 151 q 326 148 357 147 q 270 155 294 149 q 246 179 246 161 q 251 231 246 206 q 262 283 256 257 q 274 335 268 310 q 279 388 279 361 q 272 439 279 414 q 254 488 265 464 q 274 537 268 511 q 279 590 279 563 q 274 642 279 617 q 262 694 268 668 q 251 745 256 719 q 246 797 246 771 q 270 822 246 815 q 326 828 294 828 q 387 827 357 829 q 429 825 417 825 l 429 1060 l 272 1060 q 6 799 6 1060 q 17 718 6 758 q 29 638 29 678 q 20 594 29 614 q -14 568 11 575 l -14 407 m -49 593 q -15 612 -24 600 q -6 638 -6 624 q -8 664 -6 649 q -15 697 -11 679 l -18 710 q -26 751 -22 729 q -29 799 -29 772 q 272 1094 -29 1094 l 464 1094 l 599 951 l 599 656 q 565 656 583 656 q 539 657 547 656 q 510 659 525 658 q 478 660 494 660 q 435 660 454 660 q 415 658 415 660 q 419 608 415 632 q 431 561 424 585 q 443 506 438 533 q 449 451 449 479 q 442 399 449 426 q 426 349 436 372 q 442 299 436 324 q 449 249 449 275 q 442 186 449 221 l 464 186 l 599 43 l 599 -253 l 411 -253 q 272 -235 336 -253 q 171 -181 208 -218 q 65 -76 104 -122 q 4 13 25 -29 q -23 94 -17 54 q -29 178 -29 133 q -25 228 -29 206 q -17 272 -21 250 q -14 288 -14 281 q -7 318 -10 303 q -1 346 -4 333 l -32 376 l -49 386 l -49 593 z "},"}":{"ha":692,"x_min":-49,"x_max":599,"o":"m 353 453 q 322 406 331 433 q 313 350 313 379 q 322 264 313 306 q 332 178 332 222 q 143 -8 332 -8 l 64 -8 l 64 75 q 129 75 97 75 q 187 84 161 75 q 228 115 213 93 q 244 179 244 136 q 229 283 244 232 q 214 388 214 335 q 226 441 214 415 q 251 490 238 467 q 225 538 236 513 q 214 590 214 563 q 229 693 214 642 q 244 797 244 744 q 228 863 244 840 q 188 894 213 885 q 130 903 163 903 q 64 903 97 903 l 64 985 l 143 985 q 332 799 332 985 q 323 715 332 756 q 314 631 314 674 q 323 573 314 600 q 353 524 332 546 l 353 453 m 429 568 q 395 594 404 575 q 386 638 386 614 q 398 718 386 678 q 410 799 410 758 q 143 1060 410 1060 l -14 1060 l -14 825 q 28 827 -1 825 q 90 828 58 829 q 145 822 121 828 q 169 797 169 815 q 164 745 169 771 q 152 694 158 719 q 141 642 146 668 q 136 590 136 617 q 142 537 136 563 q 161 488 147 511 q 143 439 150 464 q 136 388 136 414 q 141 335 136 361 q 152 283 146 310 q 164 231 158 257 q 169 179 169 206 q 145 155 169 161 q 90 148 121 149 q 28 149 58 147 q -14 151 -1 151 l -14 -83 l 143 -83 q 342 -18 275 -83 q 410 178 410 47 q 396 276 410 226 q 382 368 382 325 q 388 378 382 372 q 401 390 393 385 q 417 400 410 396 q 429 407 425 404 l 429 568 m -49 790 l -49 1094 l 143 1094 q 228 1090 188 1094 q 310 1065 268 1085 q 399 1006 351 1044 q 506 899 446 967 q 560 798 542 863 q 579 660 579 733 q 575 612 579 632 q 567 572 571 592 q 559 533 563 553 q 556 499 556 514 l 556 494 l 599 451 l 599 249 q 587 242 594 246 q 571 235 579 239 q 557 230 563 232 q 551 229 551 228 q 555 186 551 207 q 564 144 558 165 q 574 90 569 117 q 579 39 579 63 q 504 -181 579 -108 q 282 -253 429 -253 l 94 -253 l -49 -118 l -49 186 q -13 186 -33 186 q 14 185 7 186 q 43 183 28 183 q 76 182 58 182 q 115 182 97 182 q 135 179 132 182 q 131 220 135 200 q 122 261 126 240 l 119 275 q 107 331 113 303 q 101 388 101 358 q 107 439 101 414 q 122 488 113 464 q 107 538 113 511 q 101 590 101 565 q 103 623 101 607 q 108 656 106 639 l 94 656 l -49 790 z "},"A":{"ha":1757,"x_min":-53,"x_max":1733,"o":"m 1076 378 l 783 793 l 483 378 l 1076 378 m 926 453 l 632 453 l 781 661 l 926 453 m 1283 76 l 1133 292 l 424 292 q 348 184 385 239 q 272 76 311 129 l 161 76 q 455 486 308 283 q 747 896 601 689 l 814 896 l 1388 76 l 1283 76 m 710 974 l 15 -1 l 310 -1 l 463 214 l 1090 214 l 1242 -1 l 1536 -1 l 856 974 l 710 974 m 1011 865 l 1733 -171 l 1364 -171 l 1224 -36 l 1167 44 l 618 44 q 581 -8 601 19 q 541 -65 561 -36 q 501 -120 521 -93 q 465 -171 482 -147 l 94 -171 l -53 -36 l 692 1008 l 874 1008 l 1011 865 z "},"“":{"ha":931,"x_min":33,"x_max":919,"o":"m 251 925 l 233 876 l 233 749 l 144 749 l 144 853 l 206 925 l 251 925 m 171 1003 l 68 883 l 68 671 l 310 671 l 310 860 l 369 1003 l 171 1003 m 621 925 l 600 876 l 600 749 l 511 749 l 511 853 l 572 925 l 621 925 m 538 1003 l 435 883 l 435 671 l 676 671 l 676 860 l 736 1003 l 538 1003 m 788 1038 l 919 894 l 846 717 l 846 501 l 543 501 l 479 565 l 479 501 l 176 501 l 33 636 l 33 896 l 156 1038 l 421 1038 l 469 976 l 522 1038 l 788 1038 z "},"Ç":{"ha":1697,"x_min":14,"x_max":1476,"o":"m 744 -75 q 794 -78 769 -75 q 840 -92 819 -82 q 874 -120 861 -101 q 888 -169 888 -139 q 858 -241 888 -217 q 788 -276 829 -265 q 702 -289 747 -287 q 625 -290 657 -290 l 625 -235 q 674 -235 642 -235 q 738 -230 706 -235 q 793 -212 769 -225 q 817 -176 817 -200 q 794 -144 817 -154 q 741 -133 771 -135 q 681 -132 711 -131 q 635 -133 650 -133 l 635 75 q 438 97 531 79 q 276 159 344 114 q 167 283 207 204 q 126 486 126 361 q 162 676 126 599 q 260 803 197 754 q 410 874 324 853 q 599 896 497 896 l 750 896 q 873 890 811 896 q 992 868 935 885 q 1099 819 1049 851 q 1188 732 1149 786 q 1142 706 1164 719 q 1099 676 1121 692 q 940 781 1032 751 q 750 811 847 811 l 599 811 q 447 794 517 811 q 325 738 376 776 q 244 638 274 700 q 214 486 214 575 q 244 334 214 396 q 325 233 274 272 q 447 178 376 194 q 599 161 517 161 l 750 161 q 940 191 847 161 q 1099 296 1032 221 l 1188 240 q 1089 147 1144 181 q 970 99 1033 114 q 840 80 907 83 q 706 76 772 76 l 706 -76 l 744 -75 m 565 -357 q 643 -357 600 -357 q 729 -353 686 -357 q 813 -338 772 -349 q 884 -307 853 -328 q 934 -253 915 -286 q 953 -169 953 -219 q 916 -54 953 -99 q 808 0 879 -10 q 1090 64 965 3 q 1296 265 1214 125 l 1075 396 q 933 276 1017 313 q 750 239 850 239 l 599 239 q 481 251 536 239 q 383 292 425 264 q 317 368 342 321 q 292 486 292 415 q 317 603 292 556 q 384 679 342 650 q 482 721 426 708 q 599 733 538 733 l 750 733 q 933 697 850 733 q 1075 576 1017 660 l 1296 707 q 1190 840 1249 788 q 1063 922 1132 892 q 916 963 994 951 q 750 974 838 974 l 599 974 q 377 947 478 974 q 203 861 276 919 q 90 710 131 803 q 49 486 49 618 q 85 271 49 361 q 190 121 122 181 q 353 32 258 61 q 565 0 449 3 l 565 -357 m 531 -149 q 456 -127 493 -140 q 383 -97 418 -114 q 317 -60 349 -81 q 264 -17 286 -40 q 137 109 186 50 q 60 227 88 168 q 24 349 33 286 q 14 486 14 413 q 57 727 14 628 q 178 889 100 826 q 363 980 256 951 q 599 1008 471 1008 l 750 1008 q 903 1001 829 1008 q 1052 964 978 993 q 1203 878 1126 935 q 1367 722 1281 821 q 1424 647 1396 693 q 1476 557 1451 600 l 1206 397 l 1100 503 q 999 549 1051 535 q 889 564 946 564 l 738 564 q 632 553 682 564 q 544 517 582 542 q 483 450 506 492 q 461 347 461 408 q 467 292 461 314 q 529 278 496 282 q 599 274 563 274 l 750 274 q 923 313 842 274 q 1067 442 1004 351 l 1344 278 l 1476 138 q 1294 -68 1397 3 q 1068 -160 1192 -139 l 1071 -162 q 1122 -308 1122 -214 q 1083 -435 1122 -390 q 983 -499 1043 -479 q 855 -523 924 -519 q 728 -526 786 -526 l 674 -526 l 531 -392 l 531 -149 z "},"ž":{"ha":1517,"x_min":-3,"x_max":1268,"o":"m 310 1269 l 386 1269 l 571 1153 l 754 1269 l 832 1269 q 717 1190 774 1229 q 601 1110 660 1150 l 540 1110 l 310 1269 m 1031 1318 l 714 1318 l 571 1221 l 426 1318 l 110 1318 l 519 1043 l 622 1043 l 1031 1318 m 975 896 l 975 826 l 260 161 l 1019 161 l 1019 76 l 113 76 l 113 146 l 831 811 l 156 811 l 156 896 l 975 896 m 638 733 l 36 179 l 36 -1 l 1096 -1 l 1096 239 l 454 239 l 1053 792 l 1053 974 l 78 974 l 78 733 l 638 733 m 1 -36 l 1 194 l 401 564 l 186 564 l 43 699 l 43 1008 l 472 1008 l -3 1353 l 436 1353 l 571 1263 q 638 1308 603 1285 q 704 1353 672 1331 l 1142 1353 l 1268 1210 l 968 1008 l 1088 1008 l 1222 865 l 1222 639 l 825 274 l 1131 274 l 1265 131 l 1265 -171 l 144 -171 l 1 -36 z "},">":{"ha":919,"x_min":-110,"x_max":847,"o":"m 571 488 q 403 282 488 383 q 235 76 319 181 l 128 76 q 294 281 213 178 q 460 486 376 383 q 293 690 375 589 q 128 896 211 792 l 235 896 l 571 488 m -36 974 q 162 730 64 851 q 360 486 260 608 l -37 -1 l 272 -1 l 669 488 l 272 974 l -36 974 m 425 865 l 847 349 l 426 -171 l 38 -171 l -110 -36 l 315 486 q 58 803 164 672 q -110 1008 -47 933 l 288 1008 l 425 865 z "},"»":{"ha":1189,"x_min":-93,"x_max":1163,"o":"m 499 486 l 249 185 l 142 185 l 388 488 l 142 788 l 249 788 l 499 486 m 288 863 l -19 863 l 289 489 l -19 110 l 288 110 l 596 486 l 288 863 m 885 486 l 638 185 l 528 185 l 776 488 l 528 788 l 638 788 l 885 486 m 674 863 l 368 863 l 675 489 l 368 110 l 674 110 l 983 486 l 674 863 m 1163 347 l 826 -60 l 56 -60 l -92 75 l 244 489 l -93 897 l 703 897 l 1163 347 z "},"â":{"ha":1799,"x_min":-53,"x_max":1733,"o":"m 821 1251 q 936 1172 879 1211 q 1051 1092 993 1132 l 974 1092 l 790 1208 l 606 1092 l 529 1092 l 760 1251 l 821 1251 m 329 1043 l 646 1043 l 790 1140 l 933 1043 l 1250 1043 l 842 1318 l 739 1318 l 329 1043 m 1076 378 l 783 793 l 483 378 l 1076 378 m 926 453 l 632 453 l 781 661 l 926 453 m 1283 76 l 1133 292 l 424 292 q 348 184 385 239 q 272 76 311 129 l 161 76 q 455 486 308 283 q 747 896 601 689 l 814 896 l 1388 76 l 1283 76 m 710 974 l 15 -1 l 310 -1 l 463 214 l 1090 214 l 1242 -1 l 1536 -1 l 856 974 l 710 974 m 851 1353 l 1361 1008 l 1488 874 l 1064 874 l 1006 874 l 1733 -171 l 1364 -171 l 1224 -36 l 1167 44 l 618 44 q 581 -8 601 19 q 541 -65 561 -36 q 501 -120 521 -93 q 465 -171 482 -147 l 94 -171 l -53 -36 l 596 874 l 369 874 l 217 1008 l 729 1353 l 851 1353 z "},"ã":{"ha":1799,"x_min":-53,"x_max":1733,"o":"m 1093 1217 q 1056 1178 1078 1200 q 1010 1137 1035 1156 q 958 1105 985 1118 q 908 1092 932 1092 q 833 1108 864 1092 q 777 1144 803 1124 q 728 1180 751 1164 q 675 1196 704 1196 q 624 1174 644 1196 q 588 1131 603 1153 l 492 1131 q 529 1168 507 1147 q 576 1208 551 1189 q 628 1240 601 1226 q 678 1253 654 1253 q 756 1237 725 1253 q 810 1202 786 1221 q 856 1168 833 1183 q 911 1153 879 1153 q 962 1174 940 1153 q 999 1217 983 1194 l 1093 1217 m 972 1293 q 964 1276 969 1286 q 950 1255 958 1265 q 932 1237 942 1244 q 911 1229 922 1229 q 866 1244 890 1229 q 813 1278 842 1260 q 750 1313 783 1297 q 678 1329 717 1329 q 582 1301 629 1329 q 494 1231 535 1272 q 420 1141 453 1189 q 367 1054 388 1093 l 635 1054 q 656 1090 642 1069 q 690 1110 671 1110 q 718 1097 701 1110 q 760 1067 735 1083 q 822 1038 786 1051 q 908 1025 858 1025 q 1003 1052 957 1025 q 1091 1119 1050 1079 q 1165 1206 1132 1160 q 1219 1293 1199 1253 l 975 1293 l 972 1293 m 1076 378 l 783 793 l 483 378 l 1076 378 m 926 453 l 632 453 l 781 661 l 926 453 m 1283 76 l 1133 292 l 424 292 q 348 184 385 239 q 272 76 311 129 l 161 76 q 455 486 308 283 q 747 896 601 689 l 814 896 l 1388 76 l 1283 76 m 710 974 l 15 -1 l 310 -1 l 463 214 l 1090 214 l 1242 -1 l 1536 -1 l 856 974 l 710 974 m 1276 1328 l 1408 1185 q 1342 1076 1382 1136 q 1251 964 1301 1015 q 1140 881 1200 913 q 1017 857 1081 849 l 1733 -171 l 1364 -171 l 1224 -36 l 1167 44 l 618 44 q 581 -8 601 19 q 541 -65 561 -36 q 501 -120 521 -93 q 465 -171 482 -147 l 94 -171 l -53 -36 l 603 885 l 456 885 l 310 1019 q 375 1129 335 1069 q 464 1241 415 1189 q 567 1328 513 1293 q 678 1364 622 1364 q 772 1342 729 1364 q 850 1296 814 1319 q 881 1275 869 1283 q 904 1267 893 1267 q 918 1278 911 1268 q 931 1299 925 1288 q 943 1328 936 1313 l 1276 1328 z "},"ä":{"ha":1799,"x_min":-53,"x_max":1733,"o":"m 913 1199 l 1000 1199 l 1000 1119 l 913 1119 l 913 1199 m 1078 1275 l 835 1275 l 835 1043 l 1078 1043 l 1078 1275 m 576 1199 l 664 1199 l 664 1119 l 576 1119 l 576 1199 m 740 1275 l 499 1275 l 499 1043 l 740 1043 l 740 1275 m 1076 378 l 783 793 l 483 378 l 1076 378 m 926 453 l 632 453 l 781 661 l 926 453 m 1283 76 l 1133 292 l 424 292 q 348 184 385 239 q 272 76 311 129 l 161 76 q 455 486 308 283 q 747 896 601 689 l 814 896 l 1388 76 l 1283 76 m 710 974 l 15 -1 l 310 -1 l 463 214 l 1090 214 l 1242 -1 l 1536 -1 l 856 974 l 710 974 m -53 -36 l 600 881 l 464 1008 l 464 1310 l 775 1310 l 800 1276 l 800 1310 l 1113 1310 l 1247 1167 l 1247 874 l 1003 874 l 1011 865 l 1733 -171 l 1364 -171 l 1224 -36 l 1167 44 l 618 44 q 581 -8 601 19 q 541 -65 561 -36 q 501 -120 521 -93 q 465 -171 482 -147 l 94 -171 l -53 -36 z "},"å":{"ha":1799,"x_min":-53,"x_max":1733,"o":"m 711 1182 q 775 1119 711 1119 q 824 1133 807 1119 q 842 1182 842 1147 q 824 1231 842 1217 q 775 1244 807 1244 q 711 1182 711 1244 m 665 1183 q 695 1261 665 1236 q 775 1286 725 1286 q 858 1263 826 1286 q 890 1183 890 1239 q 860 1105 890 1128 q 779 1082 831 1082 q 697 1104 728 1082 q 665 1183 665 1126 m 588 1183 q 637 1047 588 1088 q 775 1007 686 1007 q 916 1046 864 1007 q 968 1183 968 1085 q 917 1319 968 1276 q 779 1361 867 1361 q 640 1320 692 1361 q 588 1183 588 1279 m 1076 378 l 783 793 l 483 378 l 1076 378 m 926 453 l 632 453 l 781 661 l 926 453 m 1283 76 l 1133 292 l 424 292 q 348 184 385 239 q 272 76 311 129 l 161 76 q 455 486 308 283 q 747 896 601 689 l 814 896 l 1388 76 l 1283 76 m 710 974 l 15 -1 l 310 -1 l 463 214 l 1090 214 l 1242 -1 l 1536 -1 l 856 974 l 710 974 m 553 1183 q 614 1347 553 1297 q 779 1396 675 1396 q 842 1393 813 1396 q 904 1374 871 1390 q 978 1322 938 1357 q 1076 1222 1019 1286 q 1119 1147 1101 1197 q 1138 1044 1138 1096 q 1107 917 1138 963 q 1019 851 1076 871 l 1733 -171 l 1364 -171 l 1224 -36 l 1167 44 l 618 44 q 581 -8 601 19 q 541 -65 561 -36 q 501 -120 521 -93 q 465 -171 482 -147 l 94 -171 l -53 -36 l 665 971 l 636 1001 q 574 1069 596 1025 q 553 1183 553 1114 z "},"æ":{"ha":2007,"x_min":-97,"x_max":1757,"o":"m 704 750 l 438 378 l 704 378 l 704 750 m 628 515 l 628 453 l 585 453 l 628 515 m 1367 528 l 1367 444 l 790 444 l 790 161 l 1510 161 l 1510 76 l 704 76 l 704 292 l 379 292 q 303 183 340 238 q 225 76 265 129 l 118 76 q 410 486 264 283 q 701 896 556 689 l 1510 896 l 1510 811 l 790 811 l 790 528 l 1367 528 m 1588 733 l 1588 974 l 665 974 l -29 -1 l 264 -1 l 414 214 l 628 214 l 628 -1 l 1588 -1 l 1588 239 l 867 239 l 867 368 l 1443 368 l 1443 604 l 867 604 l 867 733 l 1588 733 m -97 -36 l 647 1008 l 1622 1008 l 1757 865 l 1757 564 l 1544 564 l 1613 496 l 1613 274 l 1622 274 l 1757 131 l 1757 -171 l 736 -171 l 593 -36 l 593 44 l 568 44 l 419 -171 l 50 -171 l -97 -36 z "},"ç":{"ha":1661,"x_min":14,"x_max":1476,"o":"m 744 -75 q 794 -78 769 -75 q 840 -92 819 -82 q 874 -120 861 -101 q 888 -169 888 -139 q 858 -241 888 -217 q 788 -276 829 -265 q 702 -289 747 -287 q 625 -290 657 -290 l 625 -235 q 674 -235 642 -235 q 738 -230 706 -235 q 793 -212 769 -225 q 817 -176 817 -200 q 794 -144 817 -154 q 741 -133 771 -135 q 681 -132 711 -131 q 635 -133 650 -133 l 635 75 q 438 97 531 79 q 276 159 344 114 q 167 283 207 204 q 126 486 126 361 q 162 676 126 599 q 260 803 197 754 q 410 874 324 853 q 599 896 497 896 l 750 896 q 873 890 811 896 q 992 868 935 885 q 1099 819 1049 851 q 1188 732 1149 786 q 1142 706 1164 719 q 1099 676 1121 692 q 940 781 1032 751 q 750 811 847 811 l 599 811 q 447 794 517 811 q 325 738 376 776 q 244 638 274 700 q 214 486 214 575 q 244 334 214 396 q 325 233 274 272 q 447 178 376 194 q 599 161 517 161 l 750 161 q 940 191 847 161 q 1099 296 1032 221 l 1188 240 q 1089 147 1144 181 q 970 99 1033 114 q 840 80 907 83 q 706 76 772 76 l 706 -76 l 744 -75 m 565 -357 q 643 -357 600 -357 q 729 -353 686 -357 q 813 -338 772 -349 q 884 -307 853 -328 q 934 -253 915 -286 q 953 -169 953 -219 q 916 -54 953 -99 q 808 0 879 -10 q 1090 64 965 3 q 1296 265 1214 125 l 1075 396 q 933 276 1017 313 q 750 239 850 239 l 599 239 q 481 251 536 239 q 383 292 425 264 q 317 368 342 321 q 292 486 292 415 q 317 603 292 556 q 384 679 342 650 q 482 721 426 708 q 599 733 538 733 l 750 733 q 933 697 850 733 q 1075 576 1017 660 l 1296 707 q 1190 840 1249 788 q 1063 922 1132 892 q 916 963 994 951 q 750 974 838 974 l 599 974 q 377 947 478 974 q 203 861 276 919 q 90 710 131 803 q 49 486 49 618 q 85 271 49 361 q 190 121 122 181 q 353 32 258 61 q 565 0 449 3 l 565 -357 m 531 -149 q 456 -127 493 -140 q 383 -97 418 -114 q 317 -60 349 -81 q 264 -17 286 -40 q 137 109 186 50 q 60 227 88 168 q 24 349 33 286 q 14 486 14 413 q 57 727 14 628 q 178 889 100 826 q 363 980 256 951 q 599 1008 471 1008 l 750 1008 q 903 1001 829 1008 q 1052 964 978 993 q 1203 878 1126 935 q 1367 722 1281 821 q 1424 647 1396 693 q 1476 557 1451 600 l 1206 397 l 1100 503 q 999 549 1051 535 q 889 564 946 564 l 738 564 q 632 553 682 564 q 544 517 582 542 q 483 450 506 492 q 461 347 461 408 q 467 292 461 314 q 529 278 496 282 q 599 274 563 274 l 750 274 q 923 313 842 274 q 1067 442 1004 351 l 1344 278 l 1476 138 q 1294 -68 1397 3 q 1068 -160 1192 -139 l 1071 -162 q 1122 -308 1122 -214 q 1083 -435 1122 -390 q 983 -499 1043 -479 q 855 -523 924 -519 q 728 -526 786 -526 l 674 -526 l 531 -392 l 531 -149 z "},"è":{"ha":1529,"x_min":1,"x_max":1299,"o":"m 707 1090 l 611 1090 q 523 1156 567 1122 q 435 1221 479 1189 l 532 1221 l 707 1090 m 588 1040 l 869 1040 l 569 1271 l 281 1271 l 588 1040 m 907 528 l 907 444 l 200 444 l 200 161 l 1051 161 l 1051 76 l 114 76 l 114 896 l 1050 896 l 1050 811 l 200 811 l 200 528 l 907 528 m 1128 733 l 1128 974 l 36 974 l 36 -1 l 1129 -1 l 1129 239 l 276 239 l 276 368 l 983 368 l 983 604 l 276 604 l 276 733 l 1128 733 m 579 1306 l 965 1008 l 1163 1008 l 1297 865 l 1297 564 l 1085 564 l 1153 496 l 1153 274 l 1164 274 l 1299 131 l 1299 -171 l 144 -171 l 1 -36 l 1 1008 l 535 1008 l 157 1306 l 579 1306 z "},"é":{"ha":1529,"x_min":1,"x_max":1299,"o":"m 739 1221 q 651 1156 694 1189 q 563 1090 607 1122 l 467 1090 l 642 1221 l 739 1221 m 304 1040 l 586 1040 l 893 1271 l 604 1271 l 304 1040 m 907 528 l 907 444 l 200 444 l 200 161 l 1051 161 l 1051 76 l 114 76 l 114 896 l 1050 896 l 1050 811 l 200 811 l 200 528 l 907 528 m 1128 733 l 1128 974 l 36 974 l 36 -1 l 1129 -1 l 1129 239 l 276 239 l 276 368 l 983 368 l 983 604 l 276 604 l 276 733 l 1128 733 m 997 1306 l 1124 1163 l 918 1008 l 1163 1008 l 1297 865 l 1297 564 l 1085 564 l 1153 496 l 1153 274 l 1164 274 l 1299 131 l 1299 -171 l 144 -171 l 1 -36 l 1 1008 l 206 1008 l 594 1306 l 997 1306 z "},"ê":{"ha":1529,"x_min":1,"x_max":1299,"o":"m 624 1251 q 739 1172 682 1211 q 854 1092 796 1132 l 776 1092 l 593 1208 l 408 1092 l 332 1092 l 563 1251 l 624 1251 m 132 1043 l 449 1043 l 593 1140 l 736 1043 l 1053 1043 l 644 1318 l 542 1318 l 132 1043 m 907 528 l 907 444 l 200 444 l 200 161 l 1051 161 l 1051 76 l 114 76 l 114 896 l 1050 896 l 1050 811 l 200 811 l 200 528 l 907 528 m 1128 733 l 1128 974 l 36 974 l 36 -1 l 1129 -1 l 1129 239 l 276 239 l 276 368 l 983 368 l 983 604 l 276 604 l 276 733 l 1128 733 m 654 1353 l 1164 1008 l 1297 865 l 1297 564 l 1085 564 l 1153 496 l 1153 274 l 1164 274 l 1299 131 l 1299 -171 l 144 -171 l 1 -36 l 1 1008 l 532 1353 l 654 1353 z "},"ë":{"ha":1529,"x_min":1,"x_max":1299,"o":"m 722 1119 l 722 1199 l 810 1199 l 810 1119 l 722 1119 m 888 1043 l 888 1275 l 644 1275 l 644 1043 l 888 1043 m 386 1119 l 386 1199 l 474 1199 l 474 1119 l 386 1119 m 550 1043 l 550 1275 l 308 1275 l 308 1043 l 550 1043 m 200 528 l 907 528 l 907 444 l 200 444 l 200 161 l 1051 161 l 1051 76 l 114 76 l 114 896 l 1050 896 l 1050 811 l 200 811 l 200 528 m 276 733 l 1128 733 l 1128 974 l 36 974 l 36 -1 l 1129 -1 l 1129 239 l 276 239 l 276 368 l 983 368 l 983 604 l 276 604 l 276 733 m 1057 1008 l 1163 1008 l 1297 865 l 1297 564 l 1085 564 l 1153 496 l 1153 274 l 1164 274 l 1299 131 l 1299 -171 l 144 -171 l 1 -36 l 1 1008 l 274 1008 l 274 1310 l 585 1310 l 610 1276 l 610 1310 l 922 1310 l 1057 1167 l 1057 1008 z "},"ì":{"ha":636,"x_min":-258,"x_max":663,"o":"m 272 1090 l 176 1090 q 88 1156 132 1122 q 0 1221 44 1189 l 97 1221 l 272 1090 m 153 1040 l 435 1040 l 135 1271 l -154 1271 l 153 1040 m 103 896 l 186 896 l 186 76 l 103 76 l 103 896 m 263 974 l 26 974 l 26 -1 l 263 -1 l 263 974 m -258 1306 l 144 1306 l 535 1006 l 663 871 l 426 871 l 432 865 l 432 -171 l 135 -171 l -8 -36 l -8 1008 l 111 1008 l -258 1306 z "},"í":{"ha":636,"x_min":-258,"x_max":663,"o":"m 278 1221 q 190 1156 233 1189 q 101 1090 146 1122 l 6 1090 l 181 1221 l 278 1221 m -157 1040 l 125 1040 l 432 1271 l 143 1271 l -157 1040 m 103 896 l 186 896 l 186 76 l 103 76 l 103 896 m 263 974 l 26 974 l 26 -1 l 263 -1 l 263 974 m 536 1306 l 663 1163 l 361 936 l 432 865 l 432 -171 l 135 -171 l -8 -36 l -8 871 l -107 871 l -258 1006 l 133 1306 l 536 1306 z "},"î":{"ha":636,"x_min":-428,"x_max":843,"o":"m 176 1251 q 292 1172 235 1211 q 407 1092 349 1132 l 329 1092 l 146 1208 l -39 1092 l -115 1092 l 115 1251 l 176 1251 m -315 1043 l 1 1043 l 146 1140 l 289 1043 l 606 1043 l 197 1318 l 94 1318 l -315 1043 m 103 896 l 186 896 l 186 76 l 103 76 l 103 896 m 263 974 l 26 974 l 26 -1 l 263 -1 l 263 974 m 207 1353 l 717 1008 l 843 874 l 432 874 l 432 865 l 432 -171 l 135 -171 l -8 -36 l -8 874 l -275 874 l -428 1008 l 85 1353 l 207 1353 z "},"ï":{"ha":636,"x_min":-183,"x_max":600,"o":"m 265 1119 l 265 1199 l 353 1199 l 353 1119 l 265 1119 m 431 1043 l 431 1275 l 188 1275 l 188 1043 l 431 1043 m -71 1119 l -71 1199 l 17 1199 l 17 1119 l -71 1119 m 93 1043 l 93 1275 l -149 1275 l -149 1043 l 93 1043 m 103 76 l 103 896 l 186 896 l 186 76 l 103 76 m 263 -1 l 263 974 l 26 974 l 26 -1 l 263 -1 m -183 1008 l -183 1310 l 128 1310 l 153 1276 l 153 1310 l 465 1310 l 600 1167 l 600 874 l 432 874 l 432 865 l 432 -171 l 135 -171 l -8 -36 l -8 874 l -40 874 l -183 1008 z "},"ð":{"ha":1778,"x_min":-50,"x_max":1536,"o":"m 747 528 l 747 444 l 321 444 l 321 161 l 818 161 q 969 178 899 161 q 1092 233 1040 194 q 1173 334 1143 272 q 1203 486 1203 396 q 1173 638 1203 575 q 1092 738 1143 700 q 969 794 1040 776 q 818 811 899 811 l 321 811 l 321 528 l 747 528 m 818 733 q 935 721 879 733 q 1033 679 990 708 q 1100 603 1075 650 q 1125 486 1125 556 q 1100 368 1125 415 q 1033 292 1075 321 q 936 251 992 264 q 818 239 881 239 l 399 239 l 399 368 l 824 368 l 824 604 l 399 604 l 399 733 l 818 733 m 238 528 l 238 896 l 818 896 q 1006 874 919 896 q 1156 803 1093 853 q 1255 676 1219 754 q 1290 486 1290 599 q 1255 296 1290 374 q 1156 169 1219 218 q 1006 98 1093 119 q 818 76 919 76 l 238 76 l 238 444 l 61 444 l 61 528 l 238 528 m 161 368 l 161 -1 l 818 -1 q 1040 26 939 -1 q 1213 111 1140 53 q 1326 262 1286 169 q 1367 486 1367 354 q 1326 710 1367 618 q 1213 861 1286 803 q 1040 947 1140 919 q 818 974 939 974 l 161 974 l 161 604 l -15 604 l -15 368 l 161 368 m -50 639 l 126 639 l 126 1008 l 818 1008 q 972 998 897 1008 q 1120 958 1047 988 q 1265 875 1193 929 q 1413 733 1338 821 q 1506 572 1475 671 q 1536 347 1536 474 q 1493 108 1536 207 q 1374 -52 1450 10 q 1190 -142 1297 -114 q 957 -171 1083 -171 l 269 -171 l 126 -36 l 126 199 l 93 199 l -50 333 l -50 639 m 993 310 q 1064 376 1038 333 q 1090 486 1090 419 q 1082 547 1090 518 q 957 564 1024 564 l 925 564 l 993 496 l 993 310 z "},"ñ":{"ha":1465,"x_min":-1,"x_max":1258,"o":"m 878 1217 q 841 1178 863 1200 q 794 1137 819 1156 q 743 1105 769 1118 q 693 1092 717 1092 q 618 1108 649 1092 q 562 1144 588 1124 q 513 1180 536 1164 q 460 1196 489 1196 q 408 1174 429 1196 q 372 1131 388 1153 l 276 1131 q 314 1168 292 1147 q 361 1208 336 1189 q 413 1240 386 1226 q 463 1253 439 1253 q 540 1237 510 1253 q 594 1202 571 1221 q 641 1168 618 1183 q 696 1153 664 1153 q 747 1174 725 1153 q 783 1217 768 1194 l 878 1217 m 750 1293 q 741 1276 747 1286 q 728 1255 735 1265 q 713 1237 721 1244 q 696 1229 704 1229 q 651 1244 675 1229 q 597 1278 626 1260 q 535 1313 568 1297 q 463 1329 501 1329 q 367 1301 414 1329 q 278 1231 319 1272 q 205 1141 238 1189 q 151 1054 172 1093 l 419 1054 q 441 1090 426 1069 q 475 1110 456 1110 q 503 1097 486 1110 q 545 1067 519 1083 q 607 1038 571 1051 q 693 1025 643 1025 q 788 1052 742 1025 q 876 1119 835 1079 q 950 1206 917 1160 q 1004 1293 983 1253 l 750 1293 m 193 764 l 193 76 l 111 76 l 111 896 l 182 896 l 928 208 l 928 896 l 1011 896 l 1011 76 l 942 76 l 193 764 m 1089 974 l 851 974 l 851 383 l 208 974 l 33 974 l 33 -1 l 271 -1 l 271 590 l 915 -1 l 1089 -1 l 1089 974 m 1061 1328 l 1193 1185 q 1141 1098 1171 1144 q 1074 1008 1111 1051 l 1124 1008 l 1258 865 l 1258 -171 l 1042 -171 l 440 381 l 440 -171 l 142 -171 l -1 -36 l -1 1008 l 117 1008 l 94 1019 q 160 1129 119 1069 q 249 1241 200 1189 q 352 1328 297 1293 q 463 1364 407 1364 q 556 1342 514 1364 q 635 1296 599 1319 q 665 1278 654 1283 q 686 1272 675 1272 q 705 1279 697 1271 q 718 1299 713 1288 q 728 1328 724 1311 l 1061 1328 m 356 885 l 817 463 l 817 856 q 704 882 747 858 q 635 925 661 906 q 626 931 629 928 q 619 936 622 933 q 614 940 615 939 q 595 920 606 940 q 578 885 585 900 l 356 885 z "},"ò":{"ha":1672,"x_min":22,"x_max":1476,"o":"m 797 1090 l 701 1090 q 613 1156 657 1122 q 525 1221 569 1189 l 622 1221 l 797 1090 m 678 1040 l 960 1040 l 660 1271 l 371 1271 l 678 1040 m 760 161 q 910 178 840 161 q 1033 234 981 196 q 1114 334 1085 272 q 1143 486 1143 396 q 1113 638 1143 575 q 1032 738 1083 700 q 910 794 981 776 q 760 811 840 811 l 607 811 q 455 794 525 811 q 333 738 385 776 q 252 638 282 700 q 222 486 222 575 q 252 334 222 396 q 333 233 282 272 q 455 178 385 194 q 607 161 525 161 l 760 161 m 607 239 q 489 251 544 239 q 392 292 433 264 q 325 368 350 321 q 300 486 300 415 q 325 603 300 556 q 392 679 350 650 q 490 721 435 708 q 607 733 546 733 l 760 733 q 876 721 821 733 q 974 679 932 708 q 1040 603 1015 650 q 1065 486 1065 556 q 1041 369 1065 417 q 975 293 1017 322 q 878 251 933 264 q 760 239 822 239 l 607 239 m 135 486 q 170 676 135 599 q 269 803 206 754 q 419 874 332 853 q 607 896 506 896 l 760 896 q 947 874 861 896 q 1097 803 1033 851 q 1195 676 1160 754 q 1231 486 1231 599 q 1195 296 1231 374 q 1097 169 1160 218 q 947 99 1033 121 q 760 76 861 76 l 607 76 q 419 98 506 76 q 269 169 332 119 q 170 296 206 218 q 135 486 135 374 m 57 486 q 98 262 57 354 q 212 111 139 169 q 385 26 285 53 q 607 -1 486 -1 l 760 -1 q 981 26 881 -1 q 1153 111 1081 53 q 1267 262 1226 169 q 1307 486 1307 354 q 1267 710 1307 618 q 1153 861 1226 803 q 981 947 1081 919 q 760 974 881 974 l 607 974 q 385 947 486 974 q 212 861 285 919 q 98 710 139 803 q 57 486 57 618 m 669 1306 l 1060 1006 q 1140 931 1107 960 q 1204 874 1174 901 q 1268 815 1235 847 q 1349 732 1301 782 q 1444 572 1411 669 q 1476 347 1476 474 q 1434 108 1476 207 q 1315 -52 1392 10 q 1131 -142 1238 -114 q 899 -171 1025 -171 l 746 -171 q 487 -138 604 -171 q 290 -28 369 -106 q 160 103 211 42 q 78 226 108 165 q 35 351 47 288 q 22 486 22 414 q 65 727 22 628 q 186 889 108 826 q 372 980 264 951 q 607 1008 479 1008 l 622 1008 l 244 1306 l 669 1306 m 760 274 q 863 284 814 274 q 950 319 913 294 q 1009 385 988 344 q 1031 486 1031 426 q 1022 547 1031 519 q 899 564 965 564 l 746 564 q 640 553 690 564 q 552 517 590 542 q 492 450 514 492 q 469 347 469 408 q 475 292 469 314 q 538 278 504 282 q 607 274 571 274 l 760 274 z "},"ó":{"ha":1672,"x_min":22,"x_max":1476,"o":"m 806 1221 q 717 1156 761 1189 q 629 1090 674 1122 l 533 1090 l 708 1221 l 806 1221 m 371 1040 l 653 1040 l 960 1271 l 671 1271 l 371 1040 m 760 161 q 910 178 840 161 q 1033 234 981 196 q 1114 334 1085 272 q 1143 486 1143 396 q 1113 638 1143 575 q 1032 738 1083 700 q 910 794 981 776 q 760 811 840 811 l 607 811 q 455 794 525 811 q 333 738 385 776 q 252 638 282 700 q 222 486 222 575 q 252 334 222 396 q 333 233 282 272 q 455 178 385 194 q 607 161 525 161 l 760 161 m 607 239 q 489 251 544 239 q 392 292 433 264 q 325 368 350 321 q 300 486 300 415 q 325 603 300 556 q 392 679 350 650 q 490 721 435 708 q 607 733 546 733 l 760 733 q 876 721 821 733 q 974 679 932 708 q 1040 603 1015 650 q 1065 486 1065 556 q 1041 369 1065 417 q 975 293 1017 322 q 878 251 933 264 q 760 239 822 239 l 607 239 m 135 486 q 170 676 135 599 q 269 803 206 754 q 419 874 332 853 q 607 896 506 896 l 760 896 q 947 874 861 896 q 1097 803 1033 851 q 1195 676 1160 754 q 1231 486 1231 599 q 1195 296 1231 374 q 1097 169 1160 218 q 947 99 1033 121 q 760 76 861 76 l 607 76 q 419 98 506 76 q 269 169 332 119 q 170 296 206 218 q 135 486 135 374 m 57 486 q 98 262 57 354 q 212 111 139 169 q 385 26 285 53 q 607 -1 486 -1 l 760 -1 q 981 26 881 -1 q 1153 111 1081 53 q 1267 262 1226 169 q 1307 486 1307 354 q 1267 710 1307 618 q 1153 861 1226 803 q 981 947 1081 919 q 760 974 881 974 l 607 974 q 385 947 486 974 q 212 861 285 919 q 98 710 139 803 q 57 486 57 618 m 1064 1306 l 1190 1163 l 958 989 q 1048 964 1004 978 q 1138 923 1092 950 q 1235 851 1183 896 q 1347 736 1286 807 q 1443 574 1410 674 q 1476 347 1476 474 q 1434 108 1476 207 q 1315 -52 1392 10 q 1131 -142 1238 -114 q 899 -171 1025 -171 l 746 -171 q 608 -163 675 -171 q 480 -139 540 -156 q 368 -96 419 -122 q 278 -31 317 -69 q 149 101 199 39 q 72 224 100 163 q 33 350 43 286 q 22 486 22 414 q 43 661 22 583 q 103 798 64 739 q 199 899 143 857 q 326 965 256 940 l 269 1006 l 661 1306 l 1064 1306 m 760 274 q 863 284 814 274 q 950 319 913 294 q 1009 385 988 344 q 1031 486 1031 426 q 1022 547 1031 519 q 899 564 965 564 l 746 564 q 640 553 690 564 q 552 517 590 542 q 492 450 514 492 q 469 347 469 408 q 475 292 469 314 q 538 278 504 282 q 607 274 571 274 l 760 274 z "}}}
